<svg version="1.1" id="图层_1" xmlns="http://www.w3.org/2000/svg" x="0" y="0" viewBox="0 0 800 800" xml:space="preserve"><style>.st1{fill:#4670fd}</style><path id="XMLID_354_" d="M772.2 445.7c-10 49-52.2 74.9-74 117.1-25.5 49.4-33.5 85.1-81 116.1-54.4 35.5-141.3-2.3-212.5-2.3-62.7 0-130.2 24.8-180.5-3.4-56.7-31.7-135.1-48.5-151.5-109.1-15-55.2-53.5-110.6-47.5-189.9 4-52.2 47.9-50.4 68.5-107.1 17-46.9 69-75.8 111-105 28-19.4 44.2-40.1 75-48s57.1-1.8 94.5-1.8c24.1 0 77.3-9.7 101.1-5.3 28.2 5.3 55.3 13.5 79.3 24.5 28.9 13.2 51.2 49.6 77.6 71.4 30.8 25.5 89.8 39.9 108 70.8 26.8 45.8 42.5 120.5 32 172z" opacity=".4" fill="#f2f2f2"/><g id="XMLID_711_"><path id="XMLID_723_" class="st1" d="M341 421.1c3.1 0 5.7-2.5 5.7-5.7v-18.6c0-3.1-2.5-5.7-5.7-5.7-3.1 0-5.7 2.5-5.7 5.7v18.6c0 3.2 2.6 5.7 5.7 5.7z"/><path id="XMLID_731_" class="st1" d="M459 439.4c-3.1 0-5.7 2.5-5.7 5.7 0 26.1-19.5 48.8-45.3 52.8l-2.4.4v-31.9l1.6-.4c7.6-1.7 14-6 18-12.1.5-.7 2.3-3.3 3.3-5.5 1.3-2.8 2.2-6.4 2.2-9.3.1-5.6-2.4-10.2-7-13.1l-.2-.1c-2.4-1.4-5.4-2.2-8.5-2.2-1.2 0-2.3.1-3.6.3-4 .8-9 1.6-11.5 1.7h-.3c-2.9 0-8.9-1.2-11.5-1.7h-.1c-1.1-.2-2.3-.3-3.5-.3-3.2 0-6.2.8-8.7 2.3-4.6 2.8-7.1 7.5-7 13.1 0 2.9.9 6.5 2.2 9.3.7 1.4 1.8 3.3 3.3 5.6 4 6.1 10.4 10.4 18 12.1l1.6.4v31.9l-2.4-.4c-25.8-3.9-45.3-26.6-45.3-52.8 0-3.1-2.5-5.7-5.7-5.7-3.1 0-5.7 2.5-5.7 5.7 0 35.7 29 64.7 64.7 64.7s64.7-29 64.7-64.7c.5-3.2-2.1-5.8-5.2-5.8zm-59.1 16c-6.7 0-12.6-2.9-15.7-7.8l-.1-.2c-.7-.9-1.9-2.9-2.4-4-.6-1.3-1.1-3.3-1.1-4.6 0-1.6.4-2.5 1.6-3.2.7-.4 1.6-.7 2.7-.7.5 0 .9 0 1.4.1 5.1 1 10.3 1.9 13.9 1.9h.2c3.4 0 8.8-1 13.6-1.9.5-.1.9-.1 1.4-.1 1 0 2 .2 2.6.6 1.2.7 1.6 1.6 1.6 3.2 0 1.3-.5 3.3-1.1 4.6-.5 1.1-1.8 3-2.4 3.9l-.2.2c-3.2 5.1-9.1 8-16 8z"/><path id="XMLID_734_" class="st1" d="M494.1 363.2c-10.5-9.2-25.6-13-41.5-10.5-21 3.2-43 16.6-51.5 22.2-.4.3-.7.4-.9.5h-.4c-.2-.1-.6-.3-1.3-.8-8.4-5.5-30.3-18.8-51.2-22-15.9-2.5-31 1.4-41.5 10.5-10.5 9.2-15.9 23.2-15.5 40.6.4 21.5 6.2 54.1 21.2 80.7 19.3 34.3 49.9 52.4 88.4 52.4 38.5 0 69.1-18.1 88.4-52.4 15-26.6 20.8-59.1 21.3-80.7.4-17.3-5-31.3-15.5-40.5zm7.5 40.4c-.4 20.6-6 51.6-20.2 76.9-18.1 32.1-45.5 48.3-81.4 48.3-36 0-63.3-16.3-81.4-48.3-14.3-25.3-19.8-56.4-20.2-76.9-.3-14.9 4.1-26.8 12.8-34.4 6.9-6.1 16.4-9.3 26.9-9.3 2.7 0 5.4.2 8.1.6 19.3 3 40 15.5 48 20.8 2.5 1.6 3.5 2.1 5.8 2.1h.3c1.9 0 3-.4 5.3-1.9 8.1-5.3 28.9-18 48.3-21 13.6-2.1 26.3 1.1 35 8.7 8.6 7.6 13 19.5 12.7 34.4z"/><path id="XMLID_737_" class="st1" d="M575 373.8c0-32.8-26.6-59.5-59.4-59.5-8.5 0-17.1 2.3-26 6.9l-1.4-1.4c-1.2-1.3-2.3-2.4-3.1-3.2-.4-.4-3.5-3.9-4.7-5.2-7.4-8.6-16.7-13.1-24.9-17.1-10.3-5-19.2-9.3-22.6-20.4l-2.1-6.9-4.7 5.4c-4.2 4.9-5.4 7.6-6 12.9-8.6-7.1-13.3-19-14.2-24.3l-1.1-6.7-5.3 4.2-2.7 2.1c-6.8 5.3-13.8 10.8-17.6 19.4-8.1-5.3-8.6-17.2-6.7-35.1l.7-6.7-6.2 2.6c-17.9 7.4-21.6 18.5-26.2 32.7-1.7 5.3-3.7 11.3-6.7 17.9-4.6 10.2-8.3 16.4-16.5 24.1-1.8 1.8-3.5 3.6-5 5.3-.4.4-.7.8-1.1 1.2-9.3-5.1-18.2-7.5-27.1-7.5-32.7 0-59.4 26.7-59.4 59.5 0 24.9 15.8 46.7 39.6 55.2 1.4 32.9 14.5 64.1 37 88.1 23.4 24.9 55.1 39.9 89.3 42.2 3.1.2 6.2.3 9.3.3 32.9 0 64.4-11.8 89.4-33.7 27.4-24 43.8-57.2 46.2-93.5.1-1.3-.1-2.4-.2-3.5 23.7-8.8 39.4-30.5 39.4-55.3zm-44.8 48.4l-2.8.8-.1 2.9c0 1.3.2 2.5.3 3.6.1.9.3 1.6.2 2.2-2.3 34.2-17.7 65.5-43.5 88-25.8 22.6-58.8 33.7-92.9 31.4-32.1-2.1-61.9-16.2-84-39.7-21.9-23.2-34.3-53.6-35-85.6l-.1-2.9-2.8-.8c-22-6.7-36.7-26.2-36.7-48.4 0-28.4 23.1-51.5 51.4-51.5 8.4 0 16.6 2.5 25.8 8l2.7 1.6 2.2-2.3c1.2-1.2 2.3-2.4 3.4-3.6 1.6-1.7 3-3.3 4.7-4.9 9.1-8.6 13.3-15.7 18.2-26.6 3.2-7 5.2-13.2 7.1-18.7 3.7-11.4 6.3-19 15.5-24.7-1.1 14.1-.4 32.2 16.3 38l4 1.4 1.1-4.1c2.2-8 7.7-12.9 14.4-18.1 3.2 9 10.3 21.7 22.1 27.3l5.3 2.5.4-5.9c.3-4.6.5-7.1 1-9 5.5 9.2 14.6 13.7 23.5 18 7.9 3.8 16 7.8 22.4 15.2 1.2 1.4 4.8 5.4 4.8 5.4l.1.1c.8.9 1.9 2 3.2 3.3 1.1 1.1 2.2 2.3 3.5 3.6l2.2 2.2 2.7-1.5c8.8-5 16.7-7.3 24.8-7.3 28.3 0 51.4 23.1 51.4 51.5 0 22.5-14.8 42-36.8 48.6z"/><path id="XMLID_738_" class="st1" d="M459 391.2c-3.1 0-5.7 2.5-5.7 5.7v18.6c0 3.1 2.5 5.7 5.7 5.7 3.1 0 5.7-2.5 5.7-5.7v-18.6c0-3.2-2.6-5.7-5.7-5.7z"/></g></svg>