<svg version="1.1" id="ad97e2e6-c06f-4161-a008-15821dcd6927" xmlns="http://www.w3.org/2000/svg" x="0" y="0" viewBox="-864 826.5 834 619.4" xml:space="preserve"><style>.st0{fill:#4670fd}.st1{fill:#14c44a}</style><path class="st0" d="M-665.6 999.5c-.3-2.3-.9-4.6-1.8-6.8-.2-.8-.8-1.5-1.6-1.9-.5-.1-1-.1-1.5 0l-7.9 1.2c-.7 0-1.3.3-1.8.7-1 1.1 0 2.8 0 4.3 0 1.7-1.5 3.1-3.2 3.5-1.7.3-3.4.3-5-.1l-11.1-1.7c3.3-1 6.2-3 8.4-5.6 1.5-1.7 2.2-5 .1-5.8-.6-.2-1.3-.2-1.9-.2-5 0-9-4.2-13.7-5.9-6.2-2.2-13-.1-17 5.1l5.9.3c.6 0 1.1.1 1.6.4 1.3 1.1-.3 3.1-.1 4.8.2 2.2 3.1 2.6 5.3 2.8s4.9 2 3.9 3.9c-10.9 3.8-22-7.3-33.4-6-2.9.3-5.6 1.5-8.5 2.2-17.3 4.4-35.1-7.3-52.7-4.8-3.9.7-7.8 1.7-11.5 3-2.4.8-4.9 1.6-6.6 3.5-1.7 1.8-2.4 5-.8 6.9-4.6.4-9.1-.1-13.5-1.3 2.4 1.3 3.9 3.9 3.9 6.7-7.1 1.2-14 3.3-20.6 6.3 1.2 2 2.6 3.9 4.3 5.7l-9 5.8c3 .8 4.6 4.9 2.8 7.5 3.2-1.4 5.1-5 8.5-5.8 2.2-.5 4.5.4 6.6 1.3 2.1.8 4.4 1.7 6.6 1 2.2-.6 3.8-3.4 2.4-5.2 9.3-2.7 18.9-4.2 28.5-4.5.7-.1 1.5 0 2.2.4 1.3.9.9 2.8.9 4.3s1.1 3.5 2.5 2.8c-1.6 1.4-.2 4 1.3 5.5s3.4 3.5 2.5 5.4c-.2.5-.7.9-.9 1.4-.7 1.5.4 3.2 1.7 4.2s2.9 1.7 3.8 3c.9 1.4.5 3.7-1.1 3.9l-4.6-5.9c-1.6 1.6-2.7 3.7-3.1 5.9 4.9 4 5.6 12.2 1.5 17-2.1 2.5-5.1 4-7.7 5.9-2.6 1.9-5 4.7-5 7.9 0 5.6-.4 10.8 1.7 16 3.9 9.6 8.3 18.9 13.4 27.9 1.3 2.4 3 5 5.7 5.4-3.4-8.2-6.4-16.6-9.1-25.1 1.8 0 3.8.1 4.8 1.6.9 1.2.7 2.8.9 4.2.3 1.4.9 2.7 1.7 3.9l16.2 28.8c1.3 2.4 2.9 4.9 5.4 5.9 1.6.6 3.5.5 5 1.4 1.2.7 2 1.9 3.2 2.6 3.4 1.9 8.1-1.7 11.3.5.9.6 1.5 1.6 2.3 2.4 2.9 2.5 7.8.8 11.1 2.7 2.2 1.2 3.3 3.7 4.5 5.9 2.9 5.6 7.6 11 13.9 11.4 2 .1 4-.2 5.9.2 1.9.4 3.8 2.1 3.5 4.1-.5 3.3 1.1 7 .7 10.3-.8 6.1-9.5 8.8-10.2 14.9-.2 1.3.1 2.7-.2 4-.4 1.6-1.6 2.9-2 4.5-.8 3 1.4 6 3.7 8.1 2.4 2 5.2 3.8 6.5 6.6 1.4 3 .7 6.5 1.1 9.8 1 7.2 7.2 12.5 13.5 15.9 1.9 1 4 2.1 5.3 3.9 1.6 2.4 1.5 5.5 2 8.3 1.3 6.9 7.2 12.6 7.3 19.6.1 5-2.7 9.5-4.3 14.2-3.1 9.1-2.2 19.2 2.7 27.6 1.2 2.1 2.7 4.1 3.6 6.3 1.6 4.1 1.1 8.7 2.5 12.8 1.9 5.4 7.2 9.9 6.7 15.6 2.4 4.9 7.6 7.4 12.9 8.9l9.5 2.6c1.8.5 3.7 1 5.6.6 1.8-.4 3.6-1.9 3.6-3.8-4.7-1-9.5-2.2-13.3-5-3.8-2.8-6.5-7.9-5-12.4.7-2.1 2.1-4.5.7-6.3-.8-1-2.2-1.3-3.1-2.2-1.4-1.4-.9-3.8.1-5.5 1-1.7 2.4-3.2 2.8-5.2.4-2.2-.6-4.5-2.5-5.6 1.8-.7 3.4-1.7 4.7-3 1.2-1.4 1.8-3.6.8-5.2 2.9.4 6.3.5 8.2-1.7 1.5-1.8 1.4-4.4.8-6.6-.6-2.2-1.6-4.4-1.6-6.7 6.7.3 13.3.1 19.9-.7-1-3.2-3.1-5.9-6.1-7.6 3-.5 5.7-4.1 6.7-7s.7-6 .1-9c-.2-.8-.3-1.6-.1-2.4.3-1.1 1.4-1.7 2.4-2.3l14.9-8.5c.9-.4 1.7-1 2.4-1.8 1.6-1.8 1.3-4.6.5-6.9-.8-2.3-2.1-4.4-2.4-6.8-.9-7.1 6.7-12.2 9.3-19 1-2.6 1.2-5.5 1.4-8.3.2-3 .2-6.5-2.1-8.5-2.2-1.9-5.7-1.5-8-3.2-2.1-1.6-2.9-4.7-5.2-6-2.1-1.2-4.8-.4-7.1-1-4.1-1-6.8-5.7-11-6.2-2.4-.2-5.1.9-7.1-.5-1.7-1.2-1.8-3.7-2.1-5.8-1.2-6.7-6.4-11.9-13-13.1-2.5-.4-5.1-.2-7.2-1.6-2.1-1.4-3.1-3.9-4.8-5.8-2.7-3.1-6.9-4.1-10.9-5.1l-16.1-3.8c-2.9-.7-6.6-1-8.1 1.5-.5 1-.8 2-1 3-1.2 3.9-4.7 6.5-8.8 6.6-1.4-2.3-3.5-4-6.1-4.7-1.6-.5-3.4-.5-4.9-1.2-3.4-1.7-4.9-5.8-3.2-9.3.1-.1.1-.2.2-.3 1.9-3.4 1.3-7.7-1.5-10.4-2.7-2.5-6.7-3.1-10.4-2.8-1-2.1.6-4.5 2.4-6 1.7-1.5 3.8-3 4.2-5.3.6-3.6-4-6.3-7.5-5.2-3.5 1.1-5.7 4.4-7.2 7.8-.8 1.9-1.6 3.9-2.9 5.5s-3.5 2.8-5.5 2.2c-2.9-.7-4-4.1-4.6-7-.8-3.9-1.7-7.8-1.5-11.8.2-4 1.5-8 4.4-10.7 4.8-4.4 12.1-3.9 18.5-3.2-1.5-1.7-1.1-4.6.5-6.2 1.7-1.5 4.1-2.1 6.4-1.6 1.9.4 3.7 1.4 4.9 3 1.8 2.2 2.3 5.2 3.7 7.8 1.4 2.5 4.5 4.7 7 3.3 2.2-1.2 2.5-4.2 2-6.6-.5-2.4-1.7-4.8-1.5-7.3.4-4.7 5.3-7.6 9.6-9.5 4.3-1.9 9.3-4.6 10-9.3 0-.9.2-1.8.5-2.7.5-.8 1.1-1.4 1.9-1.8 12.6-8.3 25.4-16.8 39.9-21.3.8-.2.8 0 1.6-.2 1.1-.6.4-2.3-.7-3s-2.4-1.2-2.7-2.4c-.2-.9.3-1.8.5-2.7.3-2.2-2.3-4.2-4.4-3.4-1.2-1.5 1.1-3.3 3-3.8 5.6-1.5 11.3-2.5 17-2.8.7-.1 1.3 0 1.9.3 1 .7.8 2.2.2 3.2-.7 1-1.8 1.6-2.6 2.4-1.9 1.9-2.6 4.6-1.8 7.2 3 1.5 6.3 3.1 9.6 2.6s6.3-4.3 4.7-7.3c-1.5-2.8-5.8-3.4-6.6-6.5-.9-3.6 4.2-6.8 3-10.3-.5-1.5-2-2.4-3.2-3.5-2.8-2.8-3.7-7-2.1-10.7-3.9.7-7.8-.6-10.6-3.3-2.5-2.6-4.6-6.6-8.2-6.5-3.3.1-6.2 4-9.3 2.8-.8-.3-1.6-.9-2.3-.5-.5.3-.8.8-.9 1.4-.8 3.8.6 8.1-1.5 11.3-2.2 3.5-7.4 4-10.1 7.2-1.5 1.7-2 4.1-3.4 5.9-1.4 1.8-4.2 3-5.8 1.4 1.6-3.4.7-7.4-2.2-9.8-1.5-1-3.1-1.8-4.8-2.3-1.9-.8-3.7-1.8-5.4-3-.8-.5-1.5-1.2-2-2.1-.4-1.1-.3-2.3.1-3.4 1.7-4.8 5.9-8.3 10.9-9 2.2-.3 4.7-.2 6.1-1.8.8-.9 1.2-2.2 2.2-2.5.7-.1 1.4-.1 2.1.3l8.1 2.8c.9.4 1.9.6 2.9.5 1-.1 1.7-1 1.7-2-.3-1.3-2.3-2-2.1-3.3.1-.4.3-.8.7-1.1 5.9-6.3 14.3-9.6 22.8-9 1 1.7-.6 3.6-1.9 5.1-1.3 1.4-2.4 4-.8 5.1.7.3 1.4.5 2.1.5 2 .3 3.9.9 5.7 1.7 2.8 1.2 5.5 2.5 8.2 4-.2-1.8-.5-3.6.2-5.3s2.6-2.9 4.2-2.3c1.6.6 2.4 2.7 4.1 2.9 2.3.3 3.2-3.1 2.2-5.2s-2.8-3.8-3-6.1c-.1-1.5.5-3.5-.8-4.4-.4-.3-.9-.5-1.5-.5l-30.7-5.7c-1.8-.3-4.5-.1-4.5 1.8 0 1 .9 2.1.5 3-.4 1-1.9.9-2.9 1.3-1.6.6-2.4 2.5-2.3 4.2.3 1.7.9 3.3 1.9 4.7-2-.6-5-.8-7-1.6zm-24.5-26.1c-4-1.3-8.3 0-10.9 3.3-.5.7-.9 1.6-.5 2.3.6 1 2.2.6 3.3.3 1.7-.6 3.5-.6 5.2-.1 1.1.4 2 1 3.1 1.4 1.1.4 2.3.3 3.2-.5.7-.8.8-1.9.8-3 .1-.7-.1-1.4-.6-2-.4-.2-.9-.4-1.4-.4-1.1-.2-2.1-.8-2.8-1.7m11.7-2.7c-1.4-.1-2.6 1-2.7 2.4 0 .4.1.8.2 1.2 1.3.4 2.7.5 4.1.3 1.4-.2 2.5-1.3 2.9-2.6-1.6.3-3.3 0-4.7-.9m37.3-5.5c-3.6.8-7.1 2-10.5 3.6 3.2 1.2 5.3 4.5 5 7.9-.1.6-.1 1.3 0 2 .4.9 1.5 1.3 2.5 1.5 1.8.5 3.6.8 5.4.7 1.9-.1 3.6-1.1 4.5-2.8.3-.8.6-1.5.9-2.2 2.4-3.6 9.3.7 11.9-2.7.9-1.2.8-3.1 2-4 .6-.4 1.3-.7 2-.8 5.1-1 10.2-1.7 15.4-2.2 2.4-.2 5.6-1.1 5.7-3.5-9.2-1.8-18.8-.5-27.2 3.7-3 1.5-7 4.7-9.9 2.7-1.1-.8-1-2.8-2.5-3.6-1.5-1-3.5-.7-5.2-.3z"/><path class="st0" d="M-611.7 970.8l4.3.8c-3.1-.1-5.7 2.3-5.8 5.3v.7c4 1.4 8.5 0 12.7.2 4.3.2 9.2 3.2 8.5 7.4-.2 1.3-1 2.5-.6 3.8.3.9 1 1.5 1.5 2.3.9 1.7.2 3.8-1 5.3-1.1 1.5-2.7 2.7-3.6 4.3-2.5 4-1.1 9.1.4 13.6.4 1.7 1.2 3.3 2.3 4.6 2.2 2.3 5.7 2.5 8.9 2.6 2.3 0 5-.1 6.4-1.9 1.9-2.3.6-6 1.8-8.7 1.1-2.5 4.1-3.6 6.7-4.3 4.8-1.4 9.8-2.6 14.3-4.7 5.7-2.6 11-6.7 17.2-7 1.8-.1 3.5.1 5.2-.4 1.7-.5 3.3-1.9 3.2-3.7-.1-1.5-1.4-2.6-2.4-3.7s-1.8-2.9-.9-4l16.4-3.1c-1.2-3.2-2.1-7.3.6-9.4 1-.7 2.2-1 3.1-1.9 1.4-1.5.7-4.2-.9-5.5-1.6-1.3-3.8-1.6-5.8-1.8-7.2-.6-14.4-.2-21.6.2-14 .8-28.1 1.5-42.1 2.3-2.8.2-6.1-.1-8.7.9-2.2.8-3.8 2.3-6.3 2.8-4.5 1-9.6.4-13.8 3zm77.4 34.2c-.4-.1-.9 0-1.3.3-.2.3-.4.6-.4 1-.3 1.6.1 3.2.9 4.6.9 1.4 2.5 2.1 4.1 2 1.9-.2 3.4-1.9 5.2-2.7 2.8-1.2 14.5-3.2 6.4-7.6-2.8-1.5-4.6-.2-6.8.8-2.5 1.2-5.3 1.8-8.1 1.6zm71-36.7c-.9.4-1.7 1.1-2.3 2-.5.9-.2 2.1.7 2.6.4.1.7.2 1.1.2l3.8.1c1.6 0 3.7.4 4.1 2 .3 1.2-.4 2.7.5 3.5.4.3.8.5 1.3.5 1.3.3 2.6.4 3.9.1 2.8-.8 1.3-2.5 2.2-4 1.3-2.3 1.1-.9 3.5-2.3 1.8-1 4-2.8 2.6-5.3-2.5-4.3-17.7-1.3-21.4.6zm75.9-2.2l-2.2.3c-5 .7-10.1 1.4-15 2.9 2.1.8 4.3 1.4 6.5 1.6 1.2.1 2.5.2 3.7.5 2.1.6 4.3 2.3 6.4 1.4 1.3-.5 1.7-1.9 2.8-2.6.7-.5 3.5-1.3 3.8-1.8 2.5-3.9-4.1-2.5-6-2.3zm9.8 10.2c-3 1.7-5.8 3.7-8.2 6-1 1-2.1 2.2-2 3.7.1 1.9 2.2 3 3.9 3.8l7.1 3c.9-1.2.1-2.9-.8-4.1s-2-2.6-1.6-4c.5-1.6 2.5-2.2 4.1-2.5 2.7-.5 10.2-.4 9.3-4.8-1-5.3-9-2.7-11.8-1.1zm-1.4 295c-.7 2-.7 4.3.4 6 1.3 1.9 4 2.6 6.2 2.2 2.3-.6 4.3-1.9 5.8-3.7 1.4-1.5 2.5-3.2 3.3-5.1 1.2-2.9 2-5.9 2.5-9l2.2-11.6c.5-2.6.5-10.6-4.3-8-1.3.7-4.3 6.3-5.7 7.9-2.5 2.9-2.8 5.6-4.1 9.1-1.5 4.2-4.8 7.8-6.3 12.2zm252.6 59.5c-1.6-.6-3.1-1.3-4.5-2.2-1.5 4-2.2 8.3-2.3 12.6l10.7-6.1c1.6-.9 3.4-2.2 3.4-4 0-.5-.2-.9-.6-1.2-.2-.1-.5-.1-.8-.1-1.6.1-3 .9-4.5 1.5s-3.2.8-4.6 0m59.6 3.1c-1.2.3-2.3.7-3.4 1.2-2.5 1.3-4.1 3.6-6.3 5.3-2.1 1.6-4.7 2.4-7.2 3.3-.7.7-.4 2 .4 2.5.9.5 1.8.7 2.8.6 2.6.1 5.3.1 7.6-1.2 1.3-.8 2.5-1.8 3.6-2.8 2.7-2.2 5.9-3.7 9-5.1 1.2-.4 2.2-1.1 3.1-1.9 2-2 2.1-5-.7-5.6-2.3-.5-6.7 3-8.9 3.7zm25-16.3c.3-2.7-.7-5.4-2.7-7.3 0 2.7-.1 5.6-1.6 7.8-1.1 1.6-2.8 2.7-4 4.2-1.2 1.5-1.7 3.9-.3 5.2.9.7 2 1 3.1 1.1 2.8.3 6 .5 7.9-1.5 1.1-1.1 1.6-2.7 2.9-3.5.5-.2.9-.5 1.3-.9.5-.8-.3-2-1.3-2.3-1-.3-2-.2-3-.5s-1.8-1.4-1.3-2.2m-45.4-98.9c-1.4.4-3 .4-4.4.3-2.5-.5-4.4-2.3-6.4-3.8-4.7-3.6-10.5-5.6-16.4-5.7-5.4-.1-10.8 1.4-16.1.3.3 1.9 2 3.4 3.8 4.2 1.8.9 3.7 1.3 5.5 2.1 2.8 1.4 5.1 3.7 6.3 6.6.6 1.3.9 2.8 1.8 3.9 1.8 2.4 5.1 2.9 8 2.7 3.8-.3 7.9-1.4 11.4.1 2.7 1.1 4.7 3.5 7 5.4 2.3 1.9 5.5 3.2 8.1 1.9-5.6-1.8-9.4-7-9.3-12.9 2.6.2 10 .1 9.6-4.2-.3-3.8-6.7-1.3-8.9-.9zm-33.6 30.1c.5-2.5 3-4.7 2.2-7.1-.5-1.7-2.5-2.5-4.2-2.5-1.8 0-3.5.5-5.2.5-1.1-.1-2.3 0-3.4 0-3.5.6-5.6 4.2-8.9 5.5-2 .8-4.3.6-6.3 1.2-4.7 1.2-7.7 5.7-11 9.3-5.3 5.8-12.3 9.8-20 11.6-2.7.6-5.6 1-7.7 2.8-2.8 2.3-3.5 6.3-4.2 9.9-1.7 9.9-4.4 19.7-7.9 29.1l11.2 1.4c2.1.3 4.3.5 6.4-.1 1.5-.6 2.9-1.3 4.2-2.2 5-3.1 10.6-5.1 16.4-5.9 2.9-.4 6-.5 8.8.6 2.8 1.1 5.1 3.6 5.4 6.5 2.4-.8 5.1-.1 6.9 1.7 1.8 1.8 2.9 4.1 3.3 6.6.3 1.5.6 3.4 2 4 1.2.5 2.5 0 3.8-.1 4.3-.3 7.9 4.7 12.1 3.8 4.5-.9 5.7-7.7 10.1-9.1 2.5-.8 6.1.2 7.3-2.2 1.1-2.1-1.1-4.5-.8-6.8.3-2.9 3.7-4.1 6.3-5.3 9-4.2 13.3-16.4 8.9-25.4-2.6-5.3-7.7-9.5-8.6-15.3-.7-4.5 1-9.7-1.8-13.3-1.5-1.8-3.9-2.8-4.8-4.9-.5-1.4-.3-2.9-.6-4.3s-1.5-2.9-2.9-2.5c-4.1 1.1-5.4 13.7-7.6 16.8-3.6 4.6-10.5 1.5-9.4-4.3zm-75.6-25.3c-1.4-.4-2.9-.8-4.3-.2s-2.1 2.5-1 3.5c8.4-.3 16.9-.7 25.2.5 9.6 1.3 19.1 4.6 28.7 3.6-5.5-1.6-11.1-2.9-16.8-3.9l-9.4-1.8c-2.5-.5-5.1-.9-7.7-1.2-5.3-.5-9.4 1-14.7-.5zm8.4-29.3c-.7-.1-1.6-.1-1.9.5-.3.6 0 1.3-.1 2-.3.9-1.4 1.1-2.3 1-.9-.1-1.9-.4-2.7 0-.8.6-1.2 1.6-.9 2.6.3.9.9 1.8 1.6 2.5 1.2 1.5 2.5 2.9 4 4 2.9 2.1 6.8 3.2 8.6 6.3.3.6.7 1.1 1.2 1.5.9.6 2 .1 3-.3l3.3-1.5c.6-.2 1.1-.6 1.5-1 .8-1 .3-2.5-.3-3.6s-1.4-2.2-1.3-3.5c.2-2.3 3.1-3.1 4.3-5 1.2-1.9.4-4.4.6-6.7.2-2.7 1.8-6.1-.9-8.1-2.3-1.7-4.5-.1-6.1 1.7-3.6 3.9-5.2 8.1-11.6 7.6zm20.1-39.8c1.1 2.2 3.5 3.4 4.7 5.5 1.3 2.3 1.2 5.2 2.6 7.4 1.5 2.3 4.5 3.5 5.3 6 .9 2.8-1.2 6.2.5 8.7 1.2 1.6 3.5 1.9 5.1.7.1-.1.2-.1.2-.2 1.4-1.6 1.4-4-.2-5.5-1-.9-2.4-1.3-3.2-2.3-.4-.6-.7-1.3-.8-2-.4-2.1-.4-4.2.2-6.3.2-.5.3-1.1.2-1.6-.4-1.1-1.8-1.1-2.8-1.6-2.3-1.1-2.2-4.3-1.8-6.9-.3 1.7-6.2-1.2-6.9-2.1-1.2-1.9-.6-5.5-.8-7.6-2.7 1.3-3.7 5.2-2.3 7.8zm-60.2 33.2c-1.1-1.2-2.8-2.5-4.2-1.8-1.1.6-1.4 2.1-1 3.3.5 1.1 1.4 2.1 2.4 2.9 3.1 2.5 6.4 4.8 9.1 7.8 4.8 5.3 7.3 12.4 12.6 17.3 1.1 1.1 2.4 1.9 4 2.1 1.5.1 3.2-.8 3.4-2.4.1-1.3-.7-2.4-1.6-3.3-2-2.2-4.3-4.2-6.2-6.5-.9-.9-1.4-2-1.6-3.3 0-1.2 1.1-2.5 2.3-2.2-1.5-.4-2.5-2.8-4.7-3.3-1.8-.4-2.2.7-4.4-.2-4-1.8-7.2-7.2-10.1-10.4zm95.8-120.1c-1.2-.3-2.3-.8-3.4-1.2-3-.9-7 1.3-6.6 4.4.3 2.1 2.2 3.5 3.3 5.3 1.6 2.7 1.2 6.1.3 9.1-.2.9-.6 1.8-1.1 2.6-.8.8-1.7 1.5-2.7 1.9-4.1 2.3-7.7 5.4-10.6 9-.3.3-.5.8-.6 1.2-.1 1.1.9 1.8 1.5 2.7 1.3 2 .4 4.6.5 7 0 .7.3 1.3.8 1.7.8.4 1.8-.3 2.2-1.1 1.4-2.6.4-6.8 3.1-8.1.5-.2 1.1-.3 1.5-.8.5-.7 0-1.8.3-2.6.4-1.3 2.2-1.3 3.5-1.3 2.3.1 4.6-.2 6.9-.9.9-.2 1.7-.7 2.3-1.3.8-1 .7-2.5.6-3.7-.8-6.4-2.8-12.6-6-18.3 2.4.3 5 .6 7-.7 1.2-.7 2.5-2.8 2-4.2-1.2-2.2-2.8-.3-4.8-.7zm-305.8 35.3c.3 1.5.6 3.1.1 4.6-.5 1.5-2.1 2.7-3.6 2.3-1.2-.4-1.8-1.5-2.6-2.4-4.6-4.9-14.9-2.1-17.7-8.2-1.2-2.5-.4-5.5-1.2-8.1-1-3.1-4-5.2-7.3-5-1.5.2-2.9.6-4.2 1.3-8.9 3.6-18.3 5.9-27.8 7-1.8.1-3.6.4-5.3 1-3.9 1.4-6.6 5.1-8.5 8.8-1.9 3.7-3.3 7.7-5.9 11-2.7 3.5-6.5 5.9-10 8.5-1.4.9-2.5 2.1-3.3 3.4-.8 1.6-.7 3.4-.7 5.1l.7 21.1c.1 2.7.2 5.5 1.4 8 1.5 3 4.5 5 6.6 7.7 2.1 2.8 3.2 6.2 3.1 9.6 0 1.4-.2 3.1.9 3.9.7.4 1.4.7 2.2.6l28.6 2.3c5 .4 10.6 1.1 13.9 4.9 1.5 1.8 2.8 4.4 5.2 4.6 1 .1 2-.3 3-.4 2.6-.2 4.8 1.7 6.2 3.9 2.2 3.3 3.1 7.2 2.8 11.1-.2 2.4-1 4.8-1.2 7.3-.6 9.3 7.3 17.4 7.4 26.8.1 5.5-2.5 10.6-5.1 15.5 4.1 6.2.7 14.5 2.4 21.8 1.6 6.9 7.3 12.3 8.7 19.2.7 3.2.7 7.1 3.5 8.7 1.2.6 2.6.9 4 .8 8.2.1 16.4-1.8 23.7-5.4 3.5-1.7 7-4.3 7.6-8.1.5-3.1-1.1-6.5.5-9.2 1.9-3.2 6.7-2.9 9.4-5.3 4.5-3.9 1-11.4 2.8-17.1 1.6-5.1 7.2-7.8 10-12.4 1.1-2 1.9-4.1 2.3-6.3 1.3-5.3 2.1-10.6 2.4-16.1.1-3.3.3-6.6.7-9.8 3-18.6 21.4-31 27.3-48.9.6-1.7.8-4-.7-4.9-.9-.4-1.9-.5-2.9-.3l-13.2 1.7c-1.6.2-3.4.4-4.9-.3s-2.6-2.6-1.8-4c2.2-4-2.4-9.2-4.4-13.3-5.5-11.2-12.1-21.8-19.6-31.7-.5-.5-.8-1.2-.9-1.9l3.7.1c-1.3-4.5-3.3-9.5-7.7-11.1-2.5-.9-5.2-.6-7.9-.5-7.1.4-15.2-.7-22.7-1.9z"/><path class="st0" d="M-417.1 1001.5c2 2.1 4.2 4.3 7.1 4.7 5.1.6 8.7-4.6 11-9.1.2 2.4 2.2 4.2 4.7 4.1 1.2-.2 2.4-.7 3.5-1.4 10-5.5 21.3-8.4 32.7-8.5-.2-1.8.9-3.5 2.7-3.9 2.3-.5 4.4 1.5 5.5 3.6 1.1 2.1 1.8 4.5 3.6 6.1 1.8 1.6 5.2 1.5 5.9-.8.7-2.2-1.6-4-3.5-5.3s-3.9-3.7-2.6-5.5c9.6-2.1 19.3-4.3 29.1-4.7 1.7.1 3.3-.2 4.9-.8 1.5-.7 2.7-2.4 2.3-4-4.4 1-9-.7-11.6-4.4 13.6-1.1 28.1-2.1 40.2 4.3 1.5 3.1-5.9 5.7-4 8.5.6.9 1.9 1 3 1 8.4.2 16.8.3 25.1-1 3-.5 6.1-1.1 9.1-.7 5.1.6 9.4 4 14.4 5.1 2 .4 4.3.5 6-.7 1.7-1.2 2.4-3.9 1-5.4 4.7-4.6 12.5-3.5 18.7-1.3 6.2 2.2 12.1 5.8 18.6 6.3 4.7.4 9.5-.9 14.1-.1 2.9.5 5.6 1.8 8.5 2.6 5.4 1.5 11.1 1.2 16.7 1.3 14.3.2 28.5 3 41.8 8.3 1.7.6 3.3 1.5 4.6 2.7 1.2 1.3 1.9 3.4 1 5l-13.7-2c1.3 2.5 4.6 3 7.4 3.9 2.7.9 5.5 3.9 3.9 6.2-2.9-.9-5.6 2-7.1 4.7s-3.3 6-6.4 6.1c-2.8.1-6.1-2.2-7.9-.1 2.5 3.1 4.6 6.6 6.4 10.2 1.8 3.7 3 8.4.6 11.7-.4.6-1 1-1.6 1.3-2 .5-3.2-1.9-4.7-3.4-1.8-1.8-4.5-2.4-6.9-3.2s-4.9-2.6-5.1-5.1c-.1-1.6.7-3.1 1.3-4.5 1-2.5 1.5-5.1 1.3-7.8-.1-2.2-.7-4.4-2.3-5.9s-4.2-2-5.9-.6c-.8.6-1.4 1.7-2.4 1.7-1.8.1-3.1-3-4.6-2 .2 1.1-.1 2.3-.7 3.2-4.3 3.7-10.8 2.1-16.3 3.4-2.6.7-5.1 1.8-7.4 3.2-.9.4-1.6 1-2.1 1.8-.7 1.3.1 3 1.3 3.9 1.3.8 2.7 1.3 4.2 1.4 6.7 1.3 13.5 3.2 18.8 7.5 5.3 4.3 8.8 11.4 7.1 18l-13.2-12.6c.5 5.3.8 10.6.9 15.9.1 1-.1 2.1-.4 3.1-.9 2.1-3.5 2.8-5.7 3.2-2.4.5-4 2.8-3.6 5.2 0 .2.1.3.1.5.8 2.6 2.8 4.6 4.6 6.6 1.8 2 3.6 4.3 3.8 7 .2 2.7-1.8 5.7-4.5 5.6-2-.1-3.6-2-4.4-3.8-.9-1.9-1.4-3.9-2.7-5.5-4-4.8-12.9-2.7-16.5-7.8-1.8 2.1-2.5 5-1.7 7.7 1.7-1 3.9-.1 5.2 1.4s1.8 3.4 2.8 5.1c1.3 2.3 3.4 4.3 3.6 6.9 0 1 0 2 .1 3 .3 1.6 1.7 2.7 2.6 4.1 2.2 3.1 2.1 7.4.7 10.9-1.4 3.5-3.9 6.5-6.4 9.3-4.4 5-8.8 9.9-14 14.1-1.5 1.2-3 2.3-4 4-.9 1.6-1 4 .4 5.2-1 .1-2.8.5-3.8.6-.4-4-.4-8.1-.2-12.2-4-1.9-8.3 3.2-7.8 7.6s3.7 7.9 5.9 11.7c1.7 2.8 2.9 6 2.3 9.2s-3.4 6.1-6.6 5.8c-5.1-.4-7.3-7.8-12.3-8.6-.4-.1-.9-.1-1.3.1-.8.4-.9 1.4-.9 2.3-.2 4.2-.4 8.6 1.3 12.5 2.4 5.7 8.6 10.4 7.3 16.5-7-3.3-10.7-11.1-12.3-18.7-1.7-7.6-1.9-15.5-4.9-22.6-2.3 2.9-7 .5-9-2.5-2-2.9-3.2-6.2-5-9.1s-4.8-5.5-8.3-5.7c-3.6-.2-6.8 2.3-9.6 4.7-2.3 1.9-4.6 4-6 6.6-1.9 3.9-1.4 8.5-1.5 12.9-.1 4.7-1.1 9.7-4.3 13.1-3.2 3.4-9.1 4.6-12.7 1.5-1.8-1.6-2.7-4-3.5-6.4-3.8-11.2-7-22.6-9.6-34.2-.6 2.6-2.9 6-5.1 4.5-.5-.4-.9-.9-1.2-1.5-4.1-7-11.8-11.2-19.5-13.7-7.7-2.5-15.9-3.7-23.5-6.5-4.3-1.6-8.4-3.6-12.2-6.1-2 2.9-2.2 6.7-.6 9.8 1.7 3 5.5 4.7 8.8 3.7 1.7-.5 3.1-1.7 4.8-2.3s3.9-.3 4.7 1.3c.7 1.6-.4 3.4.2 5.1.8 2.5 4.5 2.7 5.8 4.9 1 1.7.2 3.9-1.2 5.2-1.4 1.4-3.2 2.1-4.9 3-5.5 3.1-9.4 8.3-14.2 12.3-4.8 4.1-11.6 7-17.3 4.4 1.4-6.9-6.9-12-8.4-18.8-.5-2.3-.2-4.7-.9-6.9-1-3.2-3.9-5.4-6.2-7.8-5.7-6-8.7-14-8.4-22.3.1-2.8.6-5.7 0-8.5s-2.9-5.4-5.8-5.3c-6.5.3-14.6.8-18-4.8-1.2-2-1.7-4.9 0-6.4 1.2-1.1 3.1-1 4.7-.8l14.6 1.4c3.4.3 7.1.6 10-1.2s4.2-6.5 1.5-8.6c-2-1.5-5.5-1.5-6.1-3.9-.5-2 1.8-4.3.6-6-.9-1.2-2.8-.9-4 0s-2 2.2-3.4 2.9c-2.3 1.2-5.1.1-7.6-.7-2.5-.8-5.9-.9-7.1 1.5-1.4 2.6 1.2 6-.1 8.6-1.8 3.4-7.8 1.5-10.3 4.5-2.9 3.4 2 8.5 1 12.8-2.5 1.2-5.5 1.1-7.9-.4-2.3-1.6-3.6-4.3-3.3-7.1.2-2 1.3-4 .6-5.8-.6-1.5-2.1-2.4-3.4-3.2l-14.2-7.8c-1.3 2.4.3 5.5 2.4 7.3s4.7 3.2 6.1 5.6c1.8 3.5.6 7.7-2.8 9.7-.4.3-.9.4-1.4.2-.5-.3-.8-.7-.9-1.2-2.5-6.4-6.3-12.7-12.3-16.1-6-3.3-14.6-2.7-18.6 3-.9 1.3-1.6 2.9-2.4 4.3-4.3 7.5-13.6 11.1-22.3 10.9-.8 0-1.7-.2-2.4-.6-1.4-1-1.3-3-1.1-4.7l.9-7.2c.2-1.4.4-3 1.6-3.9 1.6-1.3 3.9-.5 6-.5 3.2-.1 5.9-2.3 6.9-5.3.8-3-.1-6.3-2.4-8.5-.9-.9-2.2-2-1.7-3.2.4-.7 1.1-1.1 1.8-1.2 3.7-1.1 7.6-1.3 11.2-2.6 3.6-1.3 7.1-3.8 8-7.6.3-1.1.4-2.5 1.4-3.1.5-.2 1.1-.3 1.6-.3 4.1-.6 7-4.2 6.8-8.3 1.7-1.2 4.2-.3 5.8 1 1.7 1.3 3.2 3 5.2 3.5 3.8 1 7.5-2.3 11.4-2.3 1.7 0 3.4.6 4.9 0 1.6-.6 2.5-2.1 3.7-3.3 1.2-1.2 3.3-1.9 4.5-.6l-1-7.1c3.9 1 8 .2 11.3-2l-12.3-4.2c-.4-.1-.8-.3-1.2-.6-.9-1 0-2.5.7-3.6 1.7-2.6 2-6.9-.8-8.3-2-.9-4.2.2-6.1 1.2l-9 5c-.3 1.7 1.8 2.7 3.1 3.8 2.1 1.9 2.3 5.2.4 7.3-1 1.1-2.4 1.7-3.8 1.7 1.2 1.6 1.6 3.6 1.2 5.5l-6.1.4c-.7.1-1.4 0-2-.4-.6-.6-.6-1.6-.7-2.4-.4-2.1-2.4-3.5-4.4-3.9-2.1-.4-4.2.1-6.2.6-.9.3-1.8.3-2.7-.1-.5-.3-.9-.8-1.1-1.3-.9-2.2-.1-4.7 1.4-6.6 1.4-1.9 3.4-3.2 5.2-4.7 4.2-3.7 7.3-8.5 8.9-13.9 3.3-1.4 6.8-3.3 10.1-4.7 5.1-2.6 10.9-3.7 16.6-3.2l11.3.2c3.3.1 6.8.1 9.9 1.4 3.1 1.3 5.8 4 6 7.4.1.8-.1 1.5-.7 2.1-.4.2-.9.3-1.4.3-2.8.9-4.1 1.7-7.2 1.8zm-90 35.3c.9-.9 1.2-2.1.9-3.3-2.2-.8-4.7-.4-6.4 1.2-.7.7-1.2 1.4-1.7 2.3-1.5 2.4-2.8 5.3-1.9 8 .1.6.5 1.1 1 1.4.4.2.8.2 1.2.2 1.6 0 3.3-.1 4.9-.3 1-.1 2.2-.4 2.5-1.3.5-1.2-.7-2.6-.4-3.9.2-.6.6-1.1 1-1.5.5-.4.7-1 .6-1.7-.1-.6-1.1-.9-1.4-.4"/><path class="st0" d="M-498.6 1025.8c-1.5-.3-2.9-.4-4.4-.3-.3 0-.7.1-.9.2-.3.2-.5.5-.6.8-.6 2.1.4 4.3 2.4 5.1.5.1 1 .3 1.5.6 1.3 1 .5 3 .7 4.5.3 1.8 2 3.2 1.7 5-.2 1.4-1.7 2.5-1.5 3.9.2 1.4 2.1 1.9 3.5 2 .8.1 1.7 0 2.5-.3.8-.5 1.4-1.4 1.6-2.3.6-1.8.9-3.7.7-5.5 0-.9-.2-1.7-.6-2.4-.4-.6-.9-1.2-1.5-1.7-2.7-3.2.2-8.1-5.1-9.6z"/><circle class="st1" cx="-740.8" cy="1047.8" r="5.7"/><circle class="st1" cx="-655.8" cy="1249" r="5.7"/><circle class="st1" cx="-298.4" cy="1047.6" r="5.7"/><circle class="st1" cx="-129.7" cy="1283.6" r="5.7"/><circle class="st1" cx="-437.1" cy="1181.5" r="5.7"/><path class="st1" d="M-575.5 1169.8c-1.3.8-2.6 1.6-3.9 2.5-.5.3-.7 1-.3 1.6.2.3.6.5 1 .5.2 0 .4-.1.6-.2 1.3-.8 2.6-1.6 3.8-2.5.5-.3.7-1 .4-1.6-.3-.5-1-.6-1.6-.3zm-76.2-108.5c-1.4-.5-2.9-1-4.3-1.5-.6-.2-1.2.1-1.4.7-.2.6.1 1.2.7 1.5 1.4.5 2.9 1 4.3 1.5.1 0 .3.1.4.1.5 0 .9-.3 1.1-.8.1-.6-.2-1.3-.8-1.5zm64.7 116c-1.3.9-2.5 1.7-3.8 2.6-.5.4-.7 1.1-.3 1.6.2.3.6.5.9.5.2 0 .4-.1.6-.2 1.2-.9 2.5-1.7 3.8-2.6.5-.4.7-1.1.3-1.6-.3-.5-1-.7-1.5-.3zm10.1-80.5c.4 0 .8-.2 1-.6.3-.6.1-1.2-.5-1.5-1.4-.7-2.7-1.4-4.1-2.1-.6-.3-1.2-.1-1.5.5-.3.6-.1 1.2.5 1.5 1.4.7 2.7 1.4 4.1 2.1.2.1.4.1.5.1zm9.8 70.3c.2 0 .4-.1.6-.2l3.9-2.4c.5-.3.7-1 .4-1.6-.3-.5-1-.7-1.6-.4l-3.9 2.4c-.5.3-.7 1-.4 1.6.3.4.6.6 1 .6zm13.2-95.5c.5 0 1-.4 1.1-.9.1-.6-.3-1.2-.9-1.3l-4.5-.8c-.6-.1-1.2.3-1.3.9-.1.6.3 1.2.9 1.3l4.5.8h.2zm-10.8 31.6c.4 0 .8-.2 1-.6.3-.6.1-1.2-.5-1.5-1.3-.7-2.7-1.4-4-2.1-.6-.3-1.2-.1-1.5.5-.3.6-.1 1.2.5 1.5 1.3.7 2.7 1.4 4 2.1.1 0 .3.1.5.1zm-2.7-34.1c.5 0 1-.4 1.1-.9.1-.6-.3-1.2-.9-1.3l-4.5-.8c-.6-.1-1.2.3-1.3.9-.1.6.3 1.2.9 1.3l4.5.8h.2zm-79.2 162.9c-.5-.4-1.2-.2-1.6.3-.9 1.3-1.7 2.6-2.5 3.9-.3.5-.2 1.2.4 1.6.2.1.4.2.6.2.4 0 .8-.2 1-.5.8-1.2 1.6-2.5 2.5-3.8.3-.6.1-1.3-.4-1.7zm38.9-38.5c-.4-.5-1.1-.6-1.6-.2-1.2.9-2.4 1.9-3.6 2.8-.5.4-.6 1.1-.2 1.6.2.3.6.4.9.4.3 0 .5-.1.7-.3 1.2-.9 2.4-1.9 3.6-2.8.5-.2.5-1 .2-1.5zm-32 27.9c-1 1.2-2 2.4-3 3.5-.4.5-.3 1.2.2 1.6.2.2.5.3.7.3.3 0 .7-.1.9-.4.9-1.1 1.9-2.3 2.9-3.5.4-.5.4-1.2-.1-1.6-.5-.5-1.2-.4-1.6.1zm87-111.7c.4 0 .8-.2 1-.6.3-.6.1-1.2-.4-1.6-1.3-.7-2.7-1.5-4-2.2-.6-.3-1.2-.1-1.5.5-.3.6-.1 1.2.5 1.6 1.3.7 2.7 1.5 4 2.2 0 .1.2.1.4.1zm-81.3-52.1c.1-.6-.4-1.2-1-1.3l-4.5-.6c-.6-.1-1.2.4-1.3 1-.1.6.4 1.2 1 1.3l4.5.6h.2c.5 0 1-.4 1.1-1zm7.9 13.7l-4.2-1.8c-.6-.2-1.3 0-1.5.6-.2.6 0 1.3.6 1.5 1.4.6 2.8 1.2 4.2 1.7.1.1.3.1.4.1.4 0 .9-.3 1.1-.7.3-.5 0-1.2-.6-1.4zm13.2 6.9c.3-.6 0-1.3-.6-1.5-1.4-.6-2.8-1.2-4.2-1.9-.6-.3-1.3 0-1.5.6-.3.6 0 1.3.6 1.5l4.2 1.8c.2.1.3.1.5.1.4.1.8-.1 1-.6zm-5.5 124c-.4-.5-1.1-.5-1.6-.1-1.2 1-2.3 2-3.5 3-.5.4-.5 1.1-.1 1.6.2.3.5.4.9.4.3 0 .5-.1.8-.3 1.1-1 2.3-2 3.4-3 .4-.4.5-1.1.1-1.6zm20.1-17.1c-1.3.9-2.5 1.8-3.7 2.7-.5.4-.6 1.1-.2 1.6.2.3.6.5.9.5.2 0 .5-.1.7-.2 1.2-.9 2.4-1.8 3.7-2.7.5-.4.6-1.1.3-1.6-.5-.5-1.2-.7-1.7-.3zm112.6-99.9c.1-.6-.2-1.2-.8-1.4-1.5-.4-3-.7-4.4-1.1-.6-.1-1.2.2-1.4.8-.1.6.2 1.2.8 1.4 1.5.4 3 .7 4.4 1.1h.3c.5.1.9-.3 1.1-.8zm-5.3 38.7c-1.4.7-2.7 1.3-4.1 2-.6.3-.8 1-.5 1.5.2.4.6.6 1 .6.2 0 .3 0 .5-.1 1.4-.7 2.7-1.3 4.1-2 .6-.3.8-1 .5-1.5-.2-.5-.9-.7-1.5-.5zm-12.4 6c-1.4.7-2.7 1.4-4.1 2-.5.2-.7.8-.6 1.3l-.6-.3c-.5-.3-1.2-.2-1.6.4-.3.5-.2 1.2.4 1.6l3.9 2.4c.2.1.4.2.6.2.4 0 .8-.2 1-.5.3-.5.2-1.2-.4-1.6-.7-.4-1.3-.8-2-1.2.1 0 .2-.1.3-.1 1.4-.7 2.7-1.4 4.1-2 .6-.3.8-1 .5-1.5-.2-.7-.9-.9-1.5-.7zm4.3-47.9c.1-.6-.2-1.2-.9-1.4-1.5-.3-3-.7-4.5-1-.6-.1-1.2.2-1.4.9-.1.6.2 1.2.9 1.4 1.5.3 3 .7 4.5 1h.3c.5 0 1-.3 1.1-.9zm6.1 60.6l-3.9-2.4c-.5-.3-1.2-.2-1.6.4-.3.5-.2 1.2.4 1.6l3.9 2.4c.2.1.4.2.6.2.4 0 .7-.2 1-.5.2-.6.1-1.3-.4-1.7zm10.9 9.5c.4 0 .7-.2 1-.5.3-.5.2-1.2-.3-1.6-1.3-.8-2.5-1.6-3.9-2.5-.5-.3-1.2-.2-1.6.3-.3.5-.2 1.2.3 1.6 1.3.8 2.6 1.7 3.8 2.5.3.2.5.2.7.2zm11.5 7.5c.4 0 .7-.2 1-.5.3-.5.2-1.2-.3-1.6-1.2-.8-2.5-1.7-3.8-2.5-.5-.3-1.2-.2-1.6.3-.3.5-.2 1.2.3 1.6 1.3.9 2.6 1.7 3.8 2.5.2.2.4.2.6.2zm-79.7-3.5c-.3-.5-1-.7-1.6-.4-1.3.8-2.7 1.5-4 2.3-.5.3-.7 1-.4 1.6.2.4.6.6 1 .6.2 0 .4-.1.6-.2 1.3-.8 2.6-1.5 4-2.3.5-.4.7-1.1.4-1.6zm71.7-38c-1.4.6-2.8 1.3-4.1 1.9-.6.3-.8.9-.5 1.5.2.4.6.7 1 .7.2 0 .3 0 .5-.1 1.4-.6 2.8-1.3 4.1-1.9.6-.3.8-.9.6-1.5-.3-.7-1-.9-1.6-.6zm-62.1-1.7c.4 0 .8-.2 1-.6.3-.5.1-1.2-.4-1.6-1.3-.8-2.6-1.5-4-2.3-.5-.3-1.2-.1-1.6.4-.3.5-.1 1.2.4 1.6 1.3.8 2.7 1.5 4 2.3.2.2.4.2.6.2zm28.2-37.4c.1-.6-.3-1.2-.9-1.4-1.5-.3-3-.7-4.5-1-.6-.1-1.2.3-1.4.9-.1.6.3 1.2.9 1.4 1.5.3 3 .6 4.5 1h.2c.7 0 1.1-.4 1.2-.9zm-25.8 70.4c-.3-.6-1-.8-1.6-.5-1.3.7-2.7 1.5-4 2.2-.6.3-.8 1-.4 1.6.2.4.6.6 1 .6.2 0 .4 0 .6-.1 1.3-.7 2.7-1.5 4-2.2.5-.4.7-1.1.4-1.6zm-6.8-76.1l4.5.9h.2c.5 0 1-.4 1.1-.9.1-.6-.3-1.2-.9-1.3l-4.5-.9c-.6-.1-1.2.3-1.3.9-.1.6.3 1.2.9 1.3zm16.3 50c.4 0 .8-.2 1-.6.3-.5.1-1.2-.4-1.6-1.3-.8-2.6-1.5-4-2.3-.5-.3-1.2-.1-1.6.4-.3.5-.1 1.2.4 1.6 1.3.8 2.6 1.5 3.9 2.3.3.2.5.2.7.2zm13.2 12.8c-1.4.7-2.7 1.4-4.1 2.1-.6.3-.8 1-.5 1.5.2.4.6.6 1 .6.2 0 .4 0 .5-.1 1.3-.7 2.7-1.4 4.1-2.1.6-.3.8-1 .5-1.5-.3-.6-1-.8-1.5-.5zm-10.7 6.8c-.3-.6-1-.8-1.5-.5-1.4.7-2.7 1.4-4 2.1-.6.3-.8 1-.5 1.5.2.4.6.6 1 .6.2 0 .4 0 .5-.1 1.3-.7 2.7-1.4 4-2.1.6-.2.8-.9.5-1.5zm-204.6-93.5c.6 0 1.1-.5 1.1-1.1 0-.6-.4-1.2-1.1-1.2h-.5v-.1c0-.6-.6-1.1-1.2-1.1-1.6.1-3.1.2-4.6.3-.6.1-1.1.6-1 1.2.1.6.6 1.1 1.2 1h.4c.2.4.5.7 1 .7 1.4.1 2.9.2 4.7.3zm311.4 45c.1 0 .3 0 .4-.1l4.2-1.8c.6-.2.9-.9.6-1.5-.2-.6-.9-.9-1.5-.6l-4.2 1.8c-.6.2-.9.9-.6 1.5.3.5.7.7 1.1.7zm-6 8.5c1.5.4 2.9.9 4.4 1.3.1 0 .2.1.3.1.5 0 .9-.3 1.1-.8.2-.6-.2-1.2-.8-1.4-1.5-.5-2.9-.9-4.4-1.3-.6-.2-1.2.2-1.4.8-.1.5.2 1.1.8 1.3zm-106.2-26.9l4.5.9h.2c.5 0 1-.4 1.1-.9.1-.6-.3-1.2-.9-1.4l-4.5-.9c-.6-.1-1.2.3-1.4.9 0 .7.4 1.3 1 1.4zm74.4 34.7c.2 0 .3 0 .5-.1l4.2-1.9c.6-.3.8-.9.6-1.5-.3-.6-.9-.8-1.5-.6l-4.2 1.9c-.6.3-.8.9-.6 1.5.2.5.6.7 1 .7zm-21-22.4c1.5.4 2.9.7 4.4 1.1h.3c.5 0 1-.3 1.1-.9.2-.6-.2-1.2-.8-1.4-1.5-.4-3-.8-4.4-1.1-.6-.2-1.2.2-1.4.8-.1.7.2 1.3.8 1.5zm-43.2 39.5c1.3.8 2.6 1.6 3.9 2.3.2.1.4.2.6.2.4 0 .8-.2 1-.6.3-.5.2-1.2-.4-1.6l-3.9-2.4c-.5-.3-1.2-.1-1.6.4-.4.7-.2 1.4.4 1.7zm127.4-43.7c.1 0 .3 0 .4-.1 1.4-.6 2.8-1.1 4.2-1.7.6-.2.9-.9.6-1.5-.2-.6-.9-.9-1.5-.6-1.4.6-2.8 1.1-4.3 1.7-.6.2-.9.9-.6 1.5.4.4.8.7 1.2.7zm-70.9 7.6c1.5.4 2.9.8 4.4 1.2h.3c.5 0 1-.3 1.1-.8.2-.6-.2-1.2-.8-1.4-1.5-.4-2.9-.8-4.4-1.2-.6-.2-1.2.2-1.4.8-.2.6.2 1.2.8 1.4zm65.6 19.5c1.4.5 2.9 1 4.3 1.5.1 0 .2.1.4.1.5 0 .9-.3 1.1-.8.2-.6-.1-1.2-.7-1.4-1.4-.5-2.9-1-4.3-1.5-.6-.2-1.2.1-1.4.7-.3.6 0 1.2.6 1.4zm239.4 137c.2.2.5.3.8.3.3 0 .6-.1.8-.3.4-.4.5-1.2 0-1.6-1.1-1.1-2.2-2.2-3.2-3.3-.4-.4-1.2-.4-1.6 0-.4.4-.4 1.2 0 1.6 1 1.1 2.1 2.2 3.2 3.3zm27 30.8c.2.3.6.4.9.4.2 0 .5-.1.7-.2.5-.4.6-1.1.2-1.6-.9-1.2-1.9-2.4-2.8-3.6-.4-.5-1.1-.6-1.6-.2-.5.4-.6 1.1-.2 1.6.9 1.2 1.9 2.4 2.8 3.6zm-78.8-75.3c.2.1.4.2.7.2.4 0 .7-.2.9-.5.4-.5.3-1.2-.2-1.6-1.2-.9-2.5-1.8-3.7-2.7-.5-.4-1.2-.2-1.6.3-.4.5-.2 1.2.3 1.6 1.1.9 2.4 1.8 3.6 2.7zm-156.7-129.6c.1 0 .3 0 .4-.1l4.3-1.6c.6-.2.9-.9.7-1.5-.2-.6-.9-.9-1.5-.7l-4.3 1.6c-.6.2-.9.9-.7 1.5.2.5.7.8 1.1.8zm-12.8 4.9c.1 0 .3 0 .4-.1l4.3-1.7c.6-.2.9-.9.7-1.5-.2-.6-.9-.9-1.5-.7l-4.3 1.7c-.6.2-.9.9-.6 1.5.1.5.6.8 1 .8zm38.5-14.6c.1 0 .3 0 .4-.1l4.3-1.6c.6-.2.9-.9.7-1.5-.2-.6-.9-.9-1.5-.7l-4.3 1.6c-.6.2-.9.9-.7 1.5.2.5.7.8 1.1.8zm-5.1 19.1c.3 0 .6-.1.8-.3 1.1-1 2.2-2.1 3.4-3.1.5-.4.5-1.1.1-1.6s-1.1-.5-1.6-.1c-1.1 1-2.3 2.1-3.4 3.1-.5.4-.5 1.2-.1 1.6.2.2.5.4.8.4zm-264.8-21.7c1.5.2 3 .4 4.5.7h.2c.6 0 1-.4 1.1-1 .1-.6-.3-1.2-1-1.3-1.5-.2-3-.5-4.5-.7-.6-.1-1.2.3-1.3 1 0 .6.4 1.2 1 1.3zM-717 1048c-.3 0-.6 0-.9-.1.2-.2.3-.4.3-.7 0-.6-.4-1.2-1.1-1.2-1.6-.1-3.1-.2-4.6-.2-.6 0-1.2.5-1.2 1.1 0 .6.5 1.2 1.1 1.2h.8c-.1.2-.2.4-.2.6 0 .6.4 1.2 1.1 1.2 1.4.1 3 .2 4.6.3h.1c.6 0 1.1-.5 1.1-1.1 0-.5-.5-1.1-1.1-1.1zm250.9 64.3c-1.4.6-2.8 1.3-4.2 1.9-.6.3-.8.9-.6 1.5.2.4.6.7 1 .7.2 0 .3 0 .5-.1 1.4-.6 2.8-1.3 4.2-1.9.6-.3.8-.9.6-1.5-.2-.6-.9-.9-1.5-.6zm-237.2-63.3c-.2 0-.5 0-.7-.1 0-.1 0-.2.1-.2.1-.6-.3-1.2-1-1.3-1.5-.2-3.1-.4-4.6-.6-.6-.1-1.2.4-1.3 1-.1.6.4 1.2 1 1.3.3 0 .6.1.9.1-.1.1-.1.3-.2.5 0 .6.4 1.2 1 1.2 1.5.1 3 .2 4.6.4h.1c.6 0 1.1-.5 1.1-1 .1-.7-.4-1.2-1-1.3zm36.2 5.8c1.5.2 3 .3 4.5.5h.1c.6 0 1.1-.4 1.1-1 .1-.6-.4-1.2-1-1.3-1.5-.2-3.1-.3-4.6-.5-.6-.1-1.2.4-1.3 1 .1.7.6 1.2 1.2 1.3zm-15.9-.6c1.5.4 2.9.7 4.4 1.1h.3c.5 0 1-.3 1.1-.8.1-.3 0-.5-.1-.8.4 0 .7.1 1.1.1.6 0 1.2-.4 1.3-1 .1-.6-.4-1.2-1-1.3-1.5-.2-3.1-.3-4.6-.5-.6-.1-1.2.4-1.2 1-.2-.1-.5-.1-.7-.2-.6-.2-1.2.2-1.4.8-.2.8.2 1.4.8 1.6zm17.5 4.9c.1 0 .2.1.3.1.5 0 .9-.3 1.1-.8.2-.6-.1-1.2-.7-1.4-1.5-.5-2.9-.9-4.4-1.3-.6-.2-1.2.2-1.4.8-.2.6.2 1.2.8 1.4 1.4.3 2.9.8 4.3 1.2zm-23.1-7.6c.1-.6-.4-1.2-1-1.2-.4 0-.9-.1-1.3-.1-.1-.1-.3-.2-.5-.2l-4.5-.9c-.6-.1-1.2.3-1.3.9-.1.6.3 1.2.9 1.3.3.1.7.1 1 .2.2.4.5.6.9.7 1.5.1 3 .3 4.6.4h.1c.6-.1 1.1-.5 1.1-1.1zm35.2 4.9c1.5.2 3 .4 4.5.5h.1c.6 0 1.1-.4 1.1-1 .1-.6-.4-1.2-1-1.3-1.5-.2-3-.4-4.5-.5-.6-.1-1.2.4-1.3 1 0 .6.4 1.2 1.1 1.3zm9.5 10.2c1.4.5 2.8 1.1 4.3 1.6.1.1.3.1.4.1.5 0 .9-.3 1.1-.7.2-.6-.1-1.3-.7-1.5-1.4-.6-2.9-1.1-4.3-1.6-.6-.2-1.2.1-1.5.7-.2.5.1 1.2.7 1.4zm44.8-2.8c1.5.2 3 .5 4.5.7h.2c.6 0 1-.4 1.1-1 .1-.6-.3-1.2-.9-1.3-1.5-.2-3-.5-4.5-.7-.6-.1-1.2.3-1.3 1-.2.6.3 1.2.9 1.3zm13.5 2.2c1.5.2 3 .5 4.5.8h.2c.5 0 1-.4 1.1-1 .1-.6-.3-1.2-.9-1.3-1.5-.3-3-.5-4.5-.8-.6-.1-1.2.3-1.3.9-.1.7.3 1.3.9 1.4zm-8.7 21c-.3.6 0 1.3.5 1.5 1.4.7 2.7 1.3 4.1 2 .2.1.3.1.5.1.4 0 .8-.2 1-.6.3-.6 0-1.3-.5-1.5-1.4-.7-2.7-1.4-4.1-2-.5-.3-1.2-.1-1.5.5zm-11.8-4.4c1.4.6 2.8 1.3 4.1 1.9.2.1.3.1.5.1.4 0 .8-.2 1-.7.3-.6 0-1.3-.5-1.5-1.4-.7-2.8-1.3-4.1-1.9-.6-.3-1.3 0-1.5.6-.3.6-.1 1.2.5 1.5zm-26.5 133.9c.3 0 .6-.1.8-.3 1-1.1 2.1-2.1 3.2-3.2.5-.4.5-1.2 0-1.6-.4-.5-1.2-.5-1.6 0l-3.3 3.3c-.4.5-.4 1.2 0 1.6.3.1.6.2.9.2zm-21 27.3c-.6-.3-1.3 0-1.5.6-.6 1.3-1.1 2.5-1.6 3.8-.4.2-.7.6-.6 1.1.1 1.3.3 2.6.4 3.9 0 .3.2.7.5.8.2.1.4.2.6.2.1 0 .2 0 .3-.1l.6-.2c.6-.2.9-.8.8-1.4-.1-.3-.3-.6-.6-.7-.1-.7-.1-1.4-.2-2 .1-.1.2-.2.2-.4.5-1.4 1.1-2.7 1.7-4.1.3-.6 0-1.3-.6-1.5zm27.4-184l4.5.6h.2c.6 0 1-.4 1.1-1 .1-.6-.3-1.2-1-1.3l-4.5-.6c-.6-.1-1.2.4-1.3 1-.1.7.3 1.3 1 1.3zm332.9 94.7c.4 0 .8-.2 1-.6.3-.6.1-1.3-.5-1.5-1.4-.7-2.7-1.4-4.1-2-.6-.3-1.2 0-1.5.5-.3.6 0 1.3.5 1.5 1.4.7 2.7 1.3 4.1 2 .2 0 .4.1.5.1zm-62-66.7c-1.1 1.1-2.2 2.1-3.3 3.2-.5.4-.5 1.2 0 1.6.2.2.5.3.8.3.3 0 .6-.1.8-.3 1.1-1.1 2.2-2.1 3.3-3.2.5-.4.5-1.2 0-1.6-.4-.4-1.1-.4-1.6 0zm-.4 36.8c-1.4-.6-2.8-1.1-4.3-1.7-.6-.2-1.2.1-1.5.7-.2.6.1 1.2.7 1.5 1.4.5 2.8 1.1 4.3 1.6.1.1.3.1.4.1.5 0 .9-.3 1.1-.7.2-.6-.1-1.3-.7-1.5zm-7.8-27.2c-.4-.4-1.2-.4-1.6 0-1.1 1.1-2.1 2.2-3.2 3.3-.4.5-.4 1.2 0 1.6.2.2.5.3.8.3.3 0 .6-.1.8-.3 1.1-1.1 2.1-2.2 3.2-3.3.5-.4.5-1.1 0-1.6zm118.8 81.5l-3.9-2.4c-.5-.3-1.2-.2-1.6.4-.3.5-.2 1.2.4 1.6l3.9 2.4c.2.1.4.2.6.2.4 0 .8-.2 1-.5.3-.7.1-1.4-.4-1.7zm-107.1-113.5c-1.4.5-2.8 1.1-4.3 1.6-.6.2-.9.9-.7 1.5.2.5.6.7 1.1.7.1 0 .3 0 .4-.1 1.4-.5 2.9-1.1 4.3-1.6.6-.2.9-.9.7-1.5-.2-.6-.9-.9-1.5-.6zm95.3 106.4c-1.3-.8-2.6-1.5-4-2.3-.5-.3-1.2-.1-1.6.4-.3.5-.1 1.2.4 1.6 1.3.8 2.6 1.5 3.9 2.3.2.1.4.2.6.2.4 0 .8-.2 1-.6.4-.5.3-1.2-.3-1.6zm-112-52.1c-1.4-.5-2.9-1.1-4.3-1.6-.6-.2-1.2.1-1.5.7-.2.6.1 1.2.7 1.5 1.4.5 2.9 1 4.3 1.6.1 0 .3.1.4.1.5 0 .9-.3 1.1-.7.2-.7-.1-1.4-.7-1.6zm-12.9-4.7c-1.4-.5-2.9-1-4.3-1.5-.6-.2-1.2.1-1.5.7-.2.6.1 1.2.7 1.5 1.4.5 2.9 1 4.3 1.5.1 0 .3.1.4.1.5 0 .9-.3 1.1-.8.2-.6-.1-1.3-.7-1.5zm113.4 51.6c.3-.6.1-1.2-.4-1.6-1.3-.7-2.7-1.5-4-2.2-.6-.3-1.2-.1-1.5.5-.3.6-.1 1.2.5 1.5 1.3.7 2.7 1.5 4 2.2.2.1.4.1.5.1.3.1.7-.1.9-.5zm-116.1-49.2c-1 1.1-2.1 2.3-3.1 3.4-.4.5-.4 1.2.1 1.6.2.2.5.3.8.3.3 0 .6-.1.8-.4 1-1.1 2.1-2.2 3.1-3.4.4-.5.4-1.2-.1-1.6-.4-.4-1.1-.4-1.6.1zm11.1-8.5c.4-.5.4-1.2 0-1.6-.5-.4-1.2-.4-1.6 0-1.1 1.1-2.1 2.2-3.1 3.3-.4.5-.4 1.2 0 1.6.2.2.5.3.8.3.3 0 .6-.1.8-.4 1-1 2-2.1 3.1-3.2zm139.9 77.3c-1.3-.8-2.6-1.7-3.8-2.5-.5-.3-1.2-.2-1.6.3-.3.5-.2 1.2.3 1.6 1.3.8 2.6 1.6 3.8 2.5.2.1.4.2.6.2.4 0 .7-.2 1-.5.4-.5.2-1.2-.3-1.6zm-72.5-37.7c.4 0 .8-.2 1-.7.3-.6 0-1.3-.5-1.5-1.4-.7-2.8-1.3-4.2-2-.6-.3-1.3 0-1.5.6-.3.6 0 1.3.6 1.5 1.4.6 2.8 1.3 4.1 1.9.2.2.3.2.5.2zm80.1 42.8c-.5-.4-1.2-.2-1.6.3-.4.5-.2 1.2.3 1.6 1.3.9 2.5 1.7 3.8 2.6.2.1.4.2.6.2.4 0 .7-.2.9-.5.4-.5.2-1.2-.3-1.6-1.1-.9-2.4-1.7-3.7-2.6zm-232.7-24.5c.4-.5.2-1.2-.3-1.6-1.2-.8-2.5-1.7-3.8-2.6-.5-.4-1.2-.2-1.6.3-.4.5-.2 1.2.3 1.6 1.3.9 2.6 1.7 3.8 2.6.2.1.4.2.6.2.4 0 .8-.2 1-.5zm135.8-105.8c-.4-.5-1.1-.6-1.6-.2-1.2.9-2.4 1.8-3.7 2.8-.5.4-.6 1.1-.2 1.6.2.3.6.4.9.4.2 0 .5-.1.7-.2 1.2-.9 2.4-1.9 3.6-2.7.5-.4.6-1.2.3-1.7zm11.4-7.6c-.1-.2-.4-.4-.6-.5.1-.3.2-.6.1-.9-.2-.6-.9-.9-1.5-.7-1.4.5-2.8 1-4.3 1.5-.6.2-.9.9-.7 1.5.2.6.9.9 1.5.7.6-.2 1.3-.4 1.9-.7l-1.8 1.2c-.5.3-.7 1.1-.3 1.6.2.3.6.5 1 .5.2 0 .4-.1.6-.2 1.3-.9 2.6-1.7 3.8-2.4.5-.3.6-1 .3-1.6zm-7.6 89.2c.2.1.3.1.5.1.4 0 .9-.2 1-.7.3-.6 0-1.3-.6-1.5-1.4-.6-2.8-1.3-4.2-1.9-.6-.3-1.3 0-1.5.6-.3.6 0 1.3.6 1.5 1.4.7 2.8 1.3 4.2 1.9zm-11.6-7.6l-4.2-1.8c-.6-.2-1.3 0-1.5.6-.2.6 0 1.3.6 1.5l4.2 1.8c.1.1.3.1.5.1.4 0 .9-.3 1.1-.7.1-.6-.2-1.3-.7-1.5zm49.1 25.7c.4 0 .8-.2 1-.6.3-.6.1-1.2-.5-1.5-1.4-.7-2.7-1.4-4.1-2.1-.6-.3-1.2-.1-1.5.5-.3.6-.1 1.2.5 1.5 1.4.7 2.7 1.4 4 2.1.3.1.5.1.6.1zm-52.1-91.2c-.4-.5-1.1-.6-1.6-.1-1.2 1-2.3 2-3.5 3-.5.4-.5 1.1-.1 1.6.2.3.5.4.9.4.3 0 .5-.1.7-.3 1.2-1 2.3-2 3.5-2.9.4-.5.5-1.2.1-1.7zm8.7-12.9c-.2-.6-.9-.9-1.5-.7l-4.3 1.5c-.6.2-.9.9-.7 1.5.2.5.6.8 1.1.8.1 0 .3 0 .4-.1l4.3-1.5c.6-.2.9-.9.7-1.5zm26.1-9c-.2-.5-.6-.8-1.1-.8-.2 0-.4 0-.6.1-.5.2-.9.4-1.4.5-.8.3-1.8.6-2.7.9-.5.2-.8.6-.8 1.1-.1.2 0 .5.1.7.2.4.6.7 1 .7.2 0 .3 0 .5-.1l2.7-1.2c.6-.2 1.1-.4 1.5-.5.6-.2 1-.8.8-1.4zm-44.5 82.1c-1.4-.6-2.8-1.2-4.2-1.7-.6-.2-1.3 0-1.5.6-.2.6 0 1.3.6 1.5 1.4.6 2.8 1.1 4.2 1.7.1.1.3.1.4.1.5 0 .9-.3 1.1-.7.2-.6 0-1.3-.6-1.5zm-87.2 44.8c.9-1.1 1.8-2.3 2.9-3.6.4-.5.3-1.2-.2-1.6-.5-.4-1.2-.3-1.6.2-1 1.3-2 2.5-2.9 3.6-.4.5-.3 1.2.2 1.6.2.2.5.3.7.3.4-.1.7-.2.9-.5zm280.3 84c.3 0 .5-.1.8-.3.5-.4.5-1.1.1-1.6-1-1.1-2.1-2.3-3.1-3.4-.4-.5-1.2-.5-1.6-.1-.5.4-.5 1.2-.1 1.6 1 1.1 2.1 2.2 3.1 3.4.2.3.5.4.8.4zm-277.7-160.6c.6-.2.9-.9.6-1.5-.2-.6-.9-.9-1.5-.6l-4.2 1.8c-.3.1-.5.4-.6.7-.1-.1-.2-.1-.4-.2-1.5-.4-2.9-.9-4.4-1.3-.6-.2-1.2.2-1.4.8-.2.6.2 1.2.8 1.4 1.5.4 2.9.8 4.4 1.3h.3c.5 0 .9-.3 1.1-.8.3.2.7.3 1.1.1l4.2-1.7zm-9.7 82.1c-.5-.4-1.4-1-2.4-1.7-.5-.4-1.2-.2-1.6.3s-.2 1.2.3 1.6c2.1 1.5 3.2 2.3 3.2 2.3.2.1.4.2.7.2.3 0 .5-.1.7-.3l.2-.2.4-.5c.4-.5.3-1.2-.2-1.6-.4-.3-.9-.3-1.3-.1zm265.7 53.8c-.5-.4-1.2-.4-1.6.1-.4.5-.4 1.2.1 1.6 1.1 1 2.2 2.1 3.3 3.1.2.2.5.3.8.3.3 0 .6-.1.8-.4.4-.5.4-1.2 0-1.6-1.2-1-2.3-2.1-3.4-3.1zm-248.7-75c-1 1.2-2 2.4-2.9 3.5-.4.5-.3 1.2.2 1.6.2.2.5.3.7.3.3 0 .7-.1.9-.4.9-1.1 1.9-2.3 2.9-3.5.4-.5.3-1.2-.1-1.6-.6-.4-1.3-.3-1.7.1zm-30.7 11.6c-.5-.4-1.2-.2-1.6.3-.4.5-.2 1.2.3 1.6 1.3.9 2.6 1.8 3.8 2.6.2.1.4.2.7.2.4 0 .7-.2.9-.5.4-.5.2-1.2-.3-1.6-1.2-.9-2.5-1.7-3.8-2.6zm308.1 93c-.4-.5-1.1-.5-1.6-.1s-.5 1.1-.1 1.6c1 1.2 2 2.3 3 3.5.2.3.5.4.9.4.3 0 .5-.1.7-.3.5-.4.5-1.1.1-1.6-1-1.1-2-2.3-3-3.5zm-39-38.8c-.5-.4-1.2-.4-1.6.1-.4.5-.4 1.2.1 1.6 1.1 1 2.3 2 3.4 3 .2.2.5.3.8.3.3 0 .6-.1.9-.4.4-.5.4-1.2-.1-1.6-1.2-1-2.3-2-3.5-3zm-265-130.3c-1.5-.4-2.9-.8-4.4-1.2-.6-.2-1.2.2-1.4.8-.2.6.2 1.2.8 1.4 1.5.4 2.9.8 4.4 1.2h.3c.5 0 1-.3 1.1-.8.2-.6-.1-1.2-.8-1.4zm2.5 10.8l4.2-1.8c.6-.3.8-.9.6-1.5-.3-.6-.9-.8-1.5-.6l-4.2 1.8c-.6.3-.8.9-.6 1.5.2.4.6.7 1 .7.2 0 .4 0 .5-.1zm244.1 107c.3 0 .7-.2.9-.4.4-.5.3-1.2-.2-1.6-1.2-.9-2.4-1.9-3.6-2.8-.5-.4-1.2-.3-1.6.2-.4.5-.3 1.2.2 1.6 1.2.9 2.4 1.8 3.6 2.8.2.2.5.2.7.2zm-193.1-84.5c-1 1.1-2 2.3-3 3.4-.4.5-.4 1.2.1 1.6.2.2.5.3.8.3.3 0 .6-.1.9-.4 1-1.1 2-2.3 3-3.4.4-.5.4-1.2-.1-1.6-.6-.4-1.3-.4-1.7.1zm204.7 92.7c.4-.5.3-1.2-.2-1.6-1.2-1-2.4-1.9-3.5-2.9-.5-.4-1.2-.3-1.6.2-.4.5-.3 1.2.2 1.6 1.2 1 2.4 1.9 3.5 2.9.2.2.5.3.7.3.3-.1.7-.2.9-.5zm-212.9-134.4c-.2-.6-.9-.9-1.5-.6-1.4.6-2.8 1.1-4.2 1.7-.6.2-.9.9-.6 1.5.2.4.6.7 1.1.7.1 0 .3 0 .4-.1 1.4-.6 2.8-1.2 4.2-1.7.6-.2.9-.9.6-1.5zm-5.8 20.3c-1.5-.5-2.9-.9-4.4-1.4-.6-.2-1.2.1-1.4.7-.2.6.1 1.2.7 1.4 1.4.5 2.9.9 4.3 1.4.1 0 .2.1.4.1.5 0 .9-.3 1.1-.8.2-.6-.1-1.2-.7-1.4zm6.6 33.2c.4-.5.4-1.2-.1-1.6-.5-.4-1.2-.4-1.6.1-1 1.2-2 2.3-3 3.5-.4.5-.4 1.2.1 1.6.2.2.5.3.7.3.3 0 .6-.1.9-.4 1-1.2 2-2.4 3-3.5zm-10.7 8.9c-1 1.2-2 2.4-3 3.5-.4.5-.3 1.2.1 1.6.2.2.5.3.7.3.3 0 .6-.1.9-.4 1-1.1 1.9-2.3 3-3.5.4-.5.3-1.2-.1-1.6-.4-.4-1.2-.4-1.6.1zm266.4 131.6l-4.3-1.4c-.6-.2-1.2.1-1.4.7-.2.6.1 1.2.7 1.4l4.3 1.4c.1 0 .2.1.4.1.5 0 .9-.3 1.1-.8.1-.5-.2-1.2-.8-1.4zm-158.6-43.7l-4.5-.9c-.6-.1-1.2.3-1.3.9-.1.6.3 1.2.9 1.3l4.5.9h.2c.5 0 1-.4 1.1-.9.1-.6-.3-1.2-.9-1.3zm106.3 27.3c-1.5-.4-2.9-.9-4.4-1.3-.6-.2-1.2.2-1.4.8-.2.6.2 1.2.8 1.4 1.5.4 2.9.9 4.4 1.3h.3c.5 0 .9-.3 1.1-.8.1-.6-.2-1.2-.8-1.4zm-533.3-203.3c-.4-.5-1.1-.5-1.6-.1s-.5 1.1-.1 1.6c.9 1.1 1.9 2.2 2.9 3.5.2.3.6.4.9.4.3 0 .5-.1.7-.3.5-.4.6-1.1.2-1.6-1.1-1.2-2.1-2.4-3-3.5zm8.6 10.8c-.4-.5-1.1-.6-1.6-.2-.5.4-.6 1.1-.2 1.6.9 1.2 1.8 2.4 2.7 3.7.2.3.6.5.9.5.2 0 .5-.1.7-.2.5-.4.6-1.1.2-1.6-.9-1.4-1.8-2.7-2.7-3.8zm471.8 177.8c-1.5-.4-3-.8-4.4-1.1-.6-.2-1.2.2-1.4.8-.2.6.2 1.2.8 1.4 1.5.4 2.9.8 4.4 1.1h.3c.5 0 1-.3 1.1-.9.2-.6-.2-1.2-.8-1.3zm-456.2-155.1c-.3-.5-1-.7-1.6-.4-.5.3-.7 1-.4 1.6l2.4 3.9c.2.4.6.6 1 .6.2 0 .4-.1.6-.2.5-.3.7-1 .4-1.6-.8-1.4-1.6-2.7-2.4-3.9zm495.9 165.9c-1.5-.4-2.9-.8-4.4-1.3-.6-.2-1.2.2-1.4.8-.2.6.2 1.2.8 1.4 1.5.4 2.9.8 4.4 1.3h.3c.5 0 1-.3 1.1-.8.2-.6-.2-1.2-.8-1.4zm-503.4-177.5c-.4-.5-1.1-.7-1.6-.3-.5.4-.7 1.1-.3 1.6.8 1.2 1.7 2.5 2.5 3.8.2.3.6.5 1 .5.2 0 .4-.1.6-.2.5-.3.7-1.1.3-1.6-.8-1.3-1.7-2.5-2.5-3.8zm581.9 202.1l-4.3-1.5c-.6-.2-1.2.1-1.4.7-.2.6.1 1.2.7 1.4l4.3 1.5c.1 0 .2.1.4.1.5 0 .9-.3 1.1-.8.1-.5-.2-1.2-.8-1.4zm-131.5-38.8c-1.5-.4-3-.7-4.4-1.1-.6-.1-1.2.2-1.4.8-.1.6.2 1.2.8 1.4 1.5.4 2.9.7 4.4 1.1h.3c.5 0 1-.3 1.1-.9.2-.5-.2-1.1-.8-1.3zm26.6 6.9c-1.5-.4-3-.8-4.4-1.2-.6-.2-1.2.2-1.4.8-.2.6.2 1.2.8 1.4 1.5.4 2.9.8 4.4 1.2h.3c.5 0 1-.3 1.1-.8.2-.6-.2-1.3-.8-1.4zm65.8 19.2l-4.4-1.4c-.6-.2-1.2.1-1.4.8-.2.6.1 1.2.8 1.4l4.4 1.4c.1 0 .2.1.3.1.5 0 .9-.3 1.1-.8.1-.7-.2-1.3-.8-1.5zm-13.1-4l-4.4-1.3c-.6-.2-1.2.2-1.4.8-.2.6.2 1.2.8 1.4l4.4 1.3c.1 0 .2.1.3.1.5 0 .9-.3 1.1-.8.1-.7-.2-1.4-.8-1.5zm26.2 8.2l-4.4-1.4c-.6-.2-1.2.1-1.4.7-.2.6.1 1.2.7 1.4l4.3 1.4c.1 0 .2.1.4.1.5 0 .9-.3 1.1-.8.2-.6-.1-1.2-.7-1.4zm-65.7-19.8c-1.5-.4-2.9-.8-4.4-1.2-.6-.2-1.2.2-1.4.8-.2.6.2 1.2.8 1.4 1.5.4 2.9.8 4.4 1.2h.3c.5 0 1-.3 1.1-.8.2-.6-.2-1.2-.8-1.4zm-475.7-150.4c-.3-.5-1-.7-1.6-.4-.5.3-.7 1-.4 1.6.7 1.3 1.5 2.6 2.2 4 .2.4.6.6 1 .6.2 0 .4 0 .5-.1.6-.3.8-1 .5-1.5-.7-1.5-1.5-2.9-2.2-4.2zm409.2 133.6c-1.5-.3-3-.7-4.5-1-.6-.1-1.2.3-1.4.9-.1.6.3 1.2.9 1.4 1.5.3 3 .7 4.5 1h.2c.5 0 1-.4 1.1-.9.2-.6-.2-1.3-.8-1.4zm13.4 3.1c-1.5-.4-3-.7-4.5-1-.6-.1-1.2.2-1.4.9-.1.6.2 1.2.9 1.4 1.5.3 3 .7 4.4 1h.3c.5 0 1-.4 1.1-.9.2-.7-.2-1.3-.8-1.4zM-740 1050c-.5-.4-1.2-.4-1.6.1-.4.5-.4 1.2.1 1.6 0 0 1.2 1.1 3.2 3.2.2.2.5.4.8.4.3 0 .6-.1.8-.3.5-.4.5-1.2 0-1.6-2.1-2.2-3.3-3.3-3.3-3.4zm341.5 171.4c-1.5-.1-3-.3-4.6-.4-.6 0-1.2.4-1.2 1-.1.6.4 1.2 1 1.2 1.5.1 3 .3 4.5.4h.1c.6 0 1.1-.4 1.1-1 .2-.6-.2-1.2-.9-1.2zm-150.5 4.3c-1.5.2-3 .5-4.5.8-.6.1-1 .7-.9 1.3.1.6.6.9 1.1.9h.2c1.5-.3 3-.5 4.5-.7.6-.1 1-.7.9-1.3-.1-.7-.7-1.1-1.3-1zm164.2-2.9c-1.5-.2-3-.3-4.5-.5-.6-.1-1.2.4-1.3 1-.1.6.4 1.2 1 1.3 1.5.2 3 .3 4.5.5h.1c.6 0 1.1-.4 1.1-1 .2-.6-.3-1.2-.9-1.3zm-27.3-2.6c-1.5-.1-3-.2-4.6-.3-.6 0-1.2.4-1.2 1.1 0 .6.4 1.2 1.1 1.2l4.5.3h.1c.6 0 1.1-.5 1.1-1.1.1-.6-.4-1.1-1-1.2zm-123.3 3.4l-4.5.6c-.6.1-1.1.7-1 1.3.1.6.6 1 1.1 1h.2l4.5-.6c.6-.1 1.1-.7 1-1.3-.1-.6-.7-1.1-1.3-1zm-40.6 7.1c-1.5.3-3 .6-4.5 1-.6.1-1 .7-.9 1.4.1.5.6.9 1.1.9h.2c1.5-.3 3-.6 4.5-1 .6-.1 1-.7.9-1.4 0-.6-.6-1-1.3-.9zm13.5-2.7l-4.5.9c-.6.1-1 .7-.9 1.3.1.5.6.9 1.1.9h.2l4.5-.9c.6-.1 1-.7.9-1.3-.1-.6-.7-1-1.3-.9zm191.3-3.5l-4.5-.6c-.6-.1-1.2.4-1.3 1-.1.6.4 1.2 1 1.3l4.5.6h.2c.6 0 1.1-.4 1.1-1 .1-.6-.4-1.2-1-1.3zm-123.2-5c-1.5.1-3 .2-4.6.3-.6 0-1.1.6-1.1 1.2s.5 1.1 1.1 1.1h.1l4.5-.3c.6 0 1.1-.6 1.1-1.2 0-.7-.5-1.1-1.1-1.1zm41.1-1.1h-4.6c-.6 0-1.1.5-1.1 1.1 0 .6.5 1.1 1.1 1.1h4.6c.6 0 1.1-.5 1.1-1.1.1-.6-.4-1.1-1.1-1.1zm-239.6-100.8c-.3-.6-1-.8-1.5-.5-.6.3-.8 1-.5 1.5.7 1.3 1.4 2.7 2 4.1.2.4.6.6 1 .6.2 0 .3 0 .5-.1.6-.3.8-1 .5-1.5-.7-1.3-1.3-2.7-2-4.1zm253.4 101.1c-1.5-.1-3.1-.1-4.6-.1-.6 0-1.2.5-1.2 1.1 0 .6.5 1.2 1.1 1.2 1.5 0 3 .1 4.6.1.6 0 1.1-.5 1.1-1.1.1-.6-.4-1.2-1-1.2zm-27.5-.2c-1.5 0-3.1 0-4.6.1-.6 0-1.1.5-1.1 1.2 0 .6.5 1.1 1.1 1.1 1.5 0 3-.1 4.6-.1.6 0 1.1-.5 1.1-1.2 0-.6-.5-1.1-1.1-1.1zm41.2.8c-1.5-.1-3.1-.2-4.6-.2-.6 0-1.2.5-1.2 1.1 0 .6.5 1.2 1.1 1.2 1.5.1 3 .1 4.6.2h.1c.6 0 1.1-.5 1.1-1.1 0-.6-.5-1.1-1.1-1.2zm-96 2.6c-1.5.2-3 .4-4.5.5-.6.1-1.1.6-1 1.3.1.6.6 1 1.1 1h.1c1.5-.2 3-.4 4.5-.5.6-.1 1.1-.6 1-1.3 0-.6-.6-1.1-1.2-1zm13.7-1.4c-1.5.1-3 .3-4.6.4-.6.1-1.1.6-1 1.2.1.6.6 1 1.1 1h.1c1.5-.1 3-.3 4.5-.4.6-.1 1.1-.6 1-1.2 0-.6-.5-1-1.1-1zm-81.3 13.2c-1.5.3-3 .7-4.5 1-.6.1-1 .8-.8 1.4.1.5.6.9 1.1.9h.3c1.5-.4 3-.7 4.4-1 .6-.1 1-.8.9-1.4-.1-.7-.7-1.1-1.4-.9zm108.7-14.9c-1.5.1-3.1.1-4.6.2-.6 0-1.1.6-1.1 1.2s.5 1.1 1.1 1.1h.1c1.5-.1 3-.1 4.6-.2.6 0 1.1-.6 1.1-1.2-.1-.6-.6-1.1-1.2-1.1zm-195.7-63.4c-.2-.6-.9-.9-1.5-.7-.6.2-.9.9-.7 1.5.5 1.4 1 2.8 1.5 4.3.2.5.6.8 1.1.8.1 0 .3 0 .4-.1.6-.2.9-.9.7-1.5-.5-1.4-1-2.8-1.5-4.3zm318.8 71c-1.5-.2-3-.4-4.5-.7-.6-.1-1.2.3-1.3 1-.1.6.3 1.2 1 1.3 1.5.2 3 .4 4.5.7h.2c.6 0 1-.4 1.1-1 .1-.6-.4-1.2-1-1.3zm-310.3-44.8c-.2-.6-.8-1-1.4-.8-.6.2-1 .8-.8 1.4.4 1.5.8 2.9 1.2 4.4.1.5.6.8 1.1.8h.3c.6-.2 1-.8.8-1.4-.4-1.5-.8-3-1.2-4.4zm4.6 17.7c-.3-1.5-.7-3-1.1-4.5-.2-.6-.8-1-1.4-.8-.6.2-1 .8-.8 1.4.4 1.5.7 2.9 1.1 4.4.1.5.6.9 1.1.9h.3c.6-.2.9-.8.8-1.4zm346.3 34.2l-4.5-.9c-.6-.1-1.2.3-1.3.9-.1.6.3 1.2.9 1.3l4.5.9h.2c.5 0 1-.4 1.1-.9.1-.6-.3-1.2-.9-1.3zm-343.4-20.7l-.9-4.5c-.1-.6-.7-1-1.4-.9-.6.1-1 .7-.9 1.4l.9 4.5c.1.5.6.9 1.1.9h.2c.7-.2 1.1-.8 1-1.4zm-21-70.2c-.2-.6-.9-.9-1.5-.6-.6.2-.9.9-.6 1.5.6 1.4 1.1 2.8 1.7 4.2.2.4.6.7 1.1.7.1 0 .3 0 .4-.1.6-.2.9-.9.6-1.5-.6-1.4-1.2-2.8-1.7-4.2zm-5.5-12.6c-.3-.6-.9-.8-1.5-.6-.6.3-.8.9-.6 1.5.6 1.4 1.3 2.7 1.9 4.1.2.4.6.7 1 .7.2 0 .3 0 .5-.1.6-.3.8-.9.6-1.5-.7-1.3-1.3-2.7-1.9-4.1zm15 38.4c-.2-.6-.8-.9-1.4-.7-.6.2-.9.8-.7 1.4.5 1.4.9 2.9 1.4 4.3.2.5.6.8 1.1.8.1 0 .2 0 .3-.1.6-.2.9-.8.8-1.4-.6-1.4-1.1-2.8-1.5-4.3zm327.9 60.2c-1.5-.3-3-.5-4.5-.7-.6-.1-1.2.3-1.3.9-.1.6.3 1.2.9 1.3 1.5.2 3 .5 4.5.7h.2c.5 0 1-.4 1.1-1 .1-.5-.3-1.1-.9-1.2zm-272 11.7c-1.5.4-2.9.8-4.4 1.2-.6.2-1 .8-.8 1.4.1.5.6.8 1.1.8h.3c1.5-.4 2.9-.8 4.4-1.2.6-.2 1-.8.8-1.4-.1-.6-.8-.9-1.4-.8zm-13.2 3.7c-1.5.4-2.9.8-4.4 1.3-.6.2-1 .8-.8 1.4.1.5.6.8 1.1.8h.3c1.5-.4 2.9-.8 4.4-1.3.6-.2 1-.8.8-1.4-.2-.6-.8-1-1.4-.8zm26.5-7.1c-1.5.4-3 .7-4.4 1.1-.6.2-1 .8-.8 1.4.1.5.6.9 1.1.9h.3c1.5-.4 2.9-.8 4.4-1.1.6-.2 1-.8.8-1.4-.2-.7-.8-1.1-1.4-.9zm-39.7 10.9c-1.5.4-2.9.9-4.4 1.3-.6.2-.9.8-.8 1.4.1.5.6.8 1.1.8h.3c1.5-.4 2.9-.9 4.4-1.3.6-.2.9-.8.8-1.4-.2-.6-.8-1-1.4-.8zm-14.7-6.6c.6-.1 1.1-.6 1-1.3l-.6-4.5c-.1-.6-.7-1.1-1.3-1-.6.1-1.1.7-1 1.3l.6 4.5c.1.6.6 1 1.1 1h.2zm326.6-10.3c-1.5-.3-3-.5-4.5-.8-.6-.1-1.2.3-1.3.9-.1.6.3 1.2.9 1.3 1.5.3 3 .5 4.5.8h.2c.5 0 1-.4 1.1-.9.1-.6-.3-1.2-.9-1.3zm-327.5-4.6c-.2-1.5-.5-3-.8-4.5-.1-.6-.7-1-1.3-.9-.6.1-1 .7-.9 1.3.3 1.5.5 3 .7 4.5.1.6.6 1 1.1 1h.2c.7-.2 1.1-.8 1-1.4z"/></svg>