<svg version="1.1" id="图层_1" xmlns="http://www.w3.org/2000/svg" x="0" y="0" viewBox="0 0 800 800" xml:space="preserve"><style>.st1{fill:#4670fd}</style><path id="XMLID_387_" d="M772.2 445.7c-10 49-52.2 74.9-74 117.1-25.5 49.4-33.5 85.1-81 116.1-54.4 35.5-141.3-2.3-212.5-2.3-62.7 0-130.2 24.8-180.5-3.4-56.7-31.7-135.1-48.5-151.5-109.1-15-55.2-53.5-110.6-47.5-189.9 4-52.2 47.9-50.4 68.5-107.1 17-46.9 69-75.8 111-105 28-19.4 44.2-40.1 75-48s57.1-1.8 94.5-1.8c24.1 0 77.3-9.7 101.1-5.3 28.2 5.3 55.3 13.5 79.3 24.5 28.9 13.2 51.2 49.6 77.6 71.4 30.8 25.5 89.8 39.9 108 70.8 26.8 45.8 42.5 120.5 32 172z" opacity=".4" fill="#f2f2f2"/><g id="XMLID_31_"><g id="XMLID_45_"><path id="XMLID_751_" class="st1" d="M239.1 375.2c0 2.2 1.8 4 4 4h21.6v-8h-21.6c-2.2 0-4 1.7-4 4z"/><path id="XMLID_752_" class="st1" d="M556.9 371.2h-21.6v8h21.6c2.2 0 4-1.8 4-4s-1.8-4-4-4z"/></g><g id="XMLID_47_"><path id="XMLID_48_" class="st1" d="M396 218.2v21.6h8v-21.6c0-2.2-1.8-4-4-4s-4 1.8-4 4z"/></g><g id="XMLID_90_"><path id="XMLID_92_" class="st1" d="M286.2 488.9c1.6 1.6 4.1 1.6 5.7 0l15.3-15.3-5.7-5.7-15.3 15.3c-1.6 1.7-1.6 4.2 0 5.7z"/><path id="XMLID_91_" class="st1" d="M508.1 261.4l-15.3 15.3 5.7 5.7 15.3-15.3c1.6-1.6 1.6-4.1 0-5.7-1.6-1.6-4.1-1.6-5.7 0z"/></g><g id="XMLID_55_"><path id="XMLID_89_" class="st1" d="M513.8 488.9c1.6-1.6 1.6-4.1 0-5.7L498.5 468l-5.7 5.7 15.3 15.3c1.6 1.5 4.1 1.5 5.7-.1z"/><path id="XMLID_88_" class="st1" d="M286.2 267l15.3 15.3 5.7-5.7-15.3-15.3c-1.6-1.6-4.1-1.6-5.7 0s-1.6 4.2 0 5.7z"/></g><path id="XMLID_766_" class="st1" d="M443.7 545.8h-88.2c-3.3 0-6 2.7-6 6s2.7 6 6 6h88.2c3.3 0 6-2.7 6-6s-2.7-6-6-6z"/><path id="XMLID_767_" class="st1" d="M440.8 569.8h-82.6c-3.3 0-6 2.7-6 6s2.7 6 6 6h82.6c3.3 0 6-2.7 6-6s-2.6-6-6-6z"/><path id="XMLID_768_" class="st1" d="M374.7 599.8h49.8c3.3 0 6-2.7 6-6h-61.8c0 3.3 2.7 6 6 6z"/><path id="XMLID_771_" class="st1" d="M483.2 285.2c-23.8-22.9-55-34.9-87.9-33.6-30.9 1.2-60 14.5-81.9 37.3-21.9 22.8-34.1 52.8-34.6 84.3-.7 45.1 22.6 86.6 60.8 109.1v26.3c0 13.9 11.1 25.1 24.7 25.1h71.5c13.6 0 24.7-11.3 24.7-25.1v-26.3c37.6-22.1 60.8-62.9 60.8-107.2-.1-34.3-13.6-66.3-38.1-89.9zm-30.8 223.4c0 9.4-7.5 17.1-16.7 17.1h-71.5c-9.2 0-16.7-7.7-16.7-17.1v-1.7c.2.1.5.2.7.3.5.2 1 .4 1.4.6.6.2 1.3.5 1.9.7.5.2 1 .3 1.4.5.7.2 1.3.4 2 .7.5.2.9.3 1.4.5l2.1.6c.4.1.9.3 1.3.4.7.2 1.5.4 2.3.6l1.2.3c1 .3 2.1.5 3.1.8.1 0 .2.1.3.1 1.2.3 2.3.5 3.5.8.3.1.7.1 1 .2.8.2 1.6.3 2.5.5.4.1.9.2 1.3.2.7.1 1.5.3 2.2.4.5.1.9.1 1.4.2l2.1.3c.5.1 1 .1 1.5.2.7.1 1.4.2 2.1.2.5.1 1 .1 1.5.2.7.1 1.4.1 2.1.2.5 0 1 .1 1.5.1.7.1 1.5.1 2.2.1.5 0 .9.1 1.4.1.8 0 1.6.1 2.4.1h9.6c.8 0 1.6-.1 2.4-.1.5 0 .9-.1 1.4-.1.7 0 1.5-.1 2.2-.1.5 0 1-.1 1.5-.1.7-.1 1.4-.1 2.1-.2.5 0 1-.1 1.5-.2.7-.1 1.4-.2 2.1-.2.5-.1 1-.1 1.5-.2l2.1-.3c.5-.1 1-.1 1.5-.2.7-.1 1.4-.2 2.1-.4.5-.1.9-.2 1.4-.2.8-.1 1.6-.3 2.4-.5.4-.1.7-.1 1.1-.2 1.1-.2 2.3-.5 3.4-.8.2 0 .4-.1.5-.1 1-.2 1.9-.5 2.9-.7l1.2-.3c.7-.2 1.4-.4 2.2-.6.5-.1.9-.3 1.4-.4.7-.2 1.3-.4 2-.6.5-.2 1-.3 1.4-.5.6-.2 1.3-.4 1.9-.7.5-.2 1-.3 1.5-.5.6-.2 1.3-.5 1.9-.7.5-.2 1-.4 1.4-.6.2-.1.5-.2.7-.3v1.6zm2.1-32l-2 1.1v20.5c-.2.1-.3.1-.5.2-.5.2-.9.4-1.4.6-.6.2-1.2.5-1.8.7-.5.2-.9.4-1.4.5-.6.2-1.2.5-1.8.7-.5.2-1 .3-1.5.5l-1.8.6c-.5.2-1 .3-1.5.5l-1.8.6c-.5.2-1 .3-1.5.5-.6.2-1.2.3-1.8.5-.5.1-1 .3-1.5.4-.6.2-1.2.3-1.8.5-.5.1-1 .3-1.6.4-.6.1-1.2.3-1.8.4-.5.1-1 .2-1.6.3-.6.1-1.2.2-1.8.4-.5.1-1.1.2-1.6.3l-1.8.3c-.5.1-1.1.2-1.6.3l-1.8.3c-.5.1-1 .1-1.6.2-.6.1-1.3.2-1.9.2-.5.1-1 .1-1.5.2-.6.1-1.3.1-1.9.2-.5 0-1 .1-1.5.1-.7.1-1.4.1-2.1.1-.5 0-.9.1-1.4.1-.8 0-1.5.1-2.3.1h-9.4c-.8 0-1.5-.1-2.3-.1-.5 0-.9-.1-1.4-.1-.7 0-1.4-.1-2.1-.1-.5 0-1-.1-1.5-.1-.7-.1-1.3-.1-1.9-.2-.5-.1-1-.1-1.5-.2-.6-.1-1.3-.1-1.9-.2-.5-.1-1-.1-1.6-.2l-1.8-.3c-.5-.1-1.1-.2-1.6-.3l-1.8-.3c-.5-.1-1.1-.2-1.6-.3-.6-.1-1.2-.2-1.8-.4-.5-.1-1-.2-1.6-.3-.6-.1-1.2-.3-1.8-.4-.5-.1-1-.2-1.6-.4-.6-.1-1.2-.3-1.8-.5-.5-.1-1-.3-1.5-.4-.6-.2-1.2-.3-1.8-.5-.5-.1-1-.3-1.5-.5l-1.8-.6c-.5-.2-1-.3-1.5-.5l-1.8-.6c-.5-.2-1-.3-1.5-.5-.6-.2-1.2-.4-1.8-.7-.5-.2-.9-.4-1.4-.5-.6-.2-1.2-.5-1.8-.7-.5-.2-.9-.4-1.4-.6-.2-.1-.3-.1-.5-.2v-20.5l-2-1.1c-36.9-20.7-59.4-60.2-58.8-103.2.4-29.5 11.9-57.6 32.4-78.9 20.4-21.4 47.6-33.7 76.4-34.9 30.7-1.2 59.8 10 82 31.4 23 22.1 35.6 52 35.6 84.2.3 42.1-22.2 81-58.4 101.4z"/><g id="XMLID_49_"><path id="XMLID_95_" class="st1" d="M476 347l-8.9-.4c-1.2-3.7-2.9-7.3-5-10.6l5.3-7.1.1-.1c2.3-3.4 2-7.4-.7-9.9l-4.7-4.3c-2.7-2.5-6.6-2.4-9.9.2l-6.7 6c-3.5-1.8-7.2-3.1-11.1-4l-1.3-8.7v-.1c-.8-4.1-3.8-6.7-7.5-6.5l-6.4.3c-3.7.2-6.4 3-6.9 7.2l-.4 9c-3.8 1.2-7.3 2.9-10.6 5l-7.1-5.3-.1-.1c-3.4-2.3-7.4-2-9.9.7l-4.3 4.7c-2.5 2.7-2.4 6.6.2 9.9l6.1 6.7c-1.8 3.5-3.1 7.2-4 11l-8.8 1.3h-.1c-4.1.8-6.7 3.8-6.5 7.5l.3 6.3c.2 3.7 3 6.4 7.2 6.9l9 .4c1.2 3.7 2.9 7.3 5 10.6l-5.3 7.1c-2.3 3.2-2 7.5.7 10l4.7 4.3c2.8 2.5 7 2.4 10.1-.3l6.6-5.9c3.5 1.8 7.2 3.1 11.1 4l1.3 8.8c.7 3.9 3.9 6.7 7.6 6.6l6.4-.3c3.7-.2 6.6-3.2 6.9-7.3l.4-8.8c3.8-1.2 7.3-2.9 10.6-5l7.2 5.3c3.2 2.3 7.5 2 10-.7l4.3-4.7c2.5-2.8 2.4-7-.3-10l-6-6.5c1.8-3.5 3.1-7.2 4-11l8.9-1.3c3.9-.7 6.8-3.9 6.6-7.5l-.3-6.3c-.6-3.9-3.7-6.8-7.8-7.1zm2.4 13.5c.1 1.1-1.1 1.9-2.2 2.1l-12.5 1.8-.3 1.9c-.8 4.5-2.3 8.8-4.6 12.8l-1 1.7 8.5 9.3c.8.9 1.1 2.2.3 3l-4.3 4.7c-.7.8-2.1.6-3 0l-10.1-7.5-1.6 1.1c-3.8 2.7-7.9 4.6-12.4 5.8l-1.8.5-.6 12.5c-.1 1.1-.8 2.3-1.9 2.4l-6.4.3c-1.1.1-1.9-1.1-2.1-2.1l-1.8-12.5-1.9-.3c-4.6-.8-8.9-2.3-12.9-4.6l-1.7-1-9.3 8.4c-.9.8-2.2 1.1-3.1.3l-4.7-4.3c-.8-.7-.6-2.1 0-3l7.6-10.1-1.1-1.6c-2.7-3.7-4.6-7.9-5.8-12.3l-.5-1.8-12.6-.6c-.9-.1-2.4-.5-2.4-1.9l-.3-6.3c-.1-1.5 1.5-2 2.2-2.1l12.5-1.8.3-1.9c.8-4.5 2.3-8.8 4.6-12.8l1-1.7-8.5-9.3c-.6-.7-1.3-2-.4-3l4.3-4.7c1-1.1 2.5-.3 3.1.1l10.1 7.5 1.6-1.1c3.8-2.7 7.9-4.6 12.4-5.8l1.8-.5.6-12.5c.1-.9.5-2.4 1.9-2.4l6.4-.3c1.5-.1 2 1.5 2.1 2.2l1.8 12.4 1.9.3c4.6.8 8.9 2.3 12.9 4.6l1.7 1 9.3-8.4c.7-.6 2.1-1.3 3.1-.4l4.7 4.3c1.1 1 .3 2.4-.1 3.1l-7.5 10.1 1.1 1.6c2.7 3.7 4.6 7.9 5.8 12.3l.5 1.8 12.6.6c1.1.1 2.3.8 2.4 1.9l.3 6.2z"/><path id="XMLID_362_" class="st1" d="M425.2 337.5c-12.4 0-22.4 10-22.4 22.3s10.1 22.3 22.4 22.3 22.4-10 22.4-22.3-10.1-22.3-22.4-22.3zm0 39.5c-9.5 0-17.2-7.7-17.2-17.1s7.7-17.1 17.2-17.1 17.2 7.7 17.2 17.1-7.8 17.1-17.2 17.1z"/><path id="XMLID_369_" class="st1" d="M378.2 404.5l-4.4-.6c-.4-1.7-1.1-3.4-1.9-5l2.9-3.2.1-.1c1.9-2.3 1.9-5.2 0-7.2l-2.5-2.6c-1.8-1.9-4.7-2.1-7.1-.6l-3.6 2.7c-1.6-.9-3.3-1.7-5-2.3l-.2-4.2v-.1c-.3-2.9-2.3-5-5.1-5.1l-3.7-.1c-2.7-.1-4.8 1.7-5.4 4.6l-.6 4.4c-1.8.4-3.5 1.1-5.2 1.9l-3.2-2.8-.1-.1c-2.3-1.8-5.2-1.9-7.2 0l-2.7 2.4c-2 1.8-2.2 4.7-.6 7.1l2.7 3.5c-.9 1.5-1.7 3.2-2.3 4.9l-4.3.2h-.1c-3 .3-5 2.3-5.1 5l-.1 3.6c-.1 2.7 1.8 4.8 4.7 5.4l4.5.6c.4 1.7 1.1 3.4 1.9 5l-2.9 3.2c-1.9 2.2-1.9 5.3-.1 7.2l2.5 2.6c1.8 2 4.9 2.2 7.2.5l3.5-2.6c1.6.9 3.3 1.7 5 2.3l.2 4.3c.2 2.8 2.4 5 5.1 5.1l3.7.1h.2c2.6 0 4.8-2 5.3-4.8l.6-4.2c1.8-.4 3.5-1.1 5.2-1.9l3.3 2.9c2.2 1.8 5.3 1.8 7.2.1l2.7-2.4c2-1.8 2.2-4.9.5-7.2l-2.6-3.4c.9-1.5 1.7-3.2 2.3-4.9l4.4-.2c2.8-.2 5.1-2.4 5.2-5l.1-3.6c-.1-2.7-2.1-5-5-5.4zm-.6 8.7c-.1 0-.2.1-.3.1l-8.1.4-.5 1.8c-.6 2.4-1.7 4.6-3.1 6.7l-1.1 1.6 4.9 6.3c.1.1.1.2.1.3l-2.6 2.3c-.1 0-.2 0-.3-.1l-6-5.3-1.6.9c-2.2 1.3-4.5 2.1-7 2.5l-1.9.3-1.1 7.9c0 .2-.1.3-.1.3l-3.6-.1c0-.1-.1-.2-.1-.3l-.5-8-1.9-.5c-2.4-.6-4.7-1.7-6.8-3.1l-1.6-1.1-6.4 4.8c-.1.1-.3.1-.4.1l-2.4-2.5c0-.1.1-.2.1-.2l5.4-6-1-1.7c-1.3-2.1-2.1-4.4-2.6-6.9l-.3-1.9-7.9-1.1c-.2 0-.3-.1-.4-.1l.1-3.4c.1 0 .2-.1.4-.1l8-.4.5-1.8c.6-2.4 1.7-4.6 3.1-6.7l1.1-1.6-4.9-6.3c-.1-.1-.1-.2-.1-.3l2.6-2.3c.1 0 .2.1.4.2l6 5.2 1.6-.9c2.2-1.3 4.5-2.1 7-2.5l1.9-.3 1.1-7.8c0-.2.1-.3.1-.3l3.5.1c0 .1.1.2.1.3l.5 7.9 1.9.5c2.4.6 4.7 1.7 6.8 3.1l1.6 1.1 6.3-4.7c.2-.1.3-.2.4-.2l2.4 2.5c0 .1-.1.2-.2.3l-5.4 5.9 1 1.7c1.3 2.1 2.1 4.4 2.6 6.9l.3 1.9 8 1.1c.2 0 .3.1.3.1l.1 3.4z"/><path id="XMLID_374_" class="st1" d="M348.7 399.4c-6.1-.3-11.3 4.5-11.5 10.5-.1 2.9.9 5.7 2.9 7.9 2 2.1 4.7 3.4 7.7 3.5h.4c5.9 0 10.8-4.6 11.1-10.5.1-2.9-.9-5.7-3-7.9-1.9-2.2-4.6-3.4-7.6-3.5zm5.4 11.1c-.1 3.1-2.8 5.6-6.1 5.5-1.6-.1-3-.7-4.1-1.8-1-1.1-1.6-2.6-1.5-4.1.1-3.1 2.7-5.5 5.8-5.5h.2c1.6.1 3 .7 4.1 1.8 1.2 1.2 1.7 2.6 1.6 4.1z"/><path id="XMLID_147_" class="st1" d="M420.3 436.8l-3.1-.4c-.3-1.2-.8-2.4-1.4-3.6l2-2.3.1-.1c1.3-1.7 1.3-3.8-.1-5.2l-1.8-1.9c-1.3-1.4-3.4-1.5-5.1-.3l-2.5 2c-1.2-.7-2.4-1.2-3.6-1.6l-.2-3v-.1c-.3-2.1-1.8-3.5-3.7-3.6l-2.6-.1c-1.9 0-3.5 1.3-3.9 3.4l-.4 3.1c-1.3.3-2.5.8-3.7 1.4l-2.4-2-.1-.1c-1.7-1.3-3.8-1.3-5.2.1l-1.9 1.8c-1.4 1.3-1.5 3.4-.3 5.1l2 2.5c-.6 1.1-1.2 2.3-1.6 3.5l-3.1.2h-.1c-2.1.3-3.6 1.7-3.6 3.7l-.1 2.6c0 1.9 1.3 3.5 3.4 3.8l3.2.4c.3 1.2.8 2.4 1.4 3.6l-2 2.3c-1.3 1.6-1.3 3.8 0 5.2l1.8 1.9c1.4 1.4 3.5 1.5 5.2.2l2.5-1.9c1.2.7 2.4 1.2 3.6 1.6l.2 3.1c.2 2 1.8 3.6 3.7 3.6l2.6.1h.2c1.9 0 3.4-1.5 3.7-3.5l.4-3c1.3-.3 2.5-.8 3.7-1.4l2.4 2c1.6 1.3 3.8 1.3 5.2 0l1.9-1.8c1.4-1.4 1.5-3.5.2-5.2l-1.9-2.4c.6-1.1 1.2-2.3 1.6-3.5l3.2-.2c2-.2 3.6-1.8 3.7-3.7l.1-2.6c-.1-1.8-1.5-3.4-3.6-3.7zm-.3 6.3s-.1.1-.2.1l-5.8.4-.3 1.3c-.4 1.7-1.1 3.4-2.1 4.8l-.8 1.2 3.6 4.5c.1.1.1.1.1.2l-1.8 1.7c-.1 0-.2 0-.2-.1l-4.4-3.7-1.2.7c-1.5.9-3.2 1.6-5 1.9l-1.4.3-.7 5.7c0 .1-.1.2 0 .2l-2.6-.1s-.1-.1-.1-.2l-.4-5.7-1.3-.3c-1.8-.4-3.4-1.1-4.9-2.1l-1.1-.8-4.5 3.5c-.1.1-.2.1-.3.1l-1.7-1.8s0-.1.1-.2l3.8-4.4-.7-1.2c-.9-1.5-1.6-3.2-2-4.9l-.3-1.4-5.7-.7c-.1 0-.2-.1-.3-.1v-2.5s.1-.1.3-.1l5.8-.4.3-1.3c.4-1.7 1.1-3.4 2.1-4.8l.8-1.2-3.6-4.5c-.1-.1-.1-.2-.1-.2l1.8-1.7c.1 0 .1.1.3.1l4.4 3.7 1.2-.7c1.5-.9 3.2-1.6 5-1.9l1.4-.3.7-5.6c0-.1.1-.2.1-.3l2.6.1s.1.1.1.2l.4 5.7 1.3.3c1.8.4 3.4 1.1 4.9 2.1l1.1.8 4.5-3.5c.1-.1.2-.1.3-.1l1.7 1.8s-.1.1-.1.2l-3.8 4.3.7 1.2c.9 1.5 1.6 3.2 2 4.9l.3 1.4 5.8.7c.1 0 .2.1.2.1l-.3 2.6z"/><path id="XMLID_142_" class="st1" d="M398.7 433.5c-4.4.1-7.9 3.7-7.8 8.1 0 2.1.9 4.1 2.5 5.6 1.5 1.5 3.6 2.2 5.7 2.2h.3c4.3-.2 7.6-3.8 7.5-8 0-2.1-.9-4.1-2.5-5.6s-3.6-2.3-5.7-2.3zm4.3 7.9c0 2.3-1.8 4.2-4.1 4.2-1.1 0-2.2-.4-3-1.2-.8-.8-1.3-1.8-1.3-2.9 0-2.2 1.7-4.1 4-4.2h.2c1.1 0 2.2.4 3 1.2.7.7 1.2 1.8 1.2 2.9z"/></g></g></svg>