<svg version="1.1" id="图层_1" xmlns="http://www.w3.org/2000/svg" x="0" y="0" viewBox="0 0 800 800" xml:space="preserve"><style>.st1{fill:#4670fd}</style><path id="XMLID_5_" d="M776.2 445.7c-10 49-52.2 74.9-74 117.1-25.5 49.4-33.5 85.1-81 116.1-54.4 35.5-141.3-2.3-212.5-2.3-62.7 0-130.2 24.8-180.5-3.4-56.7-31.7-135.1-48.5-151.5-109.1-15-55.2-53.5-110.6-47.5-189.9 4-52.2 47.9-50.4 68.5-107.1 17-46.9 69-75.8 111-105 28-19.4 44.2-40.1 75-48 30.8-7.9 57.1-1.8 94.5-1.8 24.1 0 77.3-9.7 101.1-5.3 28.2 5.3 55.3 13.5 79.3 24.5 28.9 13.2 51.2 49.6 77.6 71.4 30.8 25.5 89.8 39.9 108 70.8 26.8 45.8 42.5 120.5 32 172z" opacity=".4" fill="#f2f2f2"/><g id="XMLID_60_"><path id="XMLID_63_" class="st1" d="M560 261.9H248c-18.8 0-34 15.3-34 34.1v185.5c0 18.8 15.3 34.1 34 34.1h109.5c2.2 0 4-1.8 4-4s-1.8-4-4-4H248c-14.4 0-26-11.7-26-26.1V296c0-14.4 11.7-26.1 26-26.1h312c14.4 0 26 11.7 26 26.1v185.5c0 14.4-11.7 26.1-26 26.1h-75.4c-2.2 0-4 1.8-4 4s1.8 4 4 4H560c18.8 0 34-15.3 34-34.1V296c0-18.8-15.3-34.1-34-34.1z"/><path id="XMLID_666_" class="st1" d="M557.2 297.7v182.1h-72.6c-2.2 0-4 1.8-4 4s1.8 4 4 4h80.6V289.7H270.7v198.1H352c2.2 0 4-1.8 4-4s-1.8-4-4-4h-73.3V297.7h278.5z"/><path id="XMLID_674_" class="st1" d="M233.7 362.9v51.7c0 7 5.7 12.6 12.6 12.6 7 0 12.6-5.7 12.6-12.6v-51.7c0-7-5.7-12.6-12.6-12.6-6.9 0-12.6 5.7-12.6 12.6zm17.3 0v51.7c0 2.5-2.1 4.6-4.6 4.6-2.5 0-4.6-2.1-4.6-4.6v-51.7c0-2.5 2.1-4.6 4.6-4.6 2.5 0 4.6 2.1 4.6 4.6z"/><path id="XMLID_677_" class="st1" d="M458.7 475.8c-1.8 0-3.5.4-5.1 1-1.4-5.4-6.4-9.4-12.3-9.4-1.7 0-3.2.3-4.7.9-.1-6.8-5.7-12.2-12.7-12.2-1.6 0-3.2.3-4.7.9v-12c0-7.2-5.9-13-13.2-13s-13.2 5.8-13.2 13v53.4c-.9-1.4-1.8-2.9-2.8-4.6-4.5-7.7-9-11.9-13.9-12.8-3-.5-6.1.3-8.5 2.4-2.8 2.3-7.8 9.7 5.5 28.8 5.7 8.3 7.7 11.8 10.4 16.6 1.3 2.3 2.7 4.8 4.7 8.2 5.7 9.6 13.7 13.7 18.2 15.3v15.9H454v-16.1c4.7-2.1 13.4-7.7 16-21.1.7-3.6 1.3-7.2 1.3-10.8v-32c.1-6.9-5.6-12.4-12.6-12.4zm4.7 44.4c0 3-.5 6-1.2 9.3-2.5 13.1-12.7 15.8-13.1 15.9l-3.1.7v14.1h-31.6V546l-3.2-.6c-.4-.1-9.9-2.1-16.1-12.4-2-3.3-3.4-5.8-4.6-8-2.7-4.9-4.8-8.7-10.8-17.3-8.5-12.2-7.6-17.4-6.9-18.1.9-.7 1.5-.7 2-.6 1.1.2 4 1.4 8.3 8.9 3.8 6.6 6.9 11.1 8.5 13.2 1.3 1.7 3.6 2.4 5.7 1.7s3.4-2.6 3.4-4.8v-63c0-2.7 2.4-5 5.2-5s5.2 2.2 5.2 5v45.3c0 2.2 1.8 4 4 4s4-1.8 4-4v-21.8c0-2.4 2.1-4.4 4.7-4.4s4.7 2 4.7 4.4v26.2c0 2.2 1.8 4 4 4s4-1.8 4-4v-14.9c0-2.4 2.1-4.4 4.7-4.4s4.7 2 4.7 4.4v20.8c0 2.2 1.8 4 4 4s4-1.8 4-4v-12.5c0-2.4 2.1-4.4 4.7-4.4s4.7 2 4.7 4.4v32.1z"/><path id="XMLID_678_" class="st1" d="M464.6 377c1-1.5 1.5-2.6 1.5-3.6 2.6-10.8-16.4-14.9-39-23.1-22.6-8.2-54.9-23.1-54.9-23.1-2.1-.5-2.6 1.5-2.6 1.5-.5 9.3 5.1 24.2 8.2 27.8 3.1 3.6 47.2 17 47.2 17s-33.9-6.7-42.1-9.3c-8.2-2.6-5.6 2.6-5.6 2.6 2.1 9.3 9.8 19.5 15.9 20.6 6.2 1 32.3.5 32.3.5s-5.1.5-13.9 1.5c-6.2 1-14.4 1.5-16.4 2.6-4.6 2.1 3.6 9.3 3.6 9.3 12.3 11.8 19 7.7 19 7.7 4.6-1.5 8.7-2.6 12.3-3.6l-4.1 18h11.8l-6.7 27.3 30.8-40.6H446l3.1-5.7c.1-.2 11.4-18.2 15.5-27.4z"/></g></svg>