<svg version="1.1" id="ad97e2e6-c06f-4161-a008-15821dcd6927" xmlns="http://www.w3.org/2000/svg" x="0" y="0" viewBox="-864 1590.5 834 619.4" xml:space="preserve"><style>.st0{fill:#c0ddff}.st4{fill:#fff}.st6{opacity:.1;enable-background:new}.st8{fill:#4670fd}.st9{fill:#e6edff}</style><path class="st0" d="M-116 1721.8c23.9 34.9 18.6 80.1 18.6 80.1s-44.1-11.4-68-46.3-18.6-80.1-18.6-80.1 44.1 11.4 68 46.3z"/><path d="M-133.2 1728.4c2.8 42.2 34.9 74.5 34.9 74.5s27.6-36.2 24.8-78.4c-2.8-42.2-34.9-74.5-34.9-74.5s-27.6 36.2-24.8 78.4z" fill="#d7e5ff"/><path d="M-407.8 1620.2L-83 1769.3c5.5 2.8 8.8 8.6 8.4 14.8l-18.9 279.4c-.3 4.2-3.9 7.4-8.1 7.1-1-.1-2-.3-2.9-.8l-332.1-169.5 17.1-273.3c.3-4.5 4.1-7.9 8.6-7.7 1.1.1 2.2.4 3.1.9z" fill="#d0cde1"/><path d="M-404 1625.9L-87.3 1771c5.4 2.7 8.6 8.4 8.2 14.4L-97.5 2058c-.3 4.1-3.8 7.2-7.9 6.9-1-.1-2-.3-2.8-.8l-324-165.3 16.6-266.2c.3-4.4 4-7.7 8.4-7.5 1.2 0 2.2.3 3.2.8z" fill="#3f3d56"/><path class="st4" d="M-390.1 1647.1l287.1 130.2c4.9 2.5 7.8 7.6 7.4 13l-16.7 247.1c-.3 3.7-3.5 6.5-7.2 6.3-.9-.1-1.8-.3-2.6-.7l-293.6-150 15.1-240c.2-4 3.7-7 7.6-6.8 1 .2 2 .4 2.9.9z"/><path d="M-672.2 2020.8l311 175.1c6.1 3.1 13.4 3.1 19.5 0l240.5-116.4c2.8-2.8 2.4-7 1.5-10.1-.4-1.5-1-3-1.8-4.4l-32.8-17.2-275.6-137.5-16.5-8.7c-8.8-4.7-19.4-4.7-28.3-.1l-217.7 103.4c-4.4 2.3-6.1 7.7-3.9 12.1 1 1.5 2.4 2.9 4.1 3.8z" fill="#e2e2e2"/><path class="st6" d="M-672.2 2020.8l311 175.1c6.1 3.1 13.4 3.1 19.5 0l240.5-116.4c2.8-2.8 2.4-7 1.5-10.1l-239.8 119c-5.9 3.1-13 3.1-19 .2l-318.6-177.1c-.6 3.7 1.4 7.5 4.9 9.3z"/><path class="st6" d="M-367.8 2095.8l-124.3-71.2c-4.3-2.2-9.4-2.1-13.7.2l-61.1 31.9c-2.1 1.1-2.9 3.8-1.8 5.9.4.8 1.1 1.4 1.9 1.9l128.1 72.4c3.6 1.8 8 1.7 11.5-.3l59.6-34.2c1.8-1 2.5-3.3 1.4-5.1-.3-.6-.9-1.2-1.6-1.5zm236.9-21.6l-137.5 66.9c-2.6 1.4-5.7 1.4-8.3.1L-565 1974.7c-2.6-1.3-3.6-4.5-2.2-7.1.5-1 1.4-1.9 2.4-2.4l111.6-54.4c3.3-1.6 7.2-1.6 10.5 0l311.8 158.9c1.2.6 1.7 2.2 1.1 3.4-.3.5-.7.9-1.1 1.1z"/><path fill="#f2f2f2" d="M-407.5 1702.3l-10 24 78.4 38.7 26.2-76.6"/><path class="st8" d="M-340.9 1751.5l34.3-80.7-79.5-36.7-33.1 78.8z"/><path transform="rotate(117.065 -357.735 1678.698)" class="st4" d="M-358.4 1645.2h1.3v67h-1.3z"/><path transform="rotate(117.065 -362.21 1689.439)" class="st4" d="M-362.8 1655.9h1.3v67h-1.3z"/><circle class="st9" cx="-746.8" cy="1889" r="62.5"/><path class="st8" d="M-671.2 1916.7c-72.9 0-132-59.1-132-132s59.1-132 132-132 132 59.1 132 132c0 35-13.9 68.6-38.7 93.3-24.7 24.8-58.3 38.8-93.3 38.7zm0-263c-72.2 0-131 58.8-131 131s58.8 131 131 131 131-58.8 131-131-58.8-131-131-131z"/><path fill="#618bff" d="M-602.4 1826.5h-.1l-65 36.2-71.2-35.6-1.3-.6 3.7-74 64.4-45.8.7.4 66.5 41.7z"/><path fill="#285bea" d="M-602.5 1826.5l-65 36.2-71.2-35.6 63.1-44.3z"/><path class="st8" d="M-602.4 1826.5l-73.2-43.7 4.4-75.7 66.5 41.7z"/><path class="st4" d="M-624.6 1783.5v-23.2l20.6 12.9.9-1.4-21.5-13.5v-23.1h-1.6v22l-21.5-13.5v-23h-1.6v22l-23.2-14.5-22.5 15.9 1.1-21.7-1.6-.1-1.2 23-20.2 14.2 1.2-21.6-1.6-.1-1.3 22.9-19.6 13.9.9 1.3 18.6-13.1-1.3 23.7-19.4 13.2.9 1.3 18.4-12.5-1.5 26.3 24.7 13-17.9 11.1.9 1.4 18.7-11.6 23.3 12.2-17.2 10.8.9 1.4 18-11.3 21.6 11.3.8-1.4-20.7-10.9 20.6-12.9 22.4 12.4.8-1.4-21.6-12 22-13.8v-27.9l20.7 11.7.8-1.4-21.8-12zm-46.1 30.1l22.9-14.2v-27.2l21.5 12.2v27.9l-22 13.8-22.4-12.5zm44.5-54.3v23.3l-21.5-12.2v-24.6l21.5 13.5zm-67.4 68.5l21.4-13.3 22.5 12.5-20.6 12.9-23.3-12.1zM-720 1814l1.5-26.5 20.3-13.8-1.3 25.7 25.6 14.2-21.4 13.3-24.7-12.9zm23.1-66.5l-1.2 24.2-20.3 13.8 1.3-23.7 20.2-14.3zm47.5 23.8v27.2l-22.9 14.2-25.5-14.2 1.3-25.9 22.5-15.2 24.6 13.9zm0-26.5v24.7l-24.3-13.8-.4-.2-22.3 15.1 1.2-24.3 22.7-16 23.1 14.5z"/><circle class="st0" cx="-590.1" cy="1681.4" r="25.2"/><path class="st0" d="M-366.5 1845.1l8.8 4.4c1 .5 1.7 1.9 1.6 3.2l-.1.9c-.1 1.2-1 1.9-2 1.4l-8.8-4.4c-1-.5-1.7-1.9-1.6-3.2l.1-.9c.1-1.2 1-1.9 2-1.4z"/><path class="st9" d="M-367.6 1858.6l15.6 7.9c1 .5 1.7 1.9 1.6 3.2l-.1.9c-.1 1.2-1 1.9-2 1.4l-15.6-7.9c-1-.5-1.7-1.9-1.6-3.2l.1-.9c.1-1.3 1-1.9 2-1.4zm.6-6.7l34.8 17.5c1 .5 1.7 1.9 1.6 3.2l-.1.9c-.1 1.2-1 1.9-2 1.4l-34.8-17.5c-1-.5-1.7-1.9-1.6-3.2l.1-.9c.1-1.3 1-1.9 2-1.4z"/><path class="st8" d="M-390.3 1847c-1.1-.6-2.2.1-2.3 1.5-.1.9-.8 1.4-1.5 1 .6 1.4 1.6 2.6 2.6 3.1 1.5.8 2.9-.1 3.1-2 .1-1.4-.7-3.1-1.9-3.6zm10.2-3.2l-.8-1.6c-.2-.5-.7-.7-1-.5l-6.9 4.5 1.7 3.3 6.8-4.5c.4-.2.5-.8.2-1.2z"/><path class="st0" d="M-361 1778.5l8.8 4.4c1 .5 1.7 1.9 1.6 3.2l-.1.9c-.1 1.2-1 1.9-2 1.4l-8.8-4.4c-1-.5-1.7-1.9-1.6-3.2l.1-.9c.1-1.3 1-1.9 2-1.4z"/><path class="st9" d="M-362.1 1792l15.6 7.9c1 .5 1.7 1.9 1.6 3.2l-.1.9c-.1 1.2-1 1.9-2 1.4l-15.6-7.9c-1-.5-1.7-1.9-1.6-3.2l.1-.9c.1-1.3 1-1.9 2-1.4zm.6-6.8l34.8 17.5c1 .5 1.7 1.9 1.6 3.2l-.1.9c-.1 1.2-1 1.9-2 1.4l-34.8-17.5c-1-.5-1.7-1.9-1.6-3.2l.1-.9c.1-1.3 1-1.9 2-1.4z"/><path class="st8" d="M-375.3 1786.6l-4.9-9.6c.7-1.5.5-3.8-.5-5.7-1-2-2.8-3.3-4.3-3.2l2.3 4.6-2 1.4-2.4-4.6c-.9 1.5-.7 3.9.3 6 1 1.9 2.5 3.2 4 3.2l4.9 9.6c.2.4.6.6.8.4l1.5-1c.3-.1.4-.5.2-.9.1-.1.1-.2.1-.2z"/><path class="st0" d="M-263.6 1824.9l8.8 4.4c1 .5 1.7 1.9 1.6 3.2l-.1.9c-.1 1.2-1 1.9-2 1.4l-8.8-4.4c-1-.5-1.7-1.9-1.6-3.2l.1-.9c.1-1.3 1-1.9 2-1.4z"/><path class="st9" d="M-264.7 1838.4l15.6 7.9c1 .5 1.7 1.9 1.6 3.2l-.1.9c-.1 1.2-1 1.9-2 1.4l-15.6-7.9c-1-.5-1.7-1.9-1.6-3.2l.1-.9c.1-1.3 1-1.9 2-1.4zm.5-6.8l34.8 17.5c1 .5 1.7 1.9 1.6 3.2l-.1.9c-.1 1.2-1 1.9-2 1.4l-34.8-17.5c-1-.5-1.7-1.9-1.6-3.2l.1-.9c.2-1.3 1.1-1.9 2-1.4z"/><path class="st8" d="M-284.6 1829.8c-1.2.2-2.5-.4-3.5-1.8-1.4-.2-2.4 1.2-2.9 2.6l8.7 4.4c-.3-1.8-1-4-2.3-5.2zm-1.1-9.2c-1.7-.9-3.3.2-3.4 2.4s1.1 4.6 2.8 5.5c1.7.9 3.3-.2 3.4-2.4.2-2.2-1.1-4.7-2.8-5.5zm-.6 6.9c-1-.5-1.7-1.7-2-3l4.4 2.2c-.5.9-1.4 1.2-2.4.8z"/><path class="st8" d="M-279.9 1830c-1 .2-2.1-.3-3-1.2-.3.4-.6.7-.9.9.7.8 1.2 1.8 1.6 2.8l4.6 2.3c-.2-1.8-1.1-3.7-2.3-4.8zm-1.1-9.2c-1.1-.5-2.1-.4-2.8.5.9 1.2 1.5 2.7 1.6 4.2l3 1.5c-.5.9-1.4 1.2-2.3.8-.3-.1-.5-.3-.7-.5-.1.3-.2.6-.3.8.3.3.6.5.9.7 1.7.9 3.3-.2 3.4-2.4s-1.1-4.8-2.8-5.6z"/><path class="st0" d="M-268.2 1891.9l8.8 4.4c1 .5 1.7 1.9 1.6 3.2l-.1.9c-.1 1.2-1 1.9-2 1.4l-8.8-4.4c-1-.5-1.7-1.9-1.6-3.2l.1-.9c.1-1.2 1-1.9 2-1.4z"/><path class="st9" d="M-269.3 1905.4l15.6 7.9c1 .5 1.7 1.9 1.6 3.2l-.1.9c-.1 1.2-1 1.9-2 1.4l-15.6-7.9c-1-.5-1.7-1.9-1.6-3.2l.1-.9c.1-1.3 1-1.9 2-1.4zm.5-6.7l34.8 17.5c1 .5 1.7 1.9 1.6 3.2l-.1.9c-.1 1.2-1 1.9-2 1.4l-34.8-17.5c-1-.5-1.7-1.9-1.6-3.2l.1-.9c.1-1.3 1-1.9 2-1.4z"/><path class="st8" d="M-286.7 1883.5l-3.5-1.8c-.6-.3-1.2 0-1.3.9v.3l-.2-.1c-.6-.3-1.2 0-1.3.9l-.9 10.7c-.1.8.4 1.8 1.1 2.1l6.1 3.1c.6.3 1.2-.1 1.3-.9v-.3l.3.1c.6.3 1.2-.1 1.3-.9l.6-7.4-3.5-6.7zm-.1 1.6l2.2 4.3-2.5-1.2.3-3.1zm.4 13c0 .2-.1.3-.2.2l-6.1-3.1c-.1-.1-.2-.3-.2-.4l.9-10.7c0-.2.1-.2.3-.2l.2.1-.8 9.5c-.1.8.2 1.4.9 1.7l5.2 2.6-.2.3zm1.6-1c0 .2-.1.3-.2.2l-6.1-3.1c-.1-.1-.2-.3-.2-.4l.9-10.7c0-.2.1-.2.3-.2l2.6 1.3-.4 4.7 3.8 1.9-.7 6.3z"/><path class="st0" d="M-162 1876.1l8.8 4.4c1 .5 1.7 1.9 1.6 3.2l-.1.9c-.1 1.2-1 1.9-2 1.4l-8.8-4.4c-1-.5-1.7-1.9-1.6-3.2l.1-.9c.1-1.3 1-1.9 2-1.4z"/><path class="st9" d="M-163.1 1889.5l15.6 7.9c1 .5 1.7 1.9 1.6 3.2l-.1.9c-.1 1.2-1 1.9-2 1.4l-15.6-7.9c-1-.5-1.7-1.9-1.6-3.2l.1-.9c.1-1.3 1-1.9 2-1.4zm7.3-62l15.6 7.9c1 .5 1.7 1.9 1.6 3.2l-.1.9c-.1 1.2-1 1.9-2 1.4l-15.6-7.9c-1-.5-1.7-1.9-1.6-3.2l.1-.9c.1-1.3 1-1.9 2-1.4zm-6.8 55.3l34.8 17.5c1 .5 1.7 1.9 1.6 3.2l-.1.9c-.1 1.2-1 1.9-2 1.4l-34.8-17.5c-1-.5-1.7-1.9-1.6-3.2l.1-.9c.2-1.3 1-1.9 2-1.4z"/><path class="st8" d="M-175.1 1877l-2.4-1.4v-2.1c0-.4-.3-.9-.6-1l-8.8-3.5c-.3-.1-.6.1-.6.5l-.1 9c0 .4.3.9.6 1l.4.2-.2 1.7c-.1.5.2 1 .6 1.2l9.7 5.5c.4.2.7 0 .8-.4l1.2-9.5c0-.4-.3-1-.6-1.2zm-10.5-5l-.6 4.9-.6.6.1-6.8c0-.2.2-.3.3-.2l7.7 3.1c.1.1.3.2.3.4v1.2l-6.4-3.6c-.4-.3-.7-.1-.8.4zm9.1 13.7l-2.2-5-1.2.7-1.8-4-4 3 .9-7.2c.1-.2.2-.3.4-.2l8.5 4.8c.2.1.3.3.3.5l-.9 7.4z"/><path class="st8" d="M-177.6 1880.2c.5.3 1-.1 1-.7.1-.7-.3-1.4-.8-1.7-.5-.3-1 .1-1 .7-.1.7.2 1.5.8 1.7z"/><path class="st0" d="M-258.1 1761.8l8.8 4.4c1 .5 1.7 1.9 1.6 3.2l-.1.9c-.1 1.2-1 1.9-2 1.4l-8.8-4.4c-1-.5-1.7-1.9-1.6-3.2l.1-.9c.1-1.3 1-1.9 2-1.4z"/><path class="st9" d="M-259.2 1775.3l15.6 7.9c1 .5 1.7 1.9 1.6 3.2l-.1.9c-.1 1.2-1 1.9-2 1.4l-15.6-7.9c-1-.5-1.7-1.9-1.6-3.2l.1-.9c.1-1.3 1-1.9 2-1.4zm.5-6.8l34.8 17.5c1 .5 1.7 1.9 1.6 3.2l-.1.9c-.1 1.2-1 1.9-2 1.4l-34.8-17.5c-1-.5-1.7-1.9-1.6-3.2l.1-.9c.2-1.2 1-1.8 2-1.4z"/><path class="st8" d="M-279 1755l-4.1-2.1c-.7-.3-1.3.1-1.4 1l-.7 8.7c-.1.9.4 1.9 1.1 2.2l10.7 5.4c.7.3 1.3-.1 1.4-.9l.6-6.9c.1-.9-.4-1.9-1.1-2.2l-5.3-2.7-1.2-2.5z"/><path class="st0" d="M-155.7 1813.4l8.8 4.4c1 .5 1.7 1.9 1.6 3.2l-.1.9c-.1 1.2-1 1.9-2 1.4l-8.8-4.4c-1-.5-1.7-1.9-1.6-3.2l.1-.9c.1-1.3 1-1.9 2-1.4z"/><path class="st9" d="M-156.2 1820.1l34.8 17.5c1 .5 1.7 1.9 1.6 3.2l-.1.9c-.1 1.2-1 1.9-2 1.4l-34.8-17.5c-1-.5-1.7-1.9-1.6-3.2l.1-.9c.1-1.2 1-1.9 2-1.4z"/><path class="st8" d="M-169.4 1809.2c1 .5 1.8 2 1.7 3.3-.1 1.3-1 1.9-2.1 1.4-1-.5-1.8-2-1.7-3.3.1-1.3 1.1-1.9 2.1-1.4z"/><path class="st8" d="M-171.3 1813.7l-4 1.3-4.8-7 .1-1.6 4.8 7 3.2-1c-.5-1.4-.4-2.8.3-3.6l-8.3-4.2c-.7-.3-1.3.1-1.4 1l-.8 9.9c-.1.9.4 1.9 1.1 2.2l10.7 5.4c.7.3 1.3-.1 1.4-1l.6-6.9c-.9.2-2.1-.4-2.9-1.5zm39.5 203.2l-82.6-41.8 6.7-77.5 82.6 41.8-6.7 77.5zm-81.3-42.2l80.3 40.7 6.5-75.6-80.3-40.7-6.5 75.6z"/><path class="st0" d="M-203.6 1913.3l17.6 8.9-1.3 14.6-17.5-9z"/><path class="st8" d="M-183.5 1935.6l-18.7-9.5 1.3-15.5 18.7 9.5-1.3 15.5zm-17.5-9.8l16.4 8.3 1.2-13.6-16.4-8.3-1.2 13.6zm35.6 12.9l24 12.2-.1 1-24-12.2zm-37.2-1.6l59.8 30.3-.1.9-59.8-30.2zm-.4 4.8l59.8 30.3-.1 1-59.8-30.3zm-.4 4.9l59.7 30.2v1l-59.8-30.3zm-.4 4.8l59.7 30.3-.1 1-59.7-30.3zm-.4 4.9l59.7 30.2-.1 1-59.7-30.3zm-.5 4.8l59.8 30.3-.1 1-59.7-30.3z"/></svg>