<svg version="1.1" id="ad97e2e6-c06f-4161-a008-15821dcd6927" xmlns="http://www.w3.org/2000/svg" x="0" y="0" viewBox="-864 81.6 834 619.4" xml:space="preserve"><style>.st0{fill:#cae0ff}.st1{fill:#d7e5ff}.st3{fill:#c0ddff}.st4{fill:#e6edff}.st6{fill:#fff}.st7{fill:#4670fd}.st9{fill:#f2f2f2}.st10{fill:#ffc575}.st11{fill:#acd462}.st12{fill:#ffd3a4}</style><path class="st0" d="M-639.7 622.6c-1.5 5.8-6.8 9.5-6.8 9.5s-2.9-5.8-1.4-11.6 6.8-9.5 6.8-9.5 2.9 5.8 1.4 11.6z"/><path class="st1" d="M-642.1 621.4c-4.2 4.2-4.7 10.7-4.7 10.7s6.4-.4 10.7-4.7 4.7-10.7 4.7-10.7-6.4.4-10.7 4.7z"/><path class="st0" d="M-197.6 562.5c-21.4 33.9-14.9 76.5-14.9 76.5s41.3-12.3 62.8-46.2 14.9-76.5 14.9-76.5-41.4 12.3-62.8 46.2z"/><path d="M-181.1 568.2c-1.2 40.1-30.5 71.7-30.5 71.7s-27.4-33.3-26.2-73.4c1.2-40.1 30.5-71.7 30.5-71.7s27.4 33.4 26.2 73.4z" fill="#d9e5ff"/><ellipse class="st3" cx="-716.4" cy="510.3" rx="8.6" ry="8.3"/><path class="st3" d="M-716.9 509.3s58.2 101.1 56.7 115.7"/><path class="st4" d="M-678.6 516.3v59.2c-12.2-16.9-36.5-34.3-82.1-48.4l82.1 112.8v.9l.4-.2.1.2s.1-.2.3-.5c9.6-5.7 89.9-55.6-.8-124z"/><ellipse class="st3" cx="-267.8" cy="510" rx="8.6" ry="8.3"/><path class="st3" d="M-270.1 509.3s58.2 101.1 56.7 115.7"/><path class="st4" d="M-231.8 516.3v59.2c-12.2-16.9-36.5-34.3-82.1-48.4l82.1 112.8v.9l.4-.2.1.2s.1-.2.3-.5c9.6-5.7 89.8-55.6-.8-124z"/><path class="st0" d="M-756.2 623.4c6.4 11.9 20.1 17.1 20.1 17.1s3.2-14.2-3.2-26.2c-6.4-11.9-20.1-17.1-20.1-17.1s-3.3 14.3 3.2 26.2z"/><path class="st1" d="M-751.8 619.5c11.6 7 16.1 20.9 16.1 20.9s-14.4 2.6-26-4.4-16.1-20.9-16.1-20.9 14.4-2.6 26 4.4z"/><path class="st0" d="M-360 623.4c-6.4 11.9-20.1 17.1-20.1 17.1s-3.2-14.2 3.2-26.2c6.4-11.9 20.1-17.1 20.1-17.1s3.2 14.3-3.2 26.2z"/><path class="st1" d="M-364.4 619.5c-11.6 7-16.1 20.9-16.1 20.9s14.4 2.6 26-4.4 16.1-20.9 16.1-20.9-14.4-2.6-26 4.4z"/><path class="st0" d="M-499.5 614.5c6.4 11.9 20.1 17.1 20.1 17.1s3.2-14.2-3.2-26.2c-6.4-11.9-20.1-17.1-20.1-17.1s-3.2 14.3 3.2 26.2z"/><path class="st1" d="M-495.1 610.6c11.6 7 16.1 20.9 16.1 20.9s-14.4 2.6-26-4.4-16.1-20.9-16.1-20.9 14.4-2.6 26 4.4z"/><path class="st0" d="M-137.8 623.4c-6.4 11.9-20.1 17.1-20.1 17.1s-3.2-14.2 3.2-26.2c6.4-11.9 20.1-17.1 20.1-17.1s3.2 14.3-3.2 26.2z"/><path class="st1" d="M-142.3 619.5c-11.6 7-16.1 20.9-16.1 20.9s14.4 2.6 26-4.4 16.1-20.9 16.1-20.9-14.4-2.6-26 4.4z"/><path class="st4" d="M-112.5 649.2s-16-4.7-47.9-9.3l.6-9.8c4.8-54.9-32.8-136.7-32.8-136.7 14.5 40.7 21.7 83.6 21.2 126.8-5-8.5-14.5-17.5-32.7-22.9 0 0 23.8 19.9 30.8 40.8-24-3-55.2-5.6-93.4-6.3l7.9-18.7-15.3 15.7s-7-46.5-20.7-48.2l10.6 45.6s-12-9-14.7-8l6.9 13.4c-4.3 0-8.6 0-13 .1 3.3-54.8-33-133.8-33-133.8 14.5 40.7 21.7 83.6 21.2 126.8-5-8.5-14.5-17.5-32.7-22.9 0 0 16.4 13.7 26 30.3-24.1.7-50.3 2.1-78.5 4.4-3.3-.1-6.6-.2-10-.2l3.7-8.8 1.4-2.8c-.1 0-.2 0-.2-.1l3-7.2-9.8 10c-2.2 1.3-4.4 2.8-5.9 3.9-.2-.9-.4-2.2-.7-3.7l9.4-40.5c-6.1.7-10.8 10.3-14.3 20.7-3.5-11.2-8.4-22-14.9-22.8l9.9 42.5c-.2.8-.3 1.6-.4 2.3-3-2.2-11.1-7.8-13.5-7.2l-2.9-2.9 6.9 16.4c-3.3 0-6.6 0-10 .1-.6-.1-1.1-.1-1.7-.2l5-11.8-10.9 11.2c-1.8-.2-3.5-.4-5.3-.6-2.3-12.1-8.9-41.8-19.8-43.1l9.8 42.1c-1.6-.2-3.2-.3-4.9-.5-3.5-2.3-7.6-4.6-9.1-4.1l1.8 3.4c-43.7-3.9-82.6-5.4-116.7-5.5l6.9-13.4c-2.7-.9-14.7 8-14.7 8l10.6-45.6c-8.5 1-14.5 19.4-17.7 33.2-3.1-7.1-6.9-12.7-11.5-13.2l6 25.7-12.8-13.2 7.9 18.7c-38.2.8-69.3 3.4-93.4 6.3 7-20.9 30.8-40.8 30.8-40.8-18.2 5.4-27.7 14.5-32.7 22.9-.4-43.2 6.7-86.1 21.2-126.8 0 0-37.6 81.8-32.8 136.7l.6 9.8c-31.9 4.6-47.9 9.3-47.9 9.3l155.8 2 1.4 2.7c-20.5 2.7-41.8 5.9-64 9.7l430.5-5.4s-3.4-1-10-2.5l155.4-2z"/><path d="M-301 257.4v65.7c0 1.3-1 2.3-2.3 2.3h-1.6v294c0 19.7-16 35.7-35.7 35.7h-213.8c-19.7 0-35.7-16-35.7-35.7v-282h-1.2c-.9 0-1.6-.7-1.6-1.6v-37.4c0-.9.7-1.6 1.6-1.6h1.2v-14.1h-1.2c-.9 0-1.7-.8-1.7-1.7v-36.9c0-.9.8-1.7 1.7-1.7h1.2v-19.2h-1.2c-.8 0-1.5-.7-1.5-1.5v-20.1c0-.8.7-1.5 1.5-1.5h1.2v-40.7c0-19.7 16-35.7 35.7-35.7h213.8c19.7 0 35.7 16 35.7 35.7v95.8h1.6c1.3-.1 2.3.9 2.3 2.2z" fill="#3a3a3a"/><path class="st6" d="M-474.2 142.6h37.4c2.2 0 4-1.8 4-4s-1.8-4-4-4h-37.4c-2.2 0-4 1.8-4 4s1.8 4 4 4z"/><circle class="st6" cx="-419.8" cy="138.6" r="4"/><path class="st6" d="M-337.5 138.6h-44.6v1.1c0 9.6-7.8 17.4-17.4 17.4h-96.9c-9.6 0-17.4-7.8-17.4-17.4v-1.1h-42.7c-11.6 0-21.1 9.4-21.1 21.1v459.4c0 11.6 12.3 23.9 23.9 23.9h213.3c11.6 0 23.9-12.3 23.9-23.9V159.7c.1-11.7-9.4-21.1-21-21.1z"/><path class="st7" d="M-467.8 198.3c.1-.1.1-.3 0-.4l-.3-.9c0-.1-.1-.2-.2-.3-.1-.1-.3-.1-.4 0-1.8.6-3.5 1.2-5.2 1.9-.1.1-.2.1-.3.3-.1.1-.1.3 0 .4l.3.8c.1.2.3.3.5.3h.2c1.7-.7 3.4-1.3 5.1-1.9.1 0 .2-.1.3-.2zm32.1-3.7c-1.8-.3-3.7-.6-5.5-.8-.1 0-.3 0-.4.1-.1.1-.2.2-.2.3l-.1.9c0 .3.2.5.4.5 1.8.2 3.6.4 5.4.8h.1c.1 0 .2 0 .3-.1.1-.1.2-.2.2-.3l.2-.9c.1-.2-.1-.5-.4-.5zm10.5 4.7l.3-.3.3-.8c.1-.3 0-.5-.3-.6-1.7-.6-3.5-1.2-5.3-1.7h-.4c-.1.1-.2.2-.2.3l-.2.9c-.1.3.1.5.4.6 1.7.5 3.5 1 5.2 1.6h.2c-.1 0 0 0 0 0zm-21.5-5.8c-1.8 0-3.7 0-5.6.1-.3 0-.5.3-.5.5l.1.9c0 .1.1.3.2.3.1.1.2.1.3.1 1.8-.1 3.6-.2 5.4-.1.1 0 .3 0 .4-.1.1-.1.1-.2.2-.4v-.9c0-.2-.3-.4-.5-.4zm-16.3 3.6h.1c1.8-.4 3.5-.8 5.3-1 .3 0 .5-.3.4-.6l-.1-.9c0-.3-.3-.5-.6-.4-1.8.3-3.7.6-5.5 1.1-.1 0-.2.1-.3.2s-.1.2-.1.4l.2.9c.2.2.4.3.6.3zm80.2 53.6c-.1.1-.1.2-.1.4.3 1.8.5 3.6.6 5.4 0 .3.2.5.5.5l.9-.1c.3 0 .5-.3.5-.5-.1-1.8-.3-3.7-.6-5.5 0-.3-.3-.5-.6-.4l-.9.1c-.1-.1-.2 0-.3.1zm-1.2-5c0 .1.1.2.2.3.1 0 .2.1.3.1h.1l.9-.2c.1 0 .2-.1.3-.2.1-.1.1-.2.1-.4-.4-1.8-.9-3.6-1.5-5.4-.1-.3-.4-.4-.6-.3l-.9.3c-.1 0-.2.1-.3.2-.1.1-.1.3 0 .4.5 1.7 1 3.5 1.4 5.2zm-3.3-10.2c.1.2.3.3.5.3h.2l.8-.3c.1-.1.2-.1.3-.3v-.4c-.7-1.7-1.5-3.4-2.4-5-.1-.2-.4-.3-.7-.2l-.8.4c-.1.1-.2.2-.2.3v.4c.8 1.5 1.6 3.1 2.3 4.8zm-4.7-9.4h.1c.1 0 .2 0 .3-.1l.8-.5c.1-.1.2-.2.2-.3 0-.1 0-.3-.1-.4-1-1.6-2.1-3.1-3.2-4.6-.1-.1-.2-.2-.3-.2-.1 0-.3 0-.4.1l-.7.5c-.2.2-.3.5-.1.7 1.1 1.4 2.1 2.9 3.1 4.4 0 .3.1.4.3.4zm-23-22.5l.4-.8c.1-.2 0-.5-.2-.7-1.6-.9-3.3-1.8-5-2.5-.3-.1-.5 0-.7.2l-.4.8c-.1.1-.1.3 0 .4 0 .1.1.2.3.3 1.6.7 3.3 1.6 4.8 2.5.1 0 .2.1.2.1h.1c.3-.1.4-.2.5-.3zm30.9 79.7l-.3-.3-.8-.3c-.3-.1-.5 0-.6.3-.6 1.7-1.3 3.4-2 5-.1.1-.1.3 0 .4 0 .1.1.2.3.3l.8.4h.2c.2 0 .4-.1.5-.3.8-1.7 1.5-3.4 2.1-5.2-.2 0-.2-.2-.2-.3zm2.5-22c-.1 0-.3.1-.4.1-.1.1-.1.2-.2.4 0 1.8-.1 3.6-.3 5.4 0 .3.2.5.5.5l.9.1c.1 0 .2 0 .3-.1.1-.1.2-.2.2-.3.2-1.8.3-3.7.3-5.6 0-.3-.2-.5-.5-.5h-.8zm-1 10.9c-.1 0-.3 0-.4.1-.1.1-.2.2-.2.3-.3 1.8-.7 3.5-1.2 5.3 0 .1 0 .3.1.4.1.1.2.2.3.2l.9.2h.1c.2 0 .4-.1.5-.4.5-1.8.9-3.6 1.2-5.4 0-.3-.1-.5-.4-.6l-.9-.1zM-410 205c-.2-.2-.5-.1-.7.1l-.5.7c-.1.1-.1.2-.1.4 0 .1.1.2.2.3 1.5 1 3 2.1 4.4 3.2.1.1.2.1.3.1.1 0 .3-.1.4-.2l.6-.7c.1-.1.1-.2.1-.4s-.1-.3-.2-.3c-1.5-1-3-2.1-4.5-3.2zm8.6 7c-.2-.2-.5-.2-.7 0l-.6.7c-.2.2-.2.5 0 .7 1.3 1.2 2.6 2.5 3.8 3.9.1.1.2.2.4.2.1 0 .2 0 .3-.1l.7-.6c.2-.2.2-.5 0-.7-1.2-1.5-2.5-2.8-3.9-4.1zm-64.9 164.9c-.3-1.7-.6-3.4-.7-5.1 0-.1-.1-.3-.2-.3-.1-.1-.2-.1-.4-.1l-.8.1c-.3 0-.5.3-.4.5.2 1.7.4 3.5.8 5.2 0 .1.1.2.2.3.1.1.2.1.3.1h.1l.8-.2c.2 0 .4-.2.3-.5zm77.6 48.9c0-.1-.1-.2-.2-.3-.1-.1-.3-.1-.4-.1-1.6.4-3.3.8-5 1.1-.3 0-.5.3-.4.6l.2.8c0 .1.1.2.2.3.1.1.2.1.3.1h.1c1.7-.3 3.5-.7 5.1-1.2.1 0 .2-.1.3-.2s.1-.3 0-.4l-.2-.7zm27.2-14.5l-.6-.6c-.1-.1-.2-.2-.3-.2-.1 0-.3 0-.4.1-1.2 1.2-2.5 2.3-3.9 3.3-.2.2-.3.5-.1.7l.5.7c.1.1.2.2.3.2h.1c.1 0 .2 0 .3-.1 1.4-1.1 2.7-2.3 4-3.5.3 0 .3-.3.1-.6zm-107.2-44h.8c.3 0 .5-.2.5-.5 0-1.7 0-3.4.1-5.1 0-.3-.2-.5-.5-.5l-.8-.1c-.1 0-.3 0-.4.1-.1.1-.2.2-.2.3-.1 1.7-.1 3.5-.1 5.3 0 .1.1.3.2.4.2 0 .3.1.4.1zm3.6 14.6c0-.1-.1-.2-.2-.3-.1-.1-.3-.1-.4 0l-.8.2c-.3.1-.4.3-.4.6.5 1.7 1 3.4 1.6 5 0 .1.1.2.3.3h.4l.8-.3c.3-.1.4-.4.3-.6-.7-1.6-1.2-3.3-1.6-4.9zm45.5 44c-1.6-.4-3.3-.9-4.9-1.4-.3-.1-.5.1-.6.3l-.3.8c-.1.3.1.5.3.6 1.7.5 3.4 1 5.1 1.4h.1c.2 0 .4-.2.5-.4l.2-.8c0-.1 0-.3-.1-.4-.1 0-.2-.1-.3-.1zm-9.7-3.2c-1.6-.7-3.1-1.4-4.6-2.2-.1-.1-.3-.1-.4 0-.1 0-.2.1-.3.2l-.4.8c-.1.2 0 .5.2.7 1.5.8 3.1 1.6 4.8 2.2h.2c.2 0 .4-.1.5-.3l.3-.8c.1-.1.1-.3 0-.4-.1 0-.2-.1-.3-.2zm50.3-.4c-.1-.3-.4-.4-.7-.2-1.5.7-3.1 1.3-4.7 1.9-.1 0-.2.1-.3.3-.1.1-.1.3 0 .4l.3.8c0 .1.1.2.3.3h.4c1.6-.6 3.3-1.3 4.9-2l.3-.3c.1-.1 0-.3 0-.4l-.5-.8zm-30.5 5.1c-1.7-.1-3.4-.3-5.1-.6-.1 0-.3 0-.4.1-.1.1-.2.2-.2.3l-.1.8c0 .1 0 .3.1.4.1.1.2.2.3.2 1.7.3 3.5.5 5.2.6.3 0 .5-.2.5-.5l.1-.8c0-.2-.2-.4-.4-.5zm10.5 0c-.1-.1-.2-.1-.4-.1-1.7.2-3.4.3-5.1.3-.1 0-.3.1-.4.2-.1.1-.1.2-.1.4v.8c0 .3.2.5.5.5 1.8 0 3.5-.1 5.3-.3.3 0 .5-.3.4-.5l-.1-.8c.1-.3 0-.4-.1-.5zm-62.6-35.9l-.3-.3h-.4l-.8.4c-.3.1-.4.4-.2.7.7 1.6 1.5 3.2 2.4 4.7.1.2.3.3.4.3.1 0 .2 0 .2-.1l.7-.4c.1-.1.2-.2.2-.3v-.4c-.8-1.5-1.5-3.1-2.2-4.6zm5 8.9c-.2-.2-.5-.3-.7-.1l-.7.5c-.1.1-.2.2-.2.3 0 .1 0 .3.1.4 1 1.4 2 2.9 3.1 4.2.1.1.2.2.3.2h.1c.1 0 .2 0 .3-.1l.7-.5c.2-.2.2-.5.1-.7-1.2-1.4-2.2-2.8-3.1-4.2zm18.2 17.6c-1.4-.9-2.8-1.9-4.2-2.9-.1-.1-.2-.1-.4-.1-.1 0-.2.1-.3.2l-.5.7c-.2.2-.1.5.1.7 1.4 1 2.8 2 4.3 3 .1.1.2.1.3.1h.1c.1 0 .2-.1.3-.2l.5-.7c.1-.3 0-.6-.2-.8zm-11.8-9.7c-.1-.1-.2-.2-.3-.2-.2 0-.3 0-.4.1l-.6.6c-.1.1-.2.2-.2.4 0 .1 0 .3.1.4 1.2 1.3 2.5 2.5 3.8 3.7.1.1.2.1.3.1.1 0 .3-.1.3-.2l.6-.6c.2-.2.2-.5 0-.7-1.2-1.2-2.5-2.3-3.6-3.6zm80.1 8.9c-.2-.2-.5-.3-.7-.1-1.4.9-2.9 1.8-4.4 2.7-.1.1-.2.2-.2.3v.4l.4.7c.1.1.2.2.3.2h.1c.1 0 .2 0 .2-.1l4.5-2.7c.1-.1.2-.2.2-.3 0-.1 0-.3-.1-.4l-.3-.7z"/><path d="M-429.4 343l-1.9 1.9-.7-.6c.6-.7 1.3-1.3 1.9-1.9l.7.6z" fill="#3f3d56"/><path class="st9" d="M-344.4 357.4h-132.3V304h110z"/><path class="st7" d="M-343.8 357.8h-149.1v-65.6h122.1l.1.3 26.9 65.3zm-148.3-.8H-345l-26.4-63.9h-120.7V357z"/><path class="st7" d="M-464 314.9h85.7v5.3H-464zm0 13.5h85.7v5.3H-464zm0 13.6h85.7v5.3H-464zm7.7-85.3H-567v-67.3h86.1l.1.2 24.5 67.1zm-110-.7h108.9l-24.1-65.8h-84.8V256z"/><path class="st9" d="M-484.7 247.3h-73.2v-42.9h67.3z"/><ellipse class="st10" cx="-516.1" cy="217.6" rx="6" ry="5.9"/><path class="st7" d="M-557.9 233.9l14.6-13 13.2 11.8 25-22.3 20.6 18.6v18.3h-73.4z"/><path class="st7" d="M-484.3 247.6h-73.9v-49.1h73.9v49.1zm-73.2-.7h72.3v-47.7h-72.3v47.7z"/><path class="st11" d="M-550.2 404.1l-8-8 8-8 8 8-8 8zm-5.5-8l5.4 5.4 5.4-5.4-5.4-5.4-5.4 5.4zm140.9 3.3l-7.9-8.5 8.5-7.9 7.9 8.5-8.5 7.9zm-5.3-8.4l5.4 5.8 5.8-5.4-5.4-5.8-5.8 5.4z"/><circle class="st10" cx="-347.4" cy="198.5" r="6.8"/><path class="st10" d="M-347.4 184.3c-7.9 0-14.3 6.4-14.3 14.3s6.4 14.3 14.3 14.3 14.3-6.4 14.3-14.3c0-8-6.4-14.3-14.3-14.3zm0 26.5c-6.8 0-12.3-5.5-12.3-12.3s5.5-12.3 12.3-12.3c6.8 0 12.3 5.5 12.3 12.3 0 6.8-5.5 12.3-12.3 12.3zm12.3 218.8c-4.5 0-8.1-3.6-8.1-8.1s3.6-8.1 8.1-8.1 8.1 3.6 8.1 8.1c.1 4.4-3.6 8.1-8.1 8.1zm0-14.1c-3.3 0-5.9 2.6-5.9 5.9s2.6 5.9 5.9 5.9c3.3 0 5.9-2.6 5.9-5.9 0-3.2-2.6-5.9-5.9-5.9zm-185.7-90.8h-6.7V318h6.7v6.7zm104.9-80.4l-4.7-4.7 4.7-4.7 4.7 4.7-4.7 4.7z"/><path class="st7" d="M-461 624c-46.2 0-83.8-37.6-83.8-83.8s37.6-83.8 83.8-83.8c46.2 0 83.8 37.6 83.8 83.8S-414.7 624-461 624zm0-165.9c-45.3 0-82.1 36.8-82.1 82.1s36.8 82.1 82.1 82.1 82.1-36.8 82.1-82.1-36.8-82.1-82.1-82.1z"/><path class="st7" d="M-461 603.8c-35.1 0-63.6-28.5-63.6-63.6s28.5-63.6 63.6-63.6 63.6 28.5 63.6 63.6-28.5 63.6-63.6 63.6zm0-125.8c-34.3 0-62.2 27.8-62.2 62.2s27.8 62.2 62.2 62.2 62.2-27.8 62.2-62.2c-.1-34.3-27.9-62.1-62.2-62.2z"/><path class="st12" d="M-536.1 543.3zm0 0zm0 0zm0 0z"/><path d="M-461 540.2l-32.7-20.9c-3.9 6-6.1 13.2-6.1 20.9 0 16.7 10.6 31 25.4 36.5 2 .7 4 1.3 6.1 1.7l7.3-38.2z" fill="#ffecd9"/><path d="M-461 540.2l-7.3 38.2c2.4.5 4.8.7 7.3.7 13.7 0 25.8-7.1 32.7-17.9 3.9-6 6.1-13.2 6.1-20.9H-461z" fill="#ffb052"/><path class="st12" d="M-453.6 502c-2.4-.5-4.8-.7-7.3-.7-13.7 0-25.8 7.1-32.7 17.9l32.7 20.9 13.4-36.5c-2-.6-4-1.2-6.1-1.6z"/><path class="st10" d="M-447.6 503.7l-13.4 36.5h38.9c0-16.8-10.6-31-25.5-36.5z"/><path class="st11" d="M-381.1 473.2h31.9v2.9h-31.9zm-5.7 6.3h37.6v2.9h-37.6zm0 6.2h37.6v2.9h-37.6zm-54.2 30.8l-.9-.4 10.3-21.9h66.3v.9H-431z"/></svg>