<svg version="1.1" id="图层_1" xmlns="http://www.w3.org/2000/svg" x="0" y="0" viewBox="3000 -9.9 800 800" xml:space="preserve"><style>.st1{fill:#4670fd}</style><path id="XMLID_3_" d="M3772.2 435.8c-10 49-52.2 74.9-74 117.1-25.5 49.4-33.5 85.1-81 116.1-54.4 35.5-141.3-2.3-212.5-2.3-62.7 0-130.2 24.8-180.5-3.4-56.7-31.7-135.1-48.5-151.5-109.1-15-55.2-53.5-110.6-47.5-189.9 4-52.2 47.9-50.4 68.5-107.1 17-46.9 69-75.8 111-105 28-19.4 44.2-40.1 75-48s57.1-1.8 94.5-1.8c24.1 0 77.3-9.7 101.1-5.3 28.2 5.3 55.3 13.5 79.3 24.5 28.9 13.2 51.2 49.6 77.6 71.4 30.8 25.5 89.8 39.9 108 70.8 26.9 45.8 42.5 120.5 32 172z" opacity=".4" fill="#f2f2f2"/><g id="XMLID_266_"><g id="XMLID_267_"><path id="XMLID_289_" class="st1" d="M3374.1 327.2c-14.9 0-27-12.1-27-27s12.1-27 27-27 27 12.1 27 27-12.1 27-27 27zm0-45.8c-10.4 0-18.8 8.5-18.8 18.8 0 10.4 8.5 18.8 18.8 18.8 10.4 0 18.8-8.5 18.8-18.8.1-10.4-8.4-18.8-18.8-18.8z"/></g><g id="XMLID_294_"><path id="XMLID_286_" class="st1" d="M3264.6 489.8c-14.2 0-25.7-11.5-25.7-25.7s11.5-25.7 25.7-25.7 25.7 11.5 25.7 25.7-11.5 25.7-25.7 25.7zm0-43.3c-9.7 0-17.6 7.9-17.6 17.6 0 9.7 7.9 17.6 17.6 17.6s17.6-7.9 17.6-17.6c0-9.7-7.9-17.6-17.6-17.6z"/></g><g id="XMLID_295_"><path id="XMLID_283_" class="st1" d="M3518.5 427.9c-9.8 0-17.8-8-17.8-17.8s8-17.8 17.8-17.8 17.8 8 17.8 17.8-8 17.8-17.8 17.8zm0-27.4c-5.3 0-9.6 4.3-9.6 9.6s4.3 9.6 9.6 9.6 9.6-4.3 9.6-9.6c.1-5.3-4.3-9.6-9.6-9.6z"/></g><path id="XMLID_296_" class="st1" d="M3317.6 394.9c2.5 0 4.5-2 4.5-4.5V244.1h209.6v119.1c0 2.5 2 4.5 4.5 4.5s4.5-2 4.5-4.5V243.7c0-4.7-3.9-8.6-8.6-8.6h-210.4c-4.7 0-8.6 3.9-8.6 8.6v146.6c0 2.5 2 4.6 4.5 4.6z"/><path id="XMLID_297_" class="st1" d="M3536.2 456.7c-2.5 0-4.5 2-4.5 4.5V536h-209.6c-.2-2.3-2.2-4.1-4.5-4.1-2.5 0-4.5 2-4.5 4.5 0 4.7 3.9 8.6 8.6 8.6h210.4c4.7 0 8.6-3.9 8.6-8.6v-75.2c0-2.4-2-4.5-4.5-4.5z"/><path id="XMLID_300_" class="st1" d="M3434.5 515.9V412.3c0-4.7-3.9-8.6-8.6-8.6h-211.2c-4.7 0-8.6 3.9-8.6 8.6v103.6c0 4.7 3.9 8.6 8.6 8.6h211.2c4.8 0 8.6-3.9 8.6-8.6zm-219.4-.5V412.7h210.3v102.7h-210.3z"/><path id="XMLID_303_" class="st1" d="M3585.4 376.6h-93.5c-4.7 0-8.6 3.9-8.6 8.6v51.5c0 4.7 3.9 8.6 8.6 8.6h93.5c4.7 0 8.6-3.9 8.6-8.6v-51.5c0-4.7-3.9-8.6-8.6-8.6zm-.5 59.7h-92.6v-50.6h92.6v50.6z"/><path id="XMLID_304_" class="st1" d="M3490.6 277.3h-71.4c-2.5 0-4.5 2-4.5 4.5s2 4.5 4.5 4.5h71.4c2.5 0 4.5-2 4.5-4.5s-2-4.5-4.5-4.5z"/><path id="XMLID_305_" class="st1" d="M3490.6 295.7h-71.4c-2.5 0-4.5 2-4.5 4.5s2 4.5 4.5 4.5h71.4c2.5 0 4.5-2 4.5-4.5s-2-4.5-4.5-4.5z"/><path id="XMLID_306_" class="st1" d="M3474.1 314.1h-54.9c-2.5 0-4.5 2-4.5 4.5s2 4.5 4.5 4.5h54.9c2.5 0 4.5-2 4.5-4.5s-2-4.5-4.5-4.5z"/><g id="XMLID_280_"><path id="XMLID_307_" class="st1" d="M3374.9 441.2h-63.4c-2.5 0-4.5 2-4.5 4.5s2 4.5 4.5 4.5h63.4c2.5 0 4.5-2 4.5-4.5s-2-4.5-4.5-4.5z"/><path id="XMLID_308_" class="st1" d="M3374.9 459.6h-63.4c-2.5 0-4.5 2-4.5 4.5s2 4.5 4.5 4.5h63.4c2.5 0 4.5-2 4.5-4.5s-2-4.5-4.5-4.5z"/><path id="XMLID_309_" class="st1" d="M3349.3 477.9h-37.7c-2.5 0-4.5 2-4.5 4.5s2 4.5 4.5 4.5h37.7c2.5 0 4.5-2 4.5-4.5s-2-4.5-4.5-4.5z"/></g><path id="XMLID_310_" class="st1" d="M3546.4 405.5h27.4c2.5 0 4.5-2 4.5-4.5s-2-4.5-4.5-4.5h-27.4c-2.5 0-4.5 2-4.5 4.5s2 4.5 4.5 4.5z"/><path id="XMLID_320_" class="st1" d="M3546.4 423.9h27.4c2.5 0 4.5-2 4.5-4.5s-2-4.5-4.5-4.5h-27.4c-2.5 0-4.5 2-4.5 4.5s2 4.5 4.5 4.5z"/><path id="XMLID_323_" class="st1" d="M3271.6 392.3c.8 1.6 2.3 2.6 4.1 2.6 1.7 0 3.3-1 4.1-2.6l14.4-30.1c.3-.6.4-1.3.4-2V239.6c0-2.5-2-4.5-4.5-4.5h-28.9c-2.5 0-4.5 2-4.5 4.5v120.6c0 .7.2 1.3.4 2l14.5 30.1zm4.1-12.4l-7.3-15.2h14.5l-7.2 15.2zm-9.9-135.8h19.8v15.8h-19.8v-15.8zm0 24.9h19.8v86.7h-19.8V269z"/></g></svg>