<svg version="1.1" id="图层_1" xmlns="http://www.w3.org/2000/svg" x="0" y="0" viewBox="3000 -9.9 800 800" xml:space="preserve"><style>.st1{fill:#4670fd}</style><path id="XMLID_1_" d="M3772.2 435.8c-10 49-52.2 74.9-74 117.1-25.5 49.4-33.5 85.1-81 116.1-54.4 35.5-141.3-2.3-212.5-2.3-62.7 0-130.2 24.8-180.5-3.4-56.7-31.7-135.1-48.5-151.5-109.1-15-55.2-53.5-110.6-47.5-189.9 4-52.2 47.9-50.4 68.5-107.1 17-46.9 69-75.8 111-105 28-19.4 44.2-40.1 75-48s57.1-1.8 94.5-1.8c24.1 0 77.3-9.7 101.1-5.3 28.2 5.3 55.3 13.5 79.3 24.5 28.9 13.2 51.2 49.6 77.6 71.4 30.8 25.5 89.8 39.9 108 70.8 26.8 45.8 42.5 120.5 32 172z" opacity=".4" fill="#f2f2f2"/><g id="XMLID_7_"><path id="XMLID_705_" class="st1" d="M3521.2 464.6c.3-2.7.4-5.4.4-8.1 0-9.6-1.8-18.8-5-27.2 31.8-68.8 42.7-83.5 42.9-83.7l1.2-1.5-12.8-51.1-45.9 25.7-.3 1.9c0 .1-1.3 7.8-10.1 32.7l-.3.9c-3.1 8.9-7.2 20-12.5 33.7-5.3-2.6-11-4.6-16.9-5.9l.6-29 .4-23.1c0-1.4-.3-2.7-.9-3.8 8.9-8.5 13.8-18.5 14.6-30 1.8-27.6-21.3-55.7-31.4-66.5-1.7-1.8-4.2-2.3-6.5-1.4-2.3 1-3.6 3.2-3.5 5.6.7 14.2-2.2 24.4-21.6 46.9-12.8 14.9-5.6 32.9 1.8 43.2-1.2 1.4-1.9 3.1-1.9 4.9l-1.1 58.9c-5.3 2.6-10.2 5.7-14.7 9.4l-27.8-111.7c0-.1-.1-.2-.1-.3-.1-1-.5-1.9-1-2.8l-18.6-29.1-15.3-24c-1.3-2-3.7-2.9-6.2-2.2l-.9.3c-2 .8-3.4 2.5-3.5 4.6l-5 62.8c-.1 1.1.1 2.1.4 3v.3l29.1 117.1h-2c-4.8 0-9.4.6-13.9 1.6l-7.2-17.9-8.3-20.7-13.9-34.5c-.9-2.4-2.8-4.2-5.1-5.2s-4.9-1-7.3-.1l-48.7 19.7c-4.9 2-7.2 7.5-5.2 12.4l39.5 98.1c-22.4 1-40.2 19.6-40.2 42.2 0 23.3 18.9 42.3 42.2 42.3h240.6c24.4 0 44.2-19.9 44.2-44.3 0-23.6-18.8-43.1-42.3-44.1zm-12-140.8l27.7-15.5-13 30.1c-.9 2 .1 4.4 2.1 5.3.5.2 1.1.3 1.6.3 1.5 0 3-.9 3.7-2.4l13-30.1 7.8 30.9c-2 3-6.7 10.6-15.3 27.1-6.8-.4-13.4-2-19.7-4.8-6.3-2.7-12-6.5-17-11.1 6.1-17.7 8.3-26.3 9.1-29.8zm-12 37.9c5 4.2 10.6 7.7 16.7 10.3 6.1 2.6 12.4 4.3 18.9 5.1-5.5 10.9-12.3 24.8-20.6 42.6a76.8 76.8 0 00-26.4-27.9c4.6-11.8 8.4-21.8 11.4-30.1zm-42.7-12.8l-33.4-.6.4-18.9h.8l32.6.6-.4 18.9zm-34.9-62.8c16.8-19.6 23.1-31.5 23.6-46.6 24.3 27.9 25.9 48.4 25.3 56.2-.7 10.1-5.3 18.9-13.8 26.3-15.6-.4-27-.6-31.3-.6-3.8-4.7-15.7-21.4-3.8-35.3zm1.4 70.2l33.4.6-.5 23.8c-2.7-.3-5.5-.5-8.3-.5-8.8 0-17.3 1.5-25.2 4.3l.6-28.2zm-89.3-117l9.3 14.6c-1.7.7-3.5 1.2-5.2 1.7-1.8.4-3.6.8-5.5 1l1.4-17.3zm-4.5 55.8l2.4-30.6c2.7-.2 5.4-.6 8-1.3 2.6-.6 5.1-1.5 7.6-2.6l16.4 25.8-.3.3c-2.8 2.6-8.7 6.2-15.9 8-7.3 1.8-14.3 1.3-18.1.3.1.2 0 .2-.1.1zm2.1 8.6c1.9.3 4 .4 6.2.4 2.5 0 5.3-.2 8.1-.7l5.1 20.4c.5 1.8 2.1 3 3.9 3 .3 0 .6 0 1-.1 2.1-.5 3.4-2.7 2.9-4.8l-5.1-20.4c5.1-1.7 9.5-4.2 12.7-6.5l27 108.5c-4.1 4.2-7.7 9-10.7 14.2l-18.8-75.6c-.5-2.1-2.7-3.4-4.8-2.9-2.1.5-3.4 2.7-2.9 4.8l19.1 76.8c-5-2.2-10.2-3.8-15.5-4.7l-28.2-112.4zm-83.9 61.9l48.7-19.7c.2-.1.4-.1.5-.1.3 0 .5.1.6.1.2.1.6.3.8.8l5.4 13.3-27.9 11.3c-2 .8-3 3.2-2.2 5.2.6 1.6 2.1 2.5 3.7 2.5.5 0 1-.1 1.5-.3l27.9-11.3 4.1 10.1-18.3 7.4c-2 .8-3 3.2-2.2 5.2.6 1.6 2.1 2.5 3.7 2.5.5 0 1-.1 1.5-.3l18.3-7.4 5.4 13.3-32.7 13.2c-2 .8-3 3.2-2.2 5.2.6 1.6 2.1 2.5 3.7 2.5.5 0 1-.1 1.5-.3l32.7-13.2 5.4 13.5c-20.6 7.6-36.4 25.8-40.4 48.1l-40.2-99.7c-.4-.7 0-1.6.7-1.9zm273.9 179.6h-240.6c-18.8 0-34.2-15.4-34.2-34.3s15.3-34.3 34.2-34.3c2.7 0 5.5.4 8.3 1.1l4.6 1.2.4-4.7c2.2-28.5 26.3-50.9 54.9-50.9 10.7 0 21.1 3.1 30.1 9l4 2.6 1.8-4.5c10.6-25.6 35.2-42.1 62.9-42.1 37.5 0 68 30.6 68 68.2 0 3.8-.3 7.7-1 11.5l-.8 5 5-.3c.9-.1 1.7-.1 2.4-.1 20 0 36.2 16.3 36.2 36.3s-16.3 36.3-36.2 36.3z"/><path id="XMLID_719_" class="st1" d="M3448.7 294.9c-.1 2.2-.7 5.3-3.4 8.8-1.4 1.7-1 4.3.7 5.6.7.6 1.6.8 2.5.8 1.2 0 2.4-.5 3.2-1.5 4.1-5.3 4.9-10.1 5.1-13.2.4-6.4-1.3-13.8-5.2-22-.9-2-3.3-2.9-5.3-1.9-2 .9-2.9 3.3-1.9 5.3 3.2 7 4.6 13.1 4.3 18.1z"/><path id="XMLID_720_" class="st1" d="M3403.5 428.8c.7.6 1.6.8 2.4.8 1.2 0 2.4-.5 3.2-1.6 7.5-9.7 18.2-15.9 30.3-17.5 2.2-.3 3.7-2.3 3.4-4.5s-2.3-3.7-4.5-3.4c-14.2 1.9-26.8 9.2-35.6 20.5-1.2 1.8-.9 4.3.8 5.7z"/><path id="XMLID_721_" class="st1" d="M3337.6 438.2c-14.6 3.4-26.3 14.5-30.4 28.9-.6 2.1.6 4.3 2.7 5 .4.1.7.2 1.1.2 1.7 0 3.3-1.1 3.8-2.9 3.4-11.6 12.8-20.6 24.5-23.3 2.2-.5 3.5-2.7 3-4.8-.4-2.3-2.6-3.6-4.7-3.1z"/><path id="XMLID_722_" class="st1" d="M3437.7 478.5c-4 0-7.9.9-11.5 2.5-6-9.1-16.1-14.6-27.2-14.6-18.1 0-32.7 14.7-32.7 32.8 0 5.4 1.4 10.8 3.9 15.6.7 1.3 2.1 2.1 3.5 2.1.6 0 1.3-.2 1.9-.5 1.9-1.1 2.7-3.5 1.6-5.4-1.9-3.6-3-7.7-3-11.8 0-13.7 11.1-24.8 24.7-24.8 9.4 0 17.9 5.3 22.1 13.8l2 4.1 3.8-2.5c3.2-2.1 6.9-3.3 10.8-3.3 7.8 0 14.8 4.6 17.9 11.8.9 2 3.2 3 5.3 2.1 2-.9 3-3.2 2.1-5.3-4.3-10.1-14.2-16.6-25.2-16.6z"/></g></svg>