<svg version="1.1" id="图层_1" xmlns="http://www.w3.org/2000/svg" x="0" y="0" viewBox="0 0 800 800" xml:space="preserve"><style>.st1{fill:#4670fd}</style><path id="XMLID_4_" d="M772.2 445.7c-10 49-52.2 74.9-74 117.1-25.5 49.4-33.5 85.1-81 116.1-54.4 35.5-141.3-2.3-212.5-2.3-62.7 0-130.2 24.8-180.5-3.4-56.7-31.7-135.1-48.5-151.5-109.1-15-55.2-53.5-110.6-47.5-189.9 4-52.2 47.9-50.4 68.5-107.1 17-46.9 69-75.8 111-105 28-19.4 44.2-40.1 75-48s57.1-1.8 94.5-1.8c24.1 0 77.3-9.7 101.1-5.3 28.2 5.3 55.3 13.5 79.3 24.5 28.9 13.2 51.2 49.6 77.6 71.4 30.8 25.5 89.8 39.9 108 70.8 26.8 45.8 42.5 120.5 32 172z" opacity=".4" fill="#f2f2f2"/><g id="XMLID_153_"><path id="XMLID_154_" class="st1" d="M442.5 383.2l17-17c1.9-1.9 1.9-4.9 0-6.8-1.9-1.9-4.9-1.9-6.8 0l-20.4 20.4c-.9.9-1.4 2.1-1.4 3.4 0 1.3.5 2.5 1.4 3.4l20.4 20.4c.9.9 2.2 1.4 3.4 1.4s2.5-.5 3.4-1.4c1.9-1.9 1.9-4.9 0-6.8l-17-17z"/><path id="XMLID_227_" class="st1" d="M493.3 358.5c-2.4-1.2-5.2-.3-6.4 2.1l-20.7 40.8c-1.2 2.4-.3 5.2 2.1 6.4.7.4 1.4.5 2.2.5 1.7 0 3.4-1 4.3-2.6l20.7-40.8c1.1-2.3.2-5.2-2.2-6.4z"/><path id="XMLID_228_" class="st1" d="M508.8 359.4c-1.9-1.9-4.9-1.9-6.8 0-1.9 1.9-1.9 4.9 0 6.8l17 17-17 17c-1.9 1.9-1.9 4.9 0 6.8.9.9 2.2 1.4 3.4 1.4 1.2 0 2.4-.5 3.4-1.4l20.4-20.4c.9-.9 1.4-2.1 1.4-3.4 0-1.3-.5-2.5-1.4-3.4l-20.4-20.4z"/><path id="XMLID_233_" class="st1" d="M267.5 328.4h21.7c2.8 0 5-2.2 5-5s-2.2-5-5-5h-21.7c-2.8 0-5 2.2-5 5s2.2 5 5 5z"/><path id="XMLID_234_" class="st1" d="M294.2 389.2c0-2.8-2.2-5-5-5h-21.7c-2.8 0-5 2.2-5 5s2.2 5 5 5h21.7c2.7 0 5-2.2 5-5z"/><path id="XMLID_235_" class="st1" d="M214 490.7c2.8 0 5-2.2 5-5v-212c0-2.8 2.2-5 5-5h352c2.8 0 5 2.2 5 5v212c0 2.8 2.2 5 5 5s5-2.2 5-5v-212c0-8.3-6.7-15-15-15H224c-8.3 0-15 6.7-15 15v212c0 2.7 2.2 5 5 5z"/><path id="XMLID_238_" class="st1" d="M487.5 283.7H240.7c-2.8 0-5 2.2-5 5v190c0 2.8 2.2 5 5 5h318.6c2.8 0 5-2.2 5-5v-190c0-2.8-2.2-5-5-5h-71.8zm-241.8 190v-180H395v180H245.7zm308.6 0H405v-180h149.3v180z"/><path id="XMLID_242_" class="st1" d="M601.7 498.7H198.3c-11.8 0-21.3 9.6-21.3 21.3 0 11.8 9.6 21.3 21.3 21.3h403.3c11.8 0 21.3-9.6 21.3-21.3.1-11.8-9.5-21.3-21.2-21.3zm0 32.6H198.3c-6.2 0-11.3-5.1-11.3-11.3 0-6.2 5.1-11.3 11.3-11.3h403.3c6.2 0 11.3 5.1 11.3 11.3.1 6.2-5 11.3-11.2 11.3z"/><path id="XMLID_243_" class="st1" d="M284.2 345.4c0 2.8 2.2 5 5 5h21.7c2.8 0 5-2.2 5-5s-2.2-5-5-5h-21.7c-2.8 0-5 2.2-5 5z"/><path id="XMLID_244_" class="st1" d="M369.2 340.4h-38.4c-2.8 0-5 2.2-5 5s2.2 5 5 5h38.4c2.8 0 5-2.2 5-5s-2.2-5-5-5z"/><path id="XMLID_245_" class="st1" d="M284.2 367.3c0 2.8 2.2 5 5 5h46.2c2.8 0 5-2.2 5-5s-2.2-5-5-5h-46.2c-2.8 0-5 2.2-5 5z"/><path id="XMLID_246_" class="st1" d="M329.5 411.1c0-2.8-2.2-5-5-5h-35.3c-2.8 0-5 2.2-5 5s2.2 5 5 5h35.3c2.8 0 5-2.2 5-5z"/><path id="XMLID_247_" class="st1" d="M310.8 428h-21.7c-2.8 0-5 2.2-5 5s2.2 5 5 5h21.7c2.8 0 5-2.2 5-5s-2.2-5-5-5z"/><path id="XMLID_248_" class="st1" d="M352.5 428h-21.7c-2.8 0-5 2.2-5 5s2.2 5 5 5h21.7c2.8 0 5-2.2 5-5s-2.2-5-5-5z"/></g></svg>