<svg version="1.1" id="图层_1" xmlns="http://www.w3.org/2000/svg" x="0" y="0" viewBox="0 0 6808.1 2737.2" xml:space="preserve"><style>.st1{fill:#4670fd}.st2{fill:#e8e8e8}</style><path d="M5670.4 1077.7l-22.5-22.1 20.3-24.1c2.9-3.5 2.5-8.7-1-11.6-3.5-2.9-8.7-2.5-11.6 1l-19.5 23.1-21.6-21.2c-3.3-3.2-8.5-3.2-11.7.1-3.2 3.3-3.2 8.5.1 11.7l22.5 22.1-20.3 24.1c-2.9 3.5-2.5 8.7 1 11.6 3.5 2.9 8.7 2.5 11.6-1l19.5-23.1 21.6 21.2c3.2 3.2 8.5 3.2 11.7-.1 3.2-3.3 3.2-8.5-.1-11.7zM611.7 1516.9l-22.5-22.1 20.3-24.1c2.9-3.5 2.5-8.7-1-11.6-3.5-2.9-8.7-2.5-11.6 1l-19.5 23.1-21.6-21.2c-3.3-3.2-8.5-3.2-11.7.1-3.2 3.3-3.2 8.5.1 11.7l22.5 22.1-20.3 24.1c-2.9 3.5-2.5 8.7 1 11.6 3.5 2.9 8.7 2.5 11.6-1l19.5-23.1 21.6 21.2c3.3 3.2 8.5 3.2 11.7-.1 3.2-3.3 3.2-8.5-.1-11.7z" fill="#80e7ff"/><path class="st1" d="M6022.1 1176.4c-19.5 0-28.1 16.1-35.8 30.3-6.1 11.4-11.9 22.2-20.8 22.2-8.8 0-14.6-10.8-20.8-22.2-7.7-14.2-16.3-30.3-35.8-30.3-19.5 0-28.1 16.1-35.8 30.3-6.1 11.4-11.9 22.1-20.8 22.1-8.8 0-14.6-10.8-20.8-22.2-7.7-14.2-16.3-30.3-35.8-30.3-19.4 0-28.1 16.1-35.8 30.3-6.1 11.4-11.9 22.1-20.8 22.1-8.8 0-14.6-10.8-20.8-22.2-7.7-14.2-16.3-30.3-35.8-30.3-19.4 0-28.1 16.1-35.8 30.3-6.1 11.4-11.9 22.2-20.8 22.2-8.8 0-14.6-10.8-20.8-22.2-7.7-14.2-16.3-30.3-35.8-30.3-19.5 0-28.1 16.1-35.8 30.3-6.1 11.4-11.9 22.2-20.8 22.2-8.8 0-14.6-10.8-20.8-22.2-7.7-14.2-16.3-30.3-35.8-30.3h-2v14h2c8.8 0 14.6 10.8 20.8 22.2 7.7 14.2 16.3 30.3 35.8 30.3 19.5 0 28.1-16.1 35.8-30.3 6.1-11.4 11.9-22.1 20.7-22.1 8.8 0 14.6 10.8 20.8 22.2 7.7 14.2 16.3 30.3 35.8 30.3 19.5 0 28.1-16.1 35.8-30.3 6.1-11.4 11.9-22.1 20.7-22.1 8.8 0 14.6 10.8 20.8 22.2 7.7 14.2 16.3 30.3 35.8 30.3s28.1-16.1 35.8-30.3c6.1-11.4 11.9-22.1 20.8-22.1 8.8 0 14.6 10.8 20.8 22.1 7.7 14.2 16.3 30.3 35.8 30.3 19.4 0 28.1-16.1 35.8-30.3 6.1-11.4 11.9-22.1 20.8-22.1 8.8 0 14.6 10.8 20.8 22.2 7.7 14.2 16.3 30.3 35.8 30.3 19.5 0 28.1-16.1 35.8-30.3 6.1-11.4 11.9-22.1 20.8-22.1h2v-14h-1.8z"/><path class="st2" d="M6159.6 537.9l-5.4-10-7.9 14.8c1.2.4 2.5.7 3.8.7 4 0 7.6-2.2 9.5-5.5zm-9.5 26.4c-6.1 0-11.1 5-11.1 11.1s5 11.1 11.1 11.1 11-5 11-11.1c0-6.2-4.9-11.1-11-11.1zm34.2 19.6l-4-7.5c.3 3 1.8 5.7 4 7.5zm-75.4 46.1c6.1 0 11.1-5 11.1-11.1 0-5.3-3.8-9.8-8.9-10.8l-10 18.6c2 2.1 4.7 3.3 7.8 3.3zm41.2-22.1c-6.1 0-11.1 5-11.1 11.1s5 11.1 11.1 11.1 11-5 11-11.1-4.9-11.1-11-11.1zm30.1 11.1c0 6.1 5 11.1 11.1 11.1s11.1-5 11.1-11.1c0-.6-.1-1.3-.2-1.9l-3.3-6.1c-2-1.9-4.6-3-7.6-3-6.1-.1-11.1 4.9-11.1 11zm-71.3 32.8c-6.1 0-11.1 5-11.1 11.1s5 11.1 11.1 11.1 11.1-5 11.1-11.1c-.1-6.2-5-11.1-11.1-11.1zm41.2 0c-6.1 0-11.1 5-11.1 11.1s5 11.1 11.1 11.1 11-5 11-11.1c0-6.2-4.9-11.1-11-11.1zm41.2 0c-6.1 0-11.1 5-11.1 11.1s5 11.1 11.1 11.1 11.1-5 11.1-11.1c-.1-6.2-5-11.1-11.1-11.1zm41.2 22.1h.2l-9.3-17.3c-1.2 1.8-2 3.9-2 6.3 0 6 5 11 11.1 11zm-164.8 41.6c6.1 0 11.1-5 11.1-11.1s-5-11.1-11.1-11.1c-.9 0-1.8.1-2.6.3l-7.8 14.5c1.6 4.3 5.6 7.4 10.4 7.4zm41.2-22.1c-6.1 0-11.1 5-11.1 11.1s5 11.1 11.1 11.1 11.1-5 11.1-11.1c-.1-6.2-5-11.1-11.1-11.1zm41.2 0c-6.1 0-11.1 5-11.1 11.1s5 11.1 11.1 11.1 11-5 11-11.1c0-6.2-4.9-11.1-11-11.1zm41.2 0c-6.1 0-11.1 5-11.1 11.1s5 11.1 11.1 11.1 11.1-5 11.1-11.1c-.1-6.2-5-11.1-11.1-11.1zm41.2 0c-6.1 0-11.1 5-11.1 11.1s5 11.1 11.1 11.1 11.1-5 11.1-11.1c-.1-6.2-5-11.1-11.1-11.1zm-194.9 54.7c0-.9-.1-1.8-.3-2.6l-7 13c4.2-1.6 7.3-5.6 7.3-10.4zm30.1-11.1c-6.1 0-11.1 5-11.1 11.1s5 11.1 11.1 11.1 11.1-5 11.1-11.1-5-11.1-11.1-11.1zm41.2 0c-6.1 0-11.1 5-11.1 11.1s5 11.1 11.1 11.1 11.1-5 11.1-11.1c-.1-6.1-5-11.1-11.1-11.1zm41.2 0c-6.1 0-11.1 5-11.1 11.1s5 11.1 11.1 11.1 11-5 11-11.1-4.9-11.1-11-11.1zm41.2 0c-6.1 0-11.1 5-11.1 11.1s5 11.1 11.1 11.1 11.1-5 11.1-11.1c-.1-6.1-5-11.1-11.1-11.1zm41.2 0c-6.1 0-11.1 5-11.1 11.1s5 11.1 11.1 11.1 11.1-5 11.1-11.1c-.1-6.1-5-11.1-11.1-11.1zm30.1 11.1c0 6.1 5 11.1 11.1 11.1 1.6 0 3-.3 4.4-.9l-10.4-19.4c-3.1 1.9-5.1 5.3-5.1 9.2zM6026.5 780c-6.1 0-11.1 5-11.1 11.1s5 11.1 11.1 11.1 11.1-5 11.1-11.1-5-11.1-11.1-11.1zm41.2 0c-6.1 0-11.1 5-11.1 11.1s5 11.1 11.1 11.1 11.1-5 11.1-11.1-5-11.1-11.1-11.1zm41.2 0c-6.1 0-11.1 5-11.1 11.1s5 11.1 11.1 11.1 11.1-5 11.1-11.1c-.1-6.1-5-11.1-11.1-11.1zm41.2 0c-6.1 0-11.1 5-11.1 11.1s5 11.1 11.1 11.1 11-5 11-11.1-4.9-11.1-11-11.1zm41.2 0c-6.1 0-11.1 5-11.1 11.1s5 11.1 11.1 11.1 11.1-5 11.1-11.1c-.1-6.1-5-11.1-11.1-11.1zm41.2 0c-6.1 0-11.1 5-11.1 11.1s5 11.1 11.1 11.1 11.1-5 11.1-11.1c-.1-6.1-5-11.1-11.1-11.1zm41.2 0c-6.1 0-11.1 5-11.1 11.1s5 11.1 11.1 11.1 11.1-5 11.1-11.1c-.1-6.1-5-11.1-11.1-11.1zm-277.3 54.8c0-2.9-1.2-5.6-3-7.6l-9.9 18.5c.6.1 1.3.2 1.9.2 6-.1 11-5 11-11.1zm30.1-11.1c-6.1 0-11.1 5-11.1 11.1s5 11.1 11.1 11.1 11.1-5 11.1-11.1-5-11.1-11.1-11.1zm41.2 0c-6.1 0-11.1 5-11.1 11.1s5 11.1 11.1 11.1 11.1-5 11.1-11.1-5-11.1-11.1-11.1zm41.2 0c-6.1 0-11.1 5-11.1 11.1s5 11.1 11.1 11.1 11.1-5 11.1-11.1c-.1-6.1-5-11.1-11.1-11.1zm41.2 0c-6.1 0-11.1 5-11.1 11.1s5 11.1 11.1 11.1 11-5 11-11.1-4.9-11.1-11-11.1zm41.2 0c-6.1 0-11.1 5-11.1 11.1s5 11.1 11.1 11.1 11.1-5 11.1-11.1c-.1-6.1-5-11.1-11.1-11.1zm41.2 0c-6.1 0-11.1 5-11.1 11.1s5 11.1 11.1 11.1 11.1-5 11.1-11.1c-.1-6.1-5-11.1-11.1-11.1zm41.2 0c-6.1 0-11.1 5-11.1 11.1s5 11.1 11.1 11.1 11.1-5 11.1-11.1c-.1-6.1-5-11.1-11.1-11.1zm30.1 11.1c0 6.1 5 11.1 11.1 11.1 3.3 0 6.2-1.4 8.3-3.7l-9.8-18.3c-5.5.7-9.6 5.3-9.6 10.9zm-318.5 32.8c-6.1 0-11.1 5-11.1 11.1s5 11.1 11.1 11.1 11.1-5 11.1-11.1c0-6.2-5-11.1-11.1-11.1zm41.2 0c-6.1 0-11.1 5-11.1 11.1s5 11.1 11.1 11.1 11.1-5 11.1-11.1c0-6.2-5-11.1-11.1-11.1zm41.2 0c-6.1 0-11.1 5-11.1 11.1s5 11.1 11.1 11.1 11.1-5 11.1-11.1c0-6.2-5-11.1-11.1-11.1zm41.2 0c-6.1 0-11.1 5-11.1 11.1s5 11.1 11.1 11.1 11.1-5 11.1-11.1c-.1-6.2-5-11.1-11.1-11.1zm41.2 0c-6.1 0-11.1 5-11.1 11.1s5 11.1 11.1 11.1 11-5 11-11.1c0-6.2-4.9-11.1-11-11.1zm41.2 0c-6.1 0-11.1 5-11.1 11.1s5 11.1 11.1 11.1 11.1-5 11.1-11.1c-.1-6.2-5-11.1-11.1-11.1zm41.2 0c-6.1 0-11.1 5-11.1 11.1s5 11.1 11.1 11.1 11.1-5 11.1-11.1c-.1-6.2-5-11.1-11.1-11.1zm41.2 0c-6.1 0-11.1 5-11.1 11.1s5 11.1 11.1 11.1 11.1-5 11.1-11.1c-.1-6.2-5-11.1-11.1-11.1zm41.2 0c-6.1 0-11.1 5-11.1 11.1s5 11.1 11.1 11.1 11.1-5 11.1-11.1c-.1-6.2-5-11.1-11.1-11.1zm-359.7 52.6c0-4.5-2.7-8.3-6.5-10l-10.4 19.4c1.7 1.1 3.7 1.7 5.8 1.7 6.1-.1 11.1-5 11.1-11.1zm30.1-11.1c-6.1 0-11.1 5-11.1 11.1s5 11.1 11.1 11.1 11.1-5 11.1-11.1-5-11.1-11.1-11.1zm41.2 0c-6.1 0-11.1 5-11.1 11.1s5 11.1 11.1 11.1 11.1-5 11.1-11.1-5-11.1-11.1-11.1zm41.2 0c-6.1 0-11.1 5-11.1 11.1s5 11.1 11.1 11.1 11.1-5 11.1-11.1-5-11.1-11.1-11.1zm41.2 0c-6.1 0-11.1 5-11.1 11.1s5 11.1 11.1 11.1 11.1-5 11.1-11.1c-.1-6.1-5-11.1-11.1-11.1zm41.2 0c-6.1 0-11.1 5-11.1 11.1s5 11.1 11.1 11.1 11-5 11-11.1-4.9-11.1-11-11.1zm41.2 0c-6.1 0-11.1 5-11.1 11.1s5 11.1 11.1 11.1 11.1-5 11.1-11.1c-.1-6.1-5-11.1-11.1-11.1zm41.2 0c-6.1 0-11.1 5-11.1 11.1s5 11.1 11.1 11.1 11.1-5 11.1-11.1c-.1-6.1-5-11.1-11.1-11.1zm41.2 0c-6.1 0-11.1 5-11.1 11.1s5 11.1 11.1 11.1 11.1-5 11.1-11.1c-.1-6.1-5-11.1-11.1-11.1zm41.2 0c-6.1 0-11.1 5-11.1 11.1s5 11.1 11.1 11.1 11.1-5 11.1-11.1c-.1-6.1-5-11.1-11.1-11.1zm30.1 11.1c0 6.1 5 11.1 11.1 11.1 5.1 0 9.3-3.4 10.6-8.1l-7.2-13.4c-1.1-.3-2.2-.5-3.4-.5-6.1-.2-11.1 4.8-11.1 10.9z"/><path class="st1" d="M6022.1 453.8l-230.8 429.3h461.6l-230.8-429.3zm-203.2 412.7l203.2-377.9 203.1 377.9h-406.3z"/><path fill="#a4c0ff" d="M1004.5 1683.8H903.9l50.3-83.6z"/><path fill="#76a0ff" d="M1004.5 1838.3H903.9l50.3-83.6z"/><path class="st1" d="M1004.5 1992.7H903.9l50.3-83.5z"/><path class="st2" d="M695.2 2468.8c-.6 0-1.1-.2-1.5-.6l-117.9-119.3c-.4-.4-.6-.9-.6-1.5s.2-1.1.6-1.5l118.1-116c.8-.8 2.1-.8 2.9 0l117.8 116c.4.4.6.9.6 1.5s-.2 1.1-.6 1.5l-117.9 119.3c-.4.4-.9.6-1.5.6zm-114.9-121.4l115 116.3 115-116.3-114.8-113.1-115.2 113.1z"/><path class="st2" d="M695.2 2470.8c-1.1 0-2.1-.4-2.9-1.2l-117.9-119.3c-.8-.8-1.2-1.8-1.2-2.9 0-1.1.5-2.1 1.2-2.9l118-116c1.6-1.6 4.1-1.6 5.7 0l117.8 116c.8.8 1.2 1.8 1.2 2.9 0 1.1-.4 2.1-1.2 2.9L698 2469.6c-.7.8-1.7 1.2-2.8 1.2zm-118-123.3l117.9 119.3h.2l117.9-119.3 1.4-1.6-1.4 1.4-117.8-116h-.1l-118.1 116-1.4 1.5 1.4-1.3zm118 119.1l-117.8-119.2 117.9-115.9L813 2347.4l-117.8 119.2zm-112.1-119.1l112.1 113.4 112.1-113.4-112-110.3-112.2 110.3z"/><path class="st2" d="M736 2391.1c-.3 0-.6-.1-.8-.2-.6-.3-1-.8-1.2-1.4L693.3 2232c-.2-.9.2-1.9 1-2.3.8-.5 1.8-.3 2.5.3l117.8 116c.5.5.7 1.1.6 1.8-.1.7-.5 1.2-1.1 1.5l-77.1 41.6c-.3.1-.7.2-1 .2zm-36.7-152.9l38.1 147.7 72.3-39-110.4-108.7z"/><path class="st2" d="M736 2393.1c-.5 0-1.1-.1-1.6-.3-1.2-.5-2-1.5-2.4-2.7l-40.6-157.6c-.5-1.8.3-3.7 1.9-4.6 1.6-.9 3.6-.7 4.9.6l117.8 116c.9.9 1.4 2.2 1.2 3.5-.2 1.3-1 2.4-2.1 3l-77.1 41.6c-.7.3-1.3.5-2 .5zm-40.6-161.8c-.1 0-.1 0 0 0-.1 0-.1.1-.1.1l40.6 157.6-.1 2.1.2-2 77.1-41.6 1.4-1.6-1.4 1.4-117.7-116c0 .1 0 0 0 0zm40.6 157.6l-40.5-157.2L813 2347.4l-77 41.5zm-33-144.2l35.6 138.2 67.7-36.5L703 2244.7z"/><path class="st2" d="M736 2391.1c-.2 0-.4 0-.5-.1l-158.7-41.6c-.7-.2-1.3-.8-1.5-1.5-.2-.7 0-1.5.6-2l118.1-116c.5-.5 1.3-.7 2-.5.7.2 1.3.8 1.5 1.5l40.6 157.6c.2.7 0 1.5-.5 2-.5.4-1.1.6-1.6.6zm-154.6-44.8l151.7 39.8-38.8-150.6-112.9 110.8z"/><path class="st2" d="M736 2393.1c-.3 0-.7 0-1-.1l-158.7-41.6c-1.4-.4-2.5-1.5-2.9-2.9-.4-1.4 0-2.9 1.1-4l118.1-116c1-1 2.6-1.4 4-1 1.4.4 2.5 1.5 2.9 2.9l40.6 157.6c.4 1.4-.1 2.9-1.1 3.9-.9.8-1.9 1.2-3 1.2zm-40.7-161.7l-118.1 116v.2l158.7 41.6h.1l-40.6-157.7c0-.1 0-.1-.1-.1zm40.6 157.5l-158.4-41.5 117.8-115.8 40.6 157.3zm-150.6-43.6l145 38-37.1-144-107.9 106z"/><path class="st2" d="M695.2 2468.8c-.6 0-1.1-.2-1.5-.6l-117.9-119.3c-.7-.7-.8-1.7-.3-2.5s1.4-1.2 2.3-1l158.7 41.6c.6.2 1.1.6 1.4 1.2.3.6.2 1.3-.1 1.8l-40.8 77.7c-.3.6-.9 1-1.5 1.1h-.3zm-111.1-117.4l110.5 111.8 38.2-72.8-148.7-39z"/><path class="st2" d="M695.2 2470.8c-1.1 0-2.1-.4-2.9-1.2l-117.9-119.3c-1.3-1.3-1.6-3.3-.6-4.9.9-1.6 2.8-2.4 4.6-1.9l158.7 41.6c1.2.3 2.2 1.2 2.7 2.3.5 1.1.5 2.4-.1 3.5l-40.8 77.7c-.6 1.1-1.7 2-3 2.1-.3.1-.5.1-.7.1zm-117.9-123.5s-.1 0 0 0c-.1.1-.1.1-.1.2l117.9 119.3h.1l40.8-77.7-.1-.1-158.6-41.7zm117.9 119.3l-117.6-119 158.3 41.5-40.7 77.5zm-104.5-111.5l103.5 104.7 35.8-68.2-139.3-36.5z"/><path class="st2" d="M695.2 2468.8c-.2 0-.4 0-.5-.1-.7-.2-1.3-.8-1.5-1.5l-43-156.5c-.2-.7 0-1.5.5-2s1.3-.8 2-.6l160.9 37.2c.7.2 1.3.7 1.5 1.5.2.7 0 1.5-.5 2.1l-117.9 119.3c-.4.4-.9.6-1.5.6zm-40-155.8l41.1 149.6 112.7-114-153.8-35.6z"/><path class="st2" d="M695.2 2470.8c-.3 0-.7 0-1-.1-1.4-.4-2.5-1.5-2.9-2.9l-43-156.5c-.4-1.4 0-2.9 1-3.9s2.5-1.5 3.9-1.2l160.9 37.2c1.4.3 2.6 1.4 3 2.8.4 1.4 0 3-1 4l-117.9 119.3c-.9.9-1.9 1.3-3 1.3zm-43-160.6l43 156.5s0 .1.1.1h.1l117.9-119.3.4-2.1-.5 1.9-160.9-37.2-2 .6 1.9-.5zm43.1 156.3l-42.9-156.2 160.6 37.1-117.7 119.1zM658 2315.8l39.3 143.1 107.8-109.1-147.1-34z"/><path class="st2" d="M577.3 2349.5c-.7 0-1.3-.3-1.7-.9-.6-.8-.5-2 .2-2.7l118.1-116c.7-.7 1.9-.8 2.7-.2.8.6 1.1 1.8.6 2.7l-43.1 78.8c-.2.4-.5.7-.9.9l-74.9 37.2c-.4.1-.7.2-1 .2zm109.4-106.7l-98.6 96.9 62.6-31.1 36-65.8z"/><path class="st2" d="M577.3 2351.5c-1.3 0-2.6-.6-3.3-1.7-1.2-1.7-1-3.9.5-5.3l118.1-116c1.4-1.4 3.7-1.6 5.3-.3 1.6 1.2 2.1 3.5 1.1 5.2l-43.1 78.8c-.4.7-1 1.3-1.8 1.7l-74.9 37.2c-.7.3-1.3.4-1.9.4zm118.1-120.2c-.1 0-.1 0 0 0l-118.1 116v.1h.1l74.9-37.2 43.2-78.8s-.1 0-.1-.1zm-117.6 115.8L695 2231.9l-42.8 78.2-.6.3-73.8 36.7zm100.7-93.4l-80 78.6 50.8-25.2 29.2-53.4z"/></svg>