<svg xmlns="http://www.w3.org/2000/svg" viewBox="0 0 800 800"><path d="M774.7 445.7c-10 49-52.2 74.9-74 117.1-25.5 49.4-33.5 85.1-81 116.1-54.4 35.5-141.3-2.3-212.5-2.3-62.7 0-130.2 24.8-180.5-3.4-56.7-31.6-135.1-48.5-151.5-109-15-55.2-53.5-110.6-47.5-189.9 4-52.2 47.9-50.4 68.5-107.1 17-46.9 69-75.8 111-105 28-19.4 44.2-40.1 75-48s57.1-1.8 94.5-1.8c24.1 0 77.3-9.7 101.1-5.3 28.2 5.3 55.3 13.5 79.3 24.5 28.9 13.2 51.2 49.6 77.6 71.4 30.8 25.5 89.8 39.9 108 70.8 26.8 45.7 42.5 120.4 32 171.9z" opacity=".4" fill="#f2f2f2"/><path d="M552.5 374.4V270.3c0-11.2-9.1-20.3-20.3-20.3H272.8c-11.2 0-20.3 9.1-20.3 20.3v259.4c0 11.2 9.1 20.3 20.3 20.3h259.4c11.2 0 20.3-9.1 20.3-20.3V374.4zM272.8 259.2h125.1v38.5c0 1.8 1.1 3.5 2.7 4.2 1.6.7 3.6.5 4.9-.7 6.7-5.9 15.3-9 24.2-8.8 18.1.6 33 15.2 33.8 33.2.4 9.6-3 18.8-9.6 25.7-6.7 7-15.6 10.8-25.2 10.8-8.5 0-16.7-3.1-23.1-8.8-1.4-1.2-3.3-1.5-4.9-.7-1.6.7-2.7 2.4-2.7 4.2v38.5h-29.6c3.7-6.5 5.6-13.9 5.6-21.5 0-12.2-4.8-23.5-13.6-31.9-8.8-8.4-20.4-12.7-32.5-12.2-22.9 1-41.3 19.8-42 42.7-.2 8.1 1.7 15.9 5.6 22.9h-29.6v-125c-.2-6.1 4.8-11.1 10.9-11.1zm125.1 281.6H272.8c-6.1 0-11.1-5-11.1-11.1V404.6h38.5c1.8 0 3.5-1.1 4.2-2.7.7-1.6.5-3.6-.7-4.9-5.9-6.7-9-15.3-8.8-24.2.6-18.1 15.2-33 33.2-33.8 9.7-.5 18.8 3 25.8 9.6 7 6.7 10.8 15.6 10.8 25.2 0 8.5-3.1 16.7-8.8 23.1-1.2 1.4-1.5 3.3-.7 4.9.7 1.6 2.4 2.7 4.2 2.7h38.5v29.6c-6.9-3.9-14.8-5.9-22.9-5.6-22.9.7-41.7 19.2-42.7 42-.6 12.2 3.8 23.7 12.2 32.5 8.4 8.8 19.7 13.6 31.9 13.6 7.6 0 15-2 21.5-5.6v29.8zm145.4-11.1c0 6.1-5 11.1-11.1 11.1H407.1v-38.5c0-1.8-1.1-3.5-2.7-4.2-1.6-.7-3.6-.5-4.9.7-6.4 5.7-14.6 8.8-23.1 8.8-9.6 0-18.6-3.8-25.2-10.8-6.6-7-10.1-16.1-9.6-25.8.8-18.1 15.7-32.7 33.8-33.2 8.9-.3 17.5 2.8 24.2 8.8 1.4 1.2 3.3 1.5 4.9.7 1.6-.7 2.7-2.4 2.7-4.2v-38.5h29.6c-3.9 6.9-5.9 14.8-5.6 22.9.7 22.9 19.2 41.7 42 42.7h2.1c11.4 0 22.1-4.3 30.4-12.2 8.8-8.4 13.6-19.7 13.6-31.9 0-7.6-2-15-5.6-21.5h29.6v125.1zm-38.5-134.3c-1.8 0-3.5 1.1-4.2 2.7-.7 1.6-.5 3.6.7 4.9 5.7 6.4 8.8 14.6 8.8 23.1 0 9.6-3.8 18.6-10.8 25.2-7 6.6-16.1 10.1-25.7 9.6-18.1-.8-32.7-15.7-33.2-33.8-.3-8.9 2.8-17.5 8.8-24.2 1.2-1.4 1.5-3.3.7-4.9-.7-1.6-2.4-2.7-4.2-2.7h-38.5v-29.6c6.5 3.7 13.9 5.6 21.5 5.6 12.2 0 23.5-4.8 31.9-13.6 8.4-8.8 12.7-20.3 12.2-32.5-1-22.9-19.8-41.3-42.7-42-8.1-.2-16 1.7-22.9 5.6v-29.6h125.1c6.1 0 11.1 5 11.1 11.1v125.1h-38.6z" fill="#4670fd"/></svg>