<svg xmlns="http://www.w3.org/2000/svg" viewBox="0 0 450.7 128"><path d="M242.08 91.22L190.14 95l-9.66 17.06-16.89-5.16 50.43-89.16 58.66 88.02-16.42 6.85-14.18-21.39zm-43.54-11.19l32.47-5.42-15.82-23.81-16.65 29.23zm77.29 31.62l9.35-91.96 7.66-.15c1.18-.03 2.34-.04 3.49-.04 22.89 0 38.96 4.81 47.74 14.28 5.33 5.74 7.73 13.08 6.96 21.23-.63 6.63-3.76 12.34-9.06 16.5l-1.49 1.17.8 1.71c2.53 5.39 5.42 11.46 8.07 17.01 2.86 6 5.6 11.76 7.07 14.95l-19.46 5.16c-.11-.32-.22-.67-.35-1.04-2.03-6.05-6.26-18.64-11.66-30.13l-.76-1.61-1.73.27c-4 .61-8.39.92-13.04.92-3.44 0-6.98-.17-10.54-.5l-2.35-.22-3.74 36.77-16.96-4.32zm22.49-45.86l2.37.2c3.5.3 6.52.44 9.23.44 8.33 0 14.55-1.35 19.56-4.24 3.64-2.1 4.32-8.75 4.32-8.81.28-3-.92-6.04-3.47-8.79-3.92-4.23-13.33-6.86-27.24-7.6l-2.3-.12-2.47 28.92zm66.18-46.05l20.86-1.91 2.43 54.69 40.04-50.08 16.46 13.64-30.05 32.18 35.81 29.91-14.78 13.68-32.08-30.45-13.16 13.28.82 19.17-16.08 1.72-10.27-95.83z" fill="#1175ed"/><path d="M90.53 29.32v-3.3c0-3.17-2.42-5.75-5.4-5.75h-36.2c-2.95 0-5.37 2.55-5.4 5.69a361.2 361.2 0 00-.02 3.36c8.17-.72 16.05-1.08 23.5-1.08 7.44-.01 15.33.36 23.52 1.08z" fill="#4db3ff"/><path d="M118.85 41.57c-.3-.38-.97-1.02-2.05-1.02l-.52-.05c-.13-.02-7.3-1.4-17.99-2.63-8.71-1-19.76-1.91-31.27-1.91-11.52 0-22.56.91-31.27 1.91-10.7 1.23-17.86 2.61-17.99 2.63l-.52.05c-1.08 0-1.75.64-2.05 1.02-.58.74-.78 1.7-.56 2.63 1.25 5.19 1.7 12.29 1.97 19.67.08 2.14.16 4.31.16 6.46 0 .46-.06 1.44-.1 1.77 3.48-2.53 7.33-5.37 11.07-7.86C41.93 54.8 57.14 46.2 67.02 46.2s25.09 8.6 39.29 18.04c3.74 2.49 7.58 5.33 11.07 7.86-.04-.33-.1-1.31-.1-1.77 0-2.15.08-4.32.16-6.46.27-7.38.72-14.48 1.97-19.67.23-.93.02-1.89-.56-2.63z" fill="#3590fe"/><path d="M114.81 79.55c-6.38-4.98-16.36-12.13-25.2-16.85-11.93-6.36-18.93-8.28-22.52-8.35v-.01h-.2v.01c-3.6.07-10.6 1.99-22.52 8.35-8.84 4.72-18.82 11.87-25.2 16.85C12.74 84.57 5.67 90.46.3 95.27l11.94 29.33c3.05-.92 7.01-1.37 10.78-1.37 7.51 0 12.58 2.04 14.67 3.02 4.36 2.05 10.35 1.52 10.35 1.52 2.7-.16 5.36-.81 9.24-2.54 4.03-1.8 10.3-3.34 17.06-3.34 5.24 0 12.11.85 18.96 4.1 5.76 2.73 12.27 2.76 18.02-.53 4.15-2.37 7.64-1.9 10.43-.87l11.94-29.33c-5.38-4.8-12.45-10.69-18.88-15.71z" fill="#014cff"/><path d="M71.89 2.93C71.89 1.32 70.68 0 69.2 0h-4.34c-1.48 0-2.69 1.31-2.69 2.91-.01 3.18-.01 7.42-.02 11.92h9.74V2.93z" fill="#68d3fe"/></svg>