<svg version="1.1" id="图层_1" xmlns="http://www.w3.org/2000/svg" x="0" y="0" viewBox="112 -22 800 800" xml:space="preserve"><style>.st1{fill:#4670fd}</style><path id="XMLID_354_" d="M884.2 423.7c-10 49-52.2 74.9-74 117.1-25.5 49.4-33.5 85.1-81 116.1-54.4 35.5-141.3-2.3-212.5-2.3-62.7 0-130.2 24.8-180.5-3.4-56.7-31.7-135.1-48.5-151.5-109.1-15-55.2-53.5-110.6-47.5-189.9 4-52.2 47.9-50.4 68.5-107.1 17-46.9 69-75.8 111-105 28-19.4 44.2-40.1 75-48s57.1-1.8 94.5-1.8c24.1 0 77.3-9.7 101.1-5.3 28.2 5.3 55.3 13.5 79.3 24.5 28.9 13.2 51.2 49.6 77.6 71.4 30.8 25.5 89.8 39.9 108 70.8 26.8 45.8 42.5 120.5 32 172z" opacity=".4" fill="#f2f2f2"/><g id="XMLID_793_"><path class="st1" d="M383.2 511.5c-12 0-21.7-9.7-21.7-21.7V301.2c0-12.1 9.7-21.9 21.7-21.9h6.6v-19.8c0-2 1-3.6 2.7-4.3 19.4-8.4 39.8-12.7 60.8-12.7 19.6 0 38.9 3.8 57.3 11.2l1.5.6 1.5-.6c18.4-7.4 37.7-11.2 57.3-11.2 20.7 0 41.1 4.3 60.7 12.6 1.7.8 2.8 2.4 2.8 4.3v19.8h6.6c5.8 0 11.2 2.3 15.3 6.5 4.1 4.2 6.3 9.6 6.2 15.4v188.6c0 12-9.7 21.7-21.7 21.7H383.2zm209.1-33.1c-20.9 0-42.5 6.1-59.2 16.6l-11.7 7.4h119.4c7 0 12.6-5.7 12.6-12.6V301c0-7-5.7-12.6-12.6-12.6h-6.6V481c0 1.2-.4 2.3-1.3 3.2s-2 1.4-3.2 1.4c-.6 0-1.2-.1-1.9-.4-10-4.4-22.3-6.8-35.5-6.8zm-209.1-190c-7 0-12.6 5.7-12.6 12.6v188.5c0 7 5.7 12.6 12.6 12.6h119.4l-11.7-7.4c-16.8-10.6-38.3-16.6-59.2-16.6-12.7 0-25 2.4-35.5 6.8-.6.2-1.2.3-1.8.3-2.5 0-4.4-2-4.5-4.8V288.2h-6.7zM570.9 252c-18 0-35.4 3.2-51.6 9.6l-2.5 1v232.6l6.4-4.6c18.8-13.7 44-21.5 69.2-21.5 9.6 0 19 1.2 27.7 3.5l5 1.4V262.6l-2.6-1c-16.8-6.4-34.1-9.6-51.6-9.6zm-139 217.1c25.2 0 50.4 7.8 69.2 21.5l6.4 4.6V262.5l-2.6-1c-16.8-6.3-34.1-9.6-51.6-9.6-18 0-35.4 3.2-51.6 9.6l-2.5 1V474l5-1.3c8.9-2.4 18.3-3.6 27.7-3.6z"/><g id="XMLID_857_"><path id="XMLID_858_" class="st1" d="M476.5 298c-7.7-1.6-15.3-2.3-22.7-2.3-8 0-15.9.9-23.6 2.8-2.4.6-3.8 2.9-3.3 5.2v.1c1 3 3 3.3 4.5 3.3h1c13.7-3.3 28.2-3.4 42.2-.4.3.1.6.1.9.1 2.2 0 4-1.5 4.4-3.5.4-2.5-1.1-4.9-3.4-5.3z"/><path id="XMLID_859_" class="st1" d="M476.6 338.8c-9.1-2.4-18.2-3.6-27.1-3.6-6.4 0-12.9.6-19.2 1.9-2.3.4-4 2.8-3.6 5.1v.1c.8 2.7 2.4 3.7 5.3 3.6h.1c13.6-2.6 27.8-2 42.2 1.8.4.1.8.1 1.2.1 2 0 3.7-1.3 4.2-3.2.6-2.6-.8-5.2-3.1-5.8z"/><path id="XMLID_860_" class="st1" d="M431.5 384.4h.5c14-2 28.2-.8 42 3.5.4.1.9.2 1.3.2 1.9 0 3.5-1.2 4.1-3 .7-2.3-.5-4.7-2.8-5.5-10.5-3.2-21.1-4.8-31.7-4.8-4.8 0-9.6.3-14.4 1-2.3.3-3.9 2.4-3.7 4.9v.2c.8 2.4 2.3 3.5 4.7 3.5z"/><path id="XMLID_861_" class="st1" d="M476.7 419.2c-15.2-4.4-30.7-5.5-46-3.2-2.3.5-3.9 2.6-3.8 4.9v.2c.9 3.3 2.9 3.7 4.7 3.7h.5c13.5-2.1 27.7-1.1 41.9 2.9.4.1.9.2 1.3.2 1.5 0 3.5-.8 4.1-3v-.2c.3-1 .2-2.2-.3-3.3-.4-1-1.3-1.8-2.4-2.2z"/><path id="XMLID_862_" class="st1" d="M548.7 306.7c.3 0 .6 0 .8-.1 14.6-2.9 28.9-2.8 42.3.4.4.1.8.1 1.1.1 2 0 3.3-1.1 4.3-3.4l.1-.2c.5-2.3-1-4.6-3.3-5.1-7.9-1.9-15.9-2.8-23.9-2.8-7.4 0-14.9.8-22.4 2.4-1.1.2-2.1.9-2.7 1.9-.6.9-.9 2.1-.7 3.3v.1c.6 2 2.4 3.4 4.4 3.4z"/><path id="XMLID_863_" class="st1" d="M596.8 338.6c-.7-1-1.7-1.7-2.8-1.9-15.1-2.7-30.7-2.1-46.3 1.7-2.4.6-3.7 2.9-3.1 5.4.5 2.2 2.1 3.7 4 3.7.4 0 .8-.1 1.2-.2h.1c8.3-2.2 16.8-3.3 25.2-3.3 5.7 0 11.4.5 17.2 1.5h.8c1.6 0 3.3-.4 4.4-3.7v-.2c.2-1-.1-2.1-.7-3z"/><path id="XMLID_864_" class="st1" d="M593.5 375.6c-15.2-2.1-30.8-.8-46 3.8-2.4.7-3.6 3.1-2.8 5.5.6 1.8 2.2 3 4 3 .5 0 1-.1 1.5-.2 9.5-3 19.2-4.5 28.8-4.5 4.4 0 8.8.3 13.3.9h.4c1.8 0 3.8-.5 4.5-3.8.2-.9 0-1.9-.6-2.8-.6-.9-1.8-1.6-3.1-1.9z"/><path id="XMLID_865_" class="st1" d="M593.5 416.1c-15.2-2.3-30.9-1.2-46 3.2h-.1c-1.4.3-2.1 1.3-2.5 2-.5 1-.7 2.3-.4 3.6.5 2 2.4 3.1 4 3.1.4 0 .8-.1 1.3-.2 13.8-4.1 28-5.1 42-2.9h.6c2.9 0 4.3-1.1 4.9-3.8.3-1.4-.2-2.4-.7-3.1-.7-1-1.8-1.7-3.1-1.9z"/></g></g></svg>