<svg class="icon" viewBox="0 0 1024 1024" xmlns="http://www.w3.org/2000/svg" width="200" height="200"><defs><style/></defs><path d="M421.4 728.8c15 15 39.6 15 54.6 0l190.8-191.4c14.6-14.6 15-38.2 1.2-53.2L480 295.6c-7.6-7.6-17.4-11.4-27.4-11.4-9.8 0-19.8 3.8-27.2 11.2-15 15-15.2 39.4 0 54.6L585 512 421.2 674.2c-15 15-15 39.4.2 54.6z" fill="#656565"/><path d="M512 928c229.8 0 416-186.2 416-416S741.8 96 512 96 96 282.2 96 512s186.2 416 416 416zM263.2 263.2C329.6 196.6 418 160 512 160s182.4 36.6 248.8 103.2C827.4 329.6 864 418 864 512s-36.6 182.4-103.2 248.8C694.4 827.4 606 864 512 864s-182.4-36.6-248.8-103.2C196.6 694.4 160 606 160 512s36.6-182.4 103.2-248.8z" fill="#656565"/></svg>