<svg class="icon" viewBox="0 0 1024 1024" xmlns="http://www.w3.org/2000/svg" width="16" height="16"><defs><style/></defs><path d="M725.2 385.8L690 349.6c-1.4-1.6-3.6-2.4-5.6-2.4-2.2 0-4.2.8-5.6 2.4l-244 245.8-88.8-88.8c-1.6-1.6-3.6-2.4-5.6-2.4-2 0-4 .8-5.6 2.4l-35.6 35.6c-3.2 3.2-3.2 8.2 0 11.4l112 112c7.2 7.2 16 11.4 23.4 11.4 10.6 0 19.8-7.8 23.2-11h.2l267.4-268.8c2.8-3.4 2.8-8.4-.2-11.4z" fill="#656565"/><path d="M512 152c96.2 0 186.6 37.4 254.6 105.4S872 415.8 872 512s-37.4 186.6-105.4 254.6S608.2 872 512 872c-96.2 0-186.6-37.4-254.6-105.4S152 608.2 152 512s37.4-186.6 105.4-254.6S415.8 152 512 152m0-56C282.2 96 96 282.2 96 512s186.2 416 416 416 416-186.2 416-416S741.8 96 512 96z" fill="#656565"/></svg>