<svg class="icon" viewBox="0 0 1024 1024" xmlns="http://www.w3.org/2000/svg" width="16" height="16"><defs><style/></defs><path d="M557.2 512l136.4-136.4c12.4-12.4 12.4-32.8 0-45.2-12.4-12.4-32.8-12.4-45.2 0L512 466.8 375.6 330.4c-12.4-12.4-32.8-12.4-45.2 0-6.2 6.2-9.4 14.4-9.4 22.6 0 8.2 3.2 16.4 9.4 22.6L466.8 512 330.4 648.4c-6.2 6.2-9.4 14.4-9.4 22.6 0 8.2 3.2 16.4 9.4 22.6 12.4 12.4 32.8 12.4 45.2 0L512 557.2l136.4 136.4c12.4 12.4 32.8 12.4 45.2 0 12.4-12.4 12.4-32.8 0-45.2L557.2 512z" fill="#fff"/></svg>